<svg width="28" height="28" viewBox="0 0 28 28" fill="none" xmlns="http://www.w3.org/2000/svg">
<path d="M13.999 4.29297C14.0984 4.29297 14.1943 4.33212 14.2646 4.40234C14.335 4.47267 14.374 4.56851 14.374 4.66797V13.626H23.333C23.4323 13.6261 23.5274 13.6661 23.5977 13.7363C23.6679 13.8066 23.7079 13.9016 23.708 14.001C23.708 14.1004 23.668 14.1963 23.5977 14.2666C23.5274 14.3367 23.4323 14.3759 23.333 14.376H14.374V23.335C14.3739 23.4342 14.3348 23.5294 14.2646 23.5996C14.1943 23.6699 14.0985 23.71 13.999 23.71C13.8997 23.7099 13.8046 23.6699 13.7344 23.5996C13.6641 23.5294 13.6241 23.4343 13.624 23.335V14.376H4.66602C4.56656 14.376 4.47072 14.3369 4.40039 14.2666C4.33017 14.1963 4.29102 14.1004 4.29102 14.001C4.2911 13.9018 4.33034 13.8065 4.40039 13.7363C4.47072 13.666 4.56656 13.626 4.66602 13.626H13.624V4.66797C13.624 4.56851 13.664 4.47267 13.7344 4.40234C13.8046 4.3323 13.8998 4.29305 13.999 4.29297Z" fill="#121212" stroke="#FCFCFF"/>
</svg>
