<svg width="24" height="24" viewBox="0 0 24 24" fill="none" xmlns="http://www.w3.org/2000/svg">
<path d="M17.4999 11.9999C18.9586 11.9999 20.3575 12.5793 21.389 13.6108C22.4204 14.6422 22.9999 16.0412 22.9999 17.4999C22.9999 18.9586 22.4204 20.3575 21.389 21.389C20.3575 22.4204 18.9586 22.9999 17.4999 22.9999C16.0412 22.9999 14.6423 22.4204 13.6108 21.389C12.5794 20.3575 11.9999 18.9586 11.9999 17.4999C11.9999 16.0412 12.5794 14.6422 13.6108 13.6108C14.6423 12.5793 16.0412 11.9999 17.4999 11.9999ZM12.0229 13.9999C11.7235 14.4675 11.4852 14.9716 11.3139 15.4999H4.25291C4.05399 15.4999 3.86323 15.5789 3.72258 15.7196C3.58192 15.8602 3.50291 16.051 3.50291 16.2499V16.8269C3.50291 17.3619 3.69491 17.8799 4.04291 18.2869C5.29591 19.7559 7.26291 20.5009 9.99991 20.5009C10.5972 20.5009 11.1572 20.4655 11.6799 20.3949C11.9259 20.8899 12.2329 21.3489 12.5919 21.7619C11.7966 21.9219 10.9326 22.0019 9.99991 22.0019C6.85491 22.0019 4.46791 21.0959 2.90191 19.2619C2.32229 18.583 2.00388 17.7196 2.00391 16.8269V16.2489C2.00417 15.6525 2.2412 15.0806 2.66292 14.6589C3.08463 14.2372 3.65652 14.0001 4.25291 13.9999H12.0229ZM17.4999 13.9999L17.4099 14.0079C17.31 14.0261 17.218 14.0744 17.1462 14.1462C17.0744 14.218 17.0262 14.31 17.0079 14.4099L16.9999 14.4999V16.9999H14.5039L14.4139 17.0079C14.314 17.0261 14.222 17.0744 14.1502 17.1462C14.0784 17.218 14.0302 17.31 14.0119 17.4099L14.0039 17.4999L14.0119 17.5899C14.0302 17.6898 14.0784 17.7818 14.1502 17.8536C14.222 17.9254 14.314 17.9736 14.4139 17.9919L14.5039 17.9999H16.9999V20.4999L17.0079 20.5899C17.0262 20.6898 17.0744 20.7818 17.1462 20.8536C17.218 20.9254 17.31 20.9736 17.4099 20.9919L17.4999 20.9999L17.5899 20.9919C17.6898 20.9736 17.7818 20.9254 17.8536 20.8536C17.9254 20.7818 17.9737 20.6898 17.9919 20.5899L17.9999 20.4999V17.9999H20.5039L20.5939 17.9919C20.6938 17.9736 20.7858 17.9254 20.8576 17.8536C20.9294 17.7818 20.9777 17.6898 20.9959 17.5899L21.0039 17.4999L20.9959 17.4099C20.9777 17.31 20.9294 17.218 20.8576 17.1462C20.7858 17.0744 20.6938 17.0261 20.5939 17.0079L20.5039 16.9999H17.9999V14.4999L17.9919 14.4099C17.9737 14.31 17.9254 14.218 17.8536 14.1462C17.7818 14.0744 17.6898 14.0261 17.5899 14.0079L17.4999 13.9999ZM9.99991 2.00488C10.6565 2.00488 11.3067 2.13421 11.9133 2.38548C12.52 2.63676 13.0711 3.00506 13.5354 3.46935C13.9997 3.93364 14.368 4.48484 14.6193 5.09147C14.8706 5.69809 14.9999 6.34827 14.9999 7.00488C14.9999 7.66149 14.8706 8.31167 14.6193 8.9183C14.368 9.52493 13.9997 10.0761 13.5354 10.5404C13.0711 11.0047 12.52 11.373 11.9133 11.6243C11.3067 11.8756 10.6565 12.0049 9.99991 12.0049C8.67382 12.0049 7.40205 11.4781 6.46437 10.5404C5.52669 9.60273 4.99991 8.33097 4.99991 7.00488C4.99991 5.6788 5.52669 4.40703 6.46437 3.46935C7.40205 2.53167 8.67382 2.00488 9.99991 2.00488ZM9.99991 3.50488C9.54028 3.50488 9.08515 3.59541 8.66051 3.7713C8.23588 3.9472 7.85004 4.205 7.52503 4.53001C7.20003 4.85501 6.94222 5.24085 6.76633 5.66549C6.59044 6.09013 6.49991 6.54526 6.49991 7.00488C6.49991 7.46451 6.59044 7.91963 6.76633 8.34427C6.94222 8.76891 7.20003 9.15475 7.52503 9.47976C7.85004 9.80476 8.23588 10.0626 8.66051 10.2385C9.08515 10.4144 9.54028 10.5049 9.99991 10.5049C10.9282 10.5049 11.8184 10.1361 12.4748 9.47976C13.1312 8.82338 13.4999 7.93314 13.4999 7.00488C13.4999 6.07662 13.1312 5.18639 12.4748 4.53001C11.8184 3.87363 10.9282 3.50488 9.99991 3.50488Z" fill="#1ABB65"/>
</svg>
