<svg width="24" height="24" viewBox="0 0 24 24" fill="none" xmlns="http://www.w3.org/2000/svg">
<path fill-rule="evenodd" clip-rule="evenodd" d="M11.9875 1.99611C13.1164 1.99611 14.1883 2.24436 15.1496 2.68947C14.7886 3.0556 14.5017 3.48681 14.3049 3.959C13.5734 3.6546 12.7862 3.4944 11.9875 3.49611C11.1988 3.49367 10.417 3.64694 9.68771 3.94728C8.95834 4.24769 8.2958 4.68982 7.73751 5.24709C7.17921 5.80439 6.73651 6.46646 6.43478 7.19533C6.13308 7.9242 5.97767 8.70532 5.97873 9.49416V13.9033L4.634 16.9961H19.3498L17.9963 13.9043V9.50588L17.9953 9.49904C18.2303 9.49964 18.4656 9.48054 18.6985 9.43947C18.9715 9.39132 19.2369 9.31268 19.4924 9.20998C19.4929 9.2207 19.4939 9.23147 19.4944 9.24221L19.4983 9.49318V13.5889L20.8801 16.7442C20.9631 16.9345 20.9972 17.1427 20.9797 17.3496C20.9622 17.5565 20.8933 17.7561 20.7795 17.9297C20.6658 18.103 20.5107 18.2452 20.3283 18.3438C20.1456 18.4424 19.9403 18.4944 19.7326 18.4942L14.9924 18.4961C14.9924 20.1521 13.6465 21.4961 11.9875 21.4961C11.2217 21.4973 10.4846 21.2055 9.92697 20.6807C9.36916 20.1556 9.03246 19.4367 8.98751 18.6719L8.98263 18.4942H4.25216C4.0448 18.4943 3.83998 18.4431 3.65744 18.3447C3.47503 18.2464 3.32008 18.1039 3.20626 17.9307C3.09239 17.7574 3.02295 17.5582 3.00509 17.3516C2.98729 17.1451 3.02132 16.9373 3.10373 16.7471L4.47677 13.5899V9.49416C4.47611 8.50833 4.66977 7.53188 5.04709 6.62111C5.42441 5.71033 5.97833 4.88308 6.67599 4.18654C7.37363 3.49003 8.20214 2.93838 9.11349 2.56252C10.0247 2.18675 11.0019 1.99394 11.9875 1.99611ZM10.4846 18.4971C10.4784 18.8867 10.6243 19.2636 10.8908 19.5479C11.1574 19.832 11.5241 20.0017 11.9133 20.0205C12.3025 20.0392 12.6841 19.9057 12.9768 19.6485C13.2693 19.3912 13.4504 19.0299 13.4817 18.6416L13.4875 18.4951L10.4846 18.4971Z" fill="#121212"/>
<path d="M15.0467 4.96344C15.1723 4.27113 15.537 3.64507 16.077 3.19475C16.617 2.74444 17.2979 2.49852 18.0006 2.50001C18.3942 2.49953 18.7841 2.57674 19.1479 2.7272C19.5117 2.87767 19.8423 3.09845 20.1208 3.37693C20.3994 3.65541 20.6204 3.98612 20.7713 4.35017C20.9221 4.71422 20.9998 5.10447 21 5.49861C21.0002 5.96635 20.8913 6.42767 20.6817 6.84572C20.4722 7.26377 20.168 7.62697 19.7933 7.90631C19.4186 8.18564 18.9839 8.37338 18.5239 8.45452C18.0638 8.53566 17.5912 8.50795 17.1438 8.37362C16.4363 8.16346 15.8312 7.69924 15.4444 7.06994C15.0577 6.44064 14.9165 5.69055 15.0479 4.96344" fill="#F62D2D"/>
</svg>
