<svg width="24" height="24" viewBox="0 0 24 24" fill="none" xmlns="http://www.w3.org/2000/svg">
<path d="M12 1.9961C13.9466 1.99354 15.8177 2.74894 17.217 4.10226C18.6162 5.45557 19.4336 7.30048 19.496 9.2461L19.5 9.4961V13.5931L20.88 16.7491C20.963 16.9393 20.9973 17.1471 20.9799 17.3539C20.9625 17.5607 20.8939 17.7598 20.7803 17.9335C20.6667 18.1071 20.5117 18.2497 20.3292 18.3485C20.1467 18.4472 19.9425 18.499 19.735 18.4991L15 18.5021C15.001 19.2831 14.6974 20.0337 14.1537 20.5944C13.61 21.1551 12.8691 21.4817 12.0885 21.5047C11.3078 21.5278 10.549 21.2455 9.97316 20.7178C9.39736 20.1902 9.05001 19.4588 9.00495 18.6791L8.99995 18.4991H4.27495C4.06767 18.4991 3.86364 18.4476 3.68123 18.3491C3.49882 18.2507 3.34375 18.1084 3.22999 17.9351C3.11623 17.7619 3.04734 17.563 3.02953 17.3565C3.01171 17.15 3.04554 16.9423 3.12795 16.7521L4.49995 13.5941V9.4961C4.49995 5.3411 7.85195 1.9961 12 1.9961ZM13.5 18.5001L10.5 18.5021C10.4999 18.8874 10.6481 19.258 10.9138 19.5369C11.1796 19.8159 11.5425 19.982 11.9274 20.0006C12.3122 20.0192 12.6895 19.8891 12.981 19.6371C13.2724 19.3851 13.4558 19.0306 13.493 18.6471L13.5 18.5001ZM12 3.4961C8.67995 3.4961 5.99995 6.1701 5.99995 9.4961V13.9061L4.65595 17.0001H19.353L18 13.9071V9.5091L17.997 9.2841C17.9445 7.72951 17.2894 6.25629 16.1702 5.17608C15.0509 4.09587 13.5554 3.4934 12 3.4961Z" fill="#121212"/>
</svg>
