<svg width="24" height="24" viewBox="0 0 24 24" fill="none" xmlns="http://www.w3.org/2000/svg">
<path d="M8.70904 12L16.7924 3.71413C16.8589 3.64735 16.9115 3.56808 16.9472 3.48089C16.9828 3.3937 17.0008 3.30033 17 3.20617C16.9992 3.11202 16.9797 3.01896 16.9426 2.93237C16.9055 2.84578 16.8516 2.76739 16.784 2.70173C16.7163 2.63607 16.6363 2.58444 16.5485 2.54984C16.4607 2.51523 16.3669 2.49834 16.2725 2.50013C16.1781 2.50192 16.085 2.52237 15.9986 2.56028C15.9122 2.59819 15.8342 2.65282 15.7691 2.721L7.20222 11.5034C7.07255 11.6364 7 11.8145 7 12C7 12.1855 7.07255 12.3636 7.20222 12.4966L15.7691 21.279C15.8342 21.3472 15.9122 21.4018 15.9986 21.4397C16.085 21.4776 16.1781 21.4981 16.2725 21.4999C16.3669 21.5017 16.4607 21.4848 16.5485 21.4502C16.6363 21.4156 16.7163 21.3639 16.784 21.2983C16.8516 21.2326 16.9055 21.1542 16.9426 21.0676C16.9797 20.981 16.9992 20.888 17 20.7938C17.0008 20.6997 16.9828 20.6063 16.9472 20.5191C16.9115 20.4319 16.8589 20.3526 16.7924 20.2859L8.70904 12Z" fill="#121212"/>
</svg>
