<svg width="16" height="16" viewBox="0 0 16 16" fill="none" xmlns="http://www.w3.org/2000/svg">
<path d="M10.1941 7.99984L4.80516 2.47592C4.76079 2.43141 4.72571 2.37856 4.70196 2.32043C4.6782 2.2623 4.66624 2.20005 4.66676 2.13729C4.66729 2.07452 4.68028 2.01248 4.70501 1.95475C4.72973 1.89703 4.76568 1.84476 4.81078 1.80099C4.85588 1.75722 4.90924 1.7228 4.96777 1.69973C5.02629 1.67666 5.08883 1.6654 5.15175 1.66659C5.21467 1.66778 5.27672 1.68141 5.33433 1.70669C5.39193 1.73196 5.44394 1.76838 5.48734 1.81384L11.1986 7.6688C11.285 7.75742 11.3334 7.87619 11.3334 7.99984C11.3334 8.12349 11.285 8.24225 11.1986 8.33088L5.48734 14.1858C5.44394 14.2313 5.39193 14.2677 5.33433 14.293C5.27672 14.3183 5.21467 14.3319 5.15175 14.3331C5.08883 14.3343 5.02629 14.323 4.96777 14.2999C4.90924 14.2769 4.85588 14.2425 4.81078 14.1987C4.76568 14.1549 4.72973 14.1026 4.70501 14.0449C4.68028 13.9872 4.66729 13.9252 4.66676 13.8624C4.66624 13.7996 4.6782 13.7374 4.70196 13.6792C4.72571 13.6211 4.76079 13.5683 4.80516 13.5238L10.1941 7.99984Z" fill="#C0C4CD"/>
</svg>
