<svg width="18" height="18" viewBox="0 0 18 18" fill="none" xmlns="http://www.w3.org/2000/svg">
<path d="M9 11.4682L15.2144 5.40571C15.2645 5.3558 15.3239 5.31634 15.3893 5.28961C15.4547 5.26289 15.5248 5.24943 15.5954 5.25002C15.666 5.25061 15.7358 5.26523 15.8007 5.29304C15.8657 5.32085 15.9245 5.36129 15.9737 5.41204C16.0229 5.46278 16.0617 5.5228 16.0876 5.58865C16.1136 5.65449 16.1262 5.72484 16.1249 5.79562C16.1236 5.86641 16.1082 5.93622 16.0798 6.00103C16.0514 6.06583 16.0104 6.12434 15.9592 6.17316L9.37242 12.5983C9.27272 12.6956 9.13911 12.75 9 12.75C8.8609 12.75 8.72728 12.6956 8.62758 12.5983L2.04075 6.17316C1.98961 6.12434 1.94864 6.06583 1.92021 6.00103C1.89177 5.93622 1.87644 5.86641 1.8751 5.79562C1.87375 5.72484 1.88642 5.65449 1.91238 5.58865C1.93833 5.5228 1.97705 5.46278 2.0263 5.41204C2.07554 5.36129 2.13434 5.32085 2.19928 5.29304C2.26422 5.26523 2.33402 5.25061 2.40463 5.25002C2.47524 5.24943 2.54527 5.26289 2.61067 5.28961C2.67606 5.31634 2.73552 5.3558 2.7856 5.40571L9 11.4682Z" fill="#C0C4CD"/>
</svg>
