<svg width="24" height="24" viewBox="0 0 24 24" fill="none" xmlns="http://www.w3.org/2000/svg">
<path d="M12 8.70904L20.2859 16.7924C20.3526 16.8589 20.4319 16.9115 20.5191 16.9472C20.6063 16.9828 20.6997 17.0008 20.7938 17C20.888 16.9992 20.981 16.9797 21.0676 16.9426C21.1542 16.9055 21.2326 16.8516 21.2983 16.784C21.3639 16.7163 21.4156 16.6363 21.4502 16.5485C21.4848 16.4607 21.5017 16.3669 21.4999 16.2725C21.4981 16.1781 21.4776 16.085 21.4397 15.9986C21.4018 15.9122 21.3472 15.8342 21.279 15.7691L12.4966 7.20222C12.3636 7.07255 12.1855 7 12 7C11.8145 7 11.6364 7.07255 11.5034 7.20222L2.721 15.7691C2.65282 15.8342 2.59819 15.9122 2.56028 15.9986C2.52236 16.085 2.50192 16.1781 2.50013 16.2725C2.49834 16.3669 2.51523 16.4607 2.54984 16.5485C2.58444 16.6363 2.63607 16.7163 2.70173 16.784C2.76739 16.8516 2.84578 16.9055 2.93237 16.9426C3.01896 16.9797 3.11202 16.9992 3.20617 17C3.30033 17.0008 3.3937 16.9828 3.48089 16.9472C3.56808 16.9115 3.64735 16.8589 3.71413 16.7924L12 8.70904Z" fill="#121212"/>
</svg>
