<svg width="16" height="16" viewBox="0 0 16 16" fill="none" xmlns="http://www.w3.org/2000/svg">
<path d="M8.00008 10.1938L13.524 4.80491C13.5685 4.76055 13.6214 4.72547 13.6795 4.70172C13.7376 4.67796 13.7999 4.666 13.8626 4.66652C13.9254 4.66704 13.9874 4.68004 14.0452 4.70476C14.1029 4.72948 14.1552 4.76543 14.1989 4.81054C14.2427 4.85564 14.2771 4.909 14.3002 4.96752C14.3233 5.02605 14.3345 5.08858 14.3333 5.1515C14.3321 5.21442 14.3185 5.27648 14.2932 5.33408C14.268 5.39169 14.2315 5.44369 14.1861 5.48709L8.33112 11.1984C8.2425 11.2848 8.12373 11.3332 8.00008 11.3332C7.87643 11.3332 7.75766 11.2848 7.66904 11.1984L1.81408 5.48709C1.76863 5.44369 1.73221 5.39169 1.70693 5.33408C1.68166 5.27648 1.66803 5.21442 1.66683 5.1515C1.66564 5.08858 1.6769 5.02605 1.69997 4.96752C1.72304 4.909 1.75746 4.85564 1.80123 4.81054C1.84501 4.76543 1.89727 4.72948 1.955 4.70476C2.01272 4.68004 2.07476 4.66704 2.13753 4.66652C2.2003 4.666 2.26255 4.67796 2.32067 4.70172C2.3788 4.72547 2.43165 4.76055 2.47617 4.80491L8.00008 10.1938Z" fill="#C0C4CD"/>
</svg>
