<svg width="16" height="16" viewBox="0 0 16 16" fill="none" xmlns="http://www.w3.org/2000/svg">
<path d="M10.194 7.99984L4.8051 2.47592C4.76073 2.43141 4.72565 2.37856 4.7019 2.32043C4.67814 2.2623 4.66618 2.20005 4.6667 2.13729C4.66723 2.07452 4.68022 2.01248 4.70494 1.95475C4.72966 1.89703 4.76562 1.84476 4.81072 1.80099C4.85582 1.75722 4.90918 1.7228 4.96771 1.69973C5.02623 1.67666 5.08877 1.6654 5.15169 1.66659C5.21461 1.66778 5.27666 1.68141 5.33427 1.70669C5.39187 1.73196 5.44388 1.76838 5.48728 1.81384L11.1985 7.6688C11.285 7.75742 11.3334 7.87619 11.3334 7.99984C11.3334 8.12349 11.285 8.24225 11.1985 8.33088L5.48728 14.1858C5.44388 14.2313 5.39187 14.2677 5.33427 14.293C5.27666 14.3183 5.21461 14.3319 5.15169 14.3331C5.08877 14.3343 5.02623 14.323 4.96771 14.2999C4.90918 14.2769 4.85582 14.2425 4.81072 14.1987C4.76562 14.1549 4.72966 14.1026 4.70494 14.0449C4.68022 13.9872 4.66723 13.9252 4.6667 13.8624C4.66618 13.7996 4.67814 13.7374 4.7019 13.6792C4.72565 13.6211 4.76073 13.5683 4.8051 13.5238L10.194 7.99984Z" fill="#C0C4CD"/>
</svg>
