<svg width="16" height="16" viewBox="0 0 16 16" fill="none" xmlns="http://www.w3.org/2000/svg">
<path d="M10.194 7.99984L4.80507 2.47592C4.76071 2.43141 4.72563 2.37856 4.70188 2.32043C4.67812 2.2623 4.66616 2.20005 4.66668 2.13729C4.6672 2.07452 4.6802 2.01248 4.70492 1.95475C4.72964 1.89703 4.76559 1.84476 4.8107 1.80099C4.8558 1.75722 4.90916 1.7228 4.96768 1.69973C5.02621 1.67666 5.08874 1.6654 5.15166 1.66659C5.21458 1.66778 5.27664 1.68141 5.33424 1.70669C5.39185 1.73196 5.44385 1.76838 5.48725 1.81384L11.1985 7.6688C11.285 7.75742 11.3333 7.87619 11.3333 7.99984C11.3333 8.12349 11.285 8.24225 11.1985 8.33088L5.48725 14.1858C5.44385 14.2313 5.39185 14.2677 5.33424 14.293C5.27664 14.3183 5.21458 14.3319 5.15166 14.3331C5.08874 14.3343 5.02621 14.323 4.96768 14.2999C4.90916 14.2769 4.8558 14.2425 4.8107 14.1987C4.76559 14.1549 4.72964 14.1026 4.70492 14.0449C4.6802 13.9872 4.6672 13.9252 4.66668 13.8624C4.66616 13.7996 4.67812 13.7374 4.70188 13.6792C4.72563 13.6211 4.76071 13.5683 4.80507 13.5238L10.194 7.99984Z" fill="#C0C4CD"/>
</svg>
