<svg width="16" height="16" viewBox="0 0 16 16" fill="none" xmlns="http://www.w3.org/2000/svg">
<path d="M8.00008 10.1941L13.524 4.80516C13.5685 4.76079 13.6214 4.72571 13.6795 4.70196C13.7376 4.6782 13.7999 4.66624 13.8626 4.66676C13.9254 4.66729 13.9874 4.68028 14.0452 4.70501C14.1029 4.72973 14.1552 4.76568 14.1989 4.81078C14.2427 4.85588 14.2771 4.90924 14.3002 4.96777C14.3233 5.02629 14.3345 5.08883 14.3333 5.15175C14.3321 5.21467 14.3185 5.27672 14.2932 5.33433C14.268 5.39193 14.2315 5.44394 14.1861 5.48734L8.33112 11.1986C8.2425 11.285 8.12373 11.3334 8.00008 11.3334C7.87643 11.3334 7.75766 11.285 7.66904 11.1986L1.81408 5.48734C1.76863 5.44394 1.73221 5.39193 1.70693 5.33433C1.68166 5.27672 1.66803 5.21467 1.66683 5.15175C1.66564 5.08883 1.6769 5.02629 1.69997 4.96777C1.72304 4.90924 1.75746 4.85588 1.80123 4.81078C1.84501 4.76568 1.89727 4.72973 1.955 4.70501C2.01272 4.68028 2.07476 4.66729 2.13753 4.66676C2.2003 4.66624 2.26255 4.6782 2.32067 4.70196C2.3788 4.72571 2.43165 4.76079 2.47617 4.80516L8.00008 10.1941Z" fill="#C0C4CD"/>
</svg>
