<svg width="24" height="24" viewBox="0 0 24 24" fill="none" xmlns="http://www.w3.org/2000/svg">
<path d="M12 15.291L20.2859 7.20762C20.3526 7.14106 20.4319 7.08845 20.5191 7.05282C20.6063 7.01718 20.6997 6.99924 20.7938 7.00002C20.888 7.00081 20.981 7.02031 21.0676 7.05739C21.1542 7.09447 21.2326 7.14839 21.2983 7.21605C21.3639 7.2837 21.4156 7.36374 21.4502 7.45153C21.4848 7.53932 21.5017 7.63312 21.4999 7.7275C21.4981 7.82188 21.4776 7.91496 21.4397 8.00137C21.4018 8.08777 21.3472 8.16578 21.279 8.23088L12.4966 16.7978C12.3636 16.9275 12.1855 17 12 17C11.8145 17 11.6364 16.9275 11.5034 16.7978L2.721 8.23088C2.65282 8.16578 2.59819 8.08777 2.56028 8.00137C2.52236 7.91496 2.50192 7.82188 2.50013 7.7275C2.49834 7.63312 2.51523 7.53932 2.54984 7.45153C2.58444 7.36374 2.63607 7.2837 2.70173 7.21605C2.76739 7.14839 2.84578 7.09447 2.93237 7.05739C3.01896 7.02031 3.11202 7.00081 3.20617 7.00002C3.30033 6.99924 3.3937 7.01718 3.48089 7.05282C3.56808 7.08845 3.64735 7.14106 3.71413 7.20762L12 15.291Z" fill="#121212"/>
</svg>
