<svg width="24" height="24" viewBox="0 0 24 24" fill="none" xmlns="http://www.w3.org/2000/svg">
<path d="M15.291 12L7.20762 3.71413C7.14106 3.64735 7.08845 3.56808 7.05282 3.48089C7.01718 3.3937 6.99924 3.30033 7.00002 3.20617C7.00081 3.11202 7.02031 3.01896 7.05739 2.93237C7.09447 2.84578 7.14839 2.76739 7.21605 2.70173C7.2837 2.63607 7.36374 2.58444 7.45153 2.54984C7.53932 2.51523 7.63312 2.49834 7.7275 2.50013C7.82188 2.50192 7.91496 2.52237 8.00137 2.56028C8.08777 2.59819 8.16578 2.65282 8.23088 2.721L16.7978 11.5034C16.9275 11.6364 17 11.8145 17 12C17 12.1855 16.9275 12.3636 16.7978 12.4966L8.23088 21.279C8.16578 21.3472 8.08777 21.4018 8.00137 21.4397C7.91496 21.4776 7.82188 21.4981 7.7275 21.4999C7.63312 21.5017 7.53932 21.4848 7.45153 21.4502C7.36374 21.4156 7.2837 21.3639 7.21605 21.2983C7.14839 21.2326 7.09447 21.1542 7.05739 21.0676C7.02031 20.981 7.00081 20.888 7.00002 20.7938C6.99924 20.6997 7.01718 20.6063 7.05282 20.5191C7.08845 20.4319 7.14106 20.3526 7.20762 20.2859L15.291 12Z" fill="#121212"/>
</svg>
