<svg width="20" height="20" viewBox="0 0 20 20" fill="none" xmlns="http://www.w3.org/2000/svg">
<path d="M11.6042 2.08677C11.9309 2.08674 12.2519 2.17208 12.5355 2.33433C12.8191 2.49658 13.0553 2.73011 13.2209 3.01177L13.8992 4.1676H15.625C16.3432 4.1676 17.0319 4.45283 17.5398 4.96056C18.0477 5.46829 18.3331 6.15695 18.3334 6.8751V14.7918C18.3334 15.1474 18.2633 15.4996 18.1272 15.8282C17.9911 16.1568 17.7916 16.4554 17.5401 16.7069C17.2886 16.9583 16.99 17.1578 16.6615 17.2939C16.3329 17.4301 15.9807 17.5001 15.625 17.5001H4.37502C3.65673 17.5001 2.96785 17.2148 2.45994 16.7069C1.95203 16.1989 1.66669 15.5101 1.66669 14.7918V6.8751C1.66669 6.15681 1.95203 5.46793 2.45994 4.96002C2.96785 4.45211 3.65673 4.16677 4.37502 4.16677H6.10835L6.83752 2.9801C7.00518 2.70695 7.24005 2.48134 7.51972 2.3248C7.79939 2.16826 8.11452 2.08602 8.43502 2.08594L11.6042 2.08677ZM11.6042 3.33677H8.43502C8.34382 3.33685 8.25375 3.35688 8.17112 3.39546C8.08848 3.43404 8.0153 3.49023 7.95669 3.5601L7.90252 3.6351L6.99169 5.11844C6.93584 5.20954 6.85756 5.2848 6.76433 5.33703C6.67111 5.38926 6.56605 5.41671 6.45919 5.41677H4.37585C4.18427 5.41666 3.99455 5.4543 3.81752 5.52754C3.64049 5.60078 3.47962 5.70818 3.34412 5.84361C3.20861 5.97904 3.10112 6.13984 3.02778 6.31683C2.95444 6.49382 2.91669 6.68352 2.91669 6.8751V14.7918C2.91669 15.5968 3.57002 16.2501 4.37502 16.2501H15.625C16.0118 16.2501 16.3827 16.0965 16.6562 15.823C16.9297 15.5495 17.0834 15.1785 17.0834 14.7918V6.8751C17.0834 6.48833 16.9297 6.1174 16.6562 5.84391C16.3827 5.57042 16.0118 5.41677 15.625 5.41677H13.5417C13.4327 5.41683 13.3257 5.3884 13.2311 5.33432C13.1365 5.28023 13.0577 5.20237 13.0025 5.10844L12.1425 3.64427C12.0874 3.55046 12.0087 3.47267 11.9143 3.4186C11.8199 3.36452 11.713 3.33603 11.6042 3.33594M10 6.66677C10.9946 6.66677 11.9484 7.06186 12.6517 7.76512C13.3549 8.46838 13.75 9.42221 13.75 10.4168C13.75 11.4113 13.3549 12.3652 12.6517 13.0684C11.9484 13.7717 10.9946 14.1668 10 14.1668C9.00546 14.1668 8.05163 13.7717 7.34837 13.0684C6.64511 12.3652 6.25002 11.4113 6.25002 10.4168C6.25002 9.42221 6.64511 8.46838 7.34837 7.76512C8.05163 7.06186 9.00546 6.66677 10 6.66677ZM10 7.91677C9.67172 7.91677 9.34663 7.98143 9.04331 8.10707C8.74 8.23271 8.4644 8.41686 8.23225 8.649C8.00011 8.88115 7.81596 9.15675 7.69032 9.46006C7.56468 9.76338 7.50002 10.0885 7.50002 10.4168C7.50002 10.7451 7.56468 11.0702 7.69032 11.3735C7.81596 11.6768 8.00011 11.9524 8.23225 12.1845C8.4644 12.4167 8.74 12.6008 9.04331 12.7265C9.34663 12.8521 9.67172 12.9168 10 12.9168C10.6631 12.9168 11.2989 12.6534 11.7678 12.1845C12.2366 11.7157 12.5 11.0798 12.5 10.4168C12.5 9.75373 12.2366 9.11784 11.7678 8.649C11.2989 8.18016 10.6631 7.91677 10 7.91677Z" fill="#C0C4CD"/>
</svg>
