<svg width="24" height="24" viewBox="0 0 24 24" fill="none" xmlns="http://www.w3.org/2000/svg">
<path d="M13.925 2.50393C14.317 2.5039 14.7023 2.6063 15.0426 2.801C15.3829 2.9957 15.6664 3.27593 15.865 3.61393L16.679 5.00093H18.75C19.6118 5.00093 20.4383 5.3432 21.0477 5.95248C21.6572 6.56176 21.9997 7.38815 22 8.24993V17.7499C22 18.1767 21.9159 18.5993 21.7526 18.9937C21.5893 19.388 21.3499 19.7462 21.0481 20.048C20.7463 20.3498 20.388 20.5892 19.9937 20.7525C19.5994 20.9159 19.1768 20.9999 18.75 20.9999H5.25C4.38805 20.9999 3.5614 20.6575 2.9519 20.048C2.34241 19.4385 2 18.6119 2 17.7499V8.24993C2 7.38798 2.34241 6.56133 2.9519 5.95183C3.5614 5.34234 4.38805 4.99993 5.25 4.99993H7.33L8.205 3.57593C8.40619 3.24815 8.68804 2.97741 9.02364 2.78956C9.35925 2.60172 9.7374 2.50303 10.122 2.50293L13.925 2.50393ZM13.925 4.00393H10.122C10.0126 4.00402 9.90448 4.02806 9.80532 4.07435C9.70616 4.12065 9.61833 4.18809 9.548 4.27193L9.483 4.36193L8.39 6.14193C8.32298 6.25125 8.22904 6.34156 8.11717 6.40424C8.0053 6.46692 7.87923 6.49986 7.751 6.49993H5.251C5.0211 6.4998 4.79343 6.54497 4.581 6.63285C4.36856 6.72074 4.17552 6.84962 4.01292 7.01214C3.85031 7.17465 3.72131 7.36762 3.63331 7.58C3.5453 7.79239 3.5 8.02003 3.5 8.24993V17.7499C3.5 18.7159 4.284 19.4999 5.25 19.4999H18.75C19.2141 19.4999 19.6592 19.3156 19.9874 18.9874C20.3156 18.6592 20.5 18.2141 20.5 17.7499V8.24993C20.5 7.7858 20.3156 7.34068 19.9874 7.01249C19.6592 6.6843 19.2141 6.49993 18.75 6.49993H16.25C16.1193 6.5 15.9908 6.46589 15.8773 6.40099C15.7638 6.33609 15.6692 6.24264 15.603 6.12993L14.571 4.37293C14.5048 4.26036 14.4104 4.16701 14.2971 4.10212C14.1838 4.03723 14.0556 4.00304 13.925 4.00293M12 7.99993C13.1935 7.99993 14.3381 8.47404 15.182 9.31795C16.0259 10.1619 16.5 11.3065 16.5 12.4999C16.5 13.6934 16.0259 14.838 15.182 15.6819C14.3381 16.5258 13.1935 16.9999 12 16.9999C10.8065 16.9999 9.66193 16.5258 8.81802 15.6819C7.97411 14.838 7.5 13.6934 7.5 12.4999C7.5 11.3065 7.97411 10.1619 8.81802 9.31795C9.66193 8.47404 10.8065 7.99993 12 7.99993ZM12 9.49993C11.606 9.49993 11.2159 9.57753 10.8519 9.72829C10.488 9.87905 10.1573 10.1 9.87868 10.3786C9.6001 10.6572 9.37913 10.9879 9.22836 11.3519C9.0776 11.7159 9 12.106 9 12.4999C9 12.8939 9.0776 13.284 9.22836 13.648C9.37913 14.012 9.6001 14.3427 9.87868 14.6213C10.1573 14.8998 10.488 15.1208 10.8519 15.2716C11.2159 15.4223 11.606 15.4999 12 15.4999C12.7956 15.4999 13.5587 15.1839 14.1213 14.6213C14.6839 14.0586 15 13.2956 15 12.4999C15 11.7043 14.6839 10.9412 14.1213 10.3786C13.5587 9.816 12.7956 9.49993 12 9.49993Z" fill="#121212"/>
</svg>
