<svg width="24" height="24" viewBox="0 0 24 24" fill="none" xmlns="http://www.w3.org/2000/svg">
<path d="M12 2.00195C10.9723 2.00195 9.98666 2.41021 9.25996 3.13691C8.53326 3.86362 8.125 4.84924 8.125 5.87695C8.125 8.79695 9.332 12.429 9.938 14.076C10.095 14.4959 10.3771 14.8575 10.7462 15.112C11.1154 15.3665 11.5537 15.5016 12.002 15.499C12.906 15.499 13.741 14.957 14.065 14.081C14.671 12.441 15.875 8.82695 15.875 5.87695C15.875 4.84924 15.4667 3.86362 14.74 3.13691C14.0133 2.41021 13.0277 2.00195 12 2.00195ZM9.625 5.87695C9.625 5.24706 9.87522 4.64297 10.3206 4.19757C10.766 3.75218 11.3701 3.50195 12 3.50195C12.6299 3.50195 13.234 3.75218 13.6794 4.19757C14.1248 4.64297 14.375 5.24706 14.375 5.87695C14.375 8.53195 13.264 11.92 12.658 13.561C12.6066 13.6921 12.5163 13.8043 12.3992 13.8826C12.2821 13.9609 12.1438 14.0015 12.003 13.999C11.8616 14.0018 11.7227 13.9611 11.6052 13.8824C11.4877 13.8037 11.3972 13.6908 11.346 13.559C10.739 11.907 9.625 8.50095 9.625 5.87695ZM12.001 17.001C11.3377 17.001 10.7016 17.2645 10.2325 17.7335C9.7635 18.2025 9.5 18.8386 9.5 19.502C9.5 20.1653 9.7635 20.8014 10.2325 21.2704C10.7016 21.7395 11.3377 22.003 12.001 22.003C12.6643 22.003 13.3004 21.7395 13.7695 21.2704C14.2385 20.8014 14.502 20.1653 14.502 19.502C14.502 18.8386 14.2385 18.2025 13.7695 17.7335C13.3004 17.2645 12.6643 17.001 12.001 17.001ZM11 19.502C11 19.3705 11.0259 19.2403 11.0762 19.1189C11.1265 18.9974 11.2002 18.8871 11.2932 18.7941C11.3861 18.7012 11.4965 18.6275 11.6179 18.5771C11.7394 18.5268 11.8695 18.501 12.001 18.501C12.1325 18.501 12.2626 18.5268 12.3841 18.5771C12.5055 18.6275 12.6159 18.7012 12.7088 18.7941C12.8018 18.8871 12.8755 18.9974 12.9258 19.1189C12.9761 19.2403 13.002 19.3705 13.002 19.502C13.002 19.7674 12.8965 20.022 12.7088 20.2098C12.5211 20.3975 12.2665 20.503 12.001 20.503C11.7355 20.503 11.4809 20.3975 11.2932 20.2098C11.1055 20.022 11 19.7674 11 19.502Z" fill="#121212"/>
</svg>
