<svg width="24" height="24" viewBox="0 0 24 24" fill="none" xmlns="http://www.w3.org/2000/svg">
<path fill-rule="evenodd" clip-rule="evenodd" d="M18.0971 2.31828C19.0821 1.55263 20.518 2.25497 20.518 3.50285V20.5116C20.5178 21.9335 18.7232 22.5571 17.8412 21.4413L13.6498 16.1415C13.3368 15.7455 12.8608 15.5156 12.3559 15.5155H5.50234C4.07463 15.5152 3.45453 13.7079 4.58242 12.831L18.0971 2.31828ZM5.50332 14.0155H12.3568C12.5285 14.0156 12.6992 14.0298 12.8676 14.0575L14.9359 10.0263C15.1375 9.63345 15.6191 9.47745 16.0121 9.67863C16.4051 9.8802 16.5602 10.3627 16.3588 10.7558L14.3305 14.7118C14.5134 14.859 14.68 15.0265 14.8266 15.2118L19.018 20.5116V3.50285L5.50332 14.0155Z" fill="#121212"/>
</svg>
