<svg width="24" height="24" viewBox="0 0 24 24" fill="none" xmlns="http://www.w3.org/2000/svg">
<path d="M16.0967 2.31852C17.0817 1.55288 18.5176 2.25521 18.5176 3.50309V11.0812C18.1831 11.0282 17.843 11.0002 17.5 11.0002C17.3384 11.0002 17.1776 11.0078 17.0176 11.0197V3.50309L3.50292 14.0158H10.3564C10.5279 14.0158 10.699 14.0301 10.8672 14.0578L12.9355 10.0265C13.1371 9.63379 13.6188 9.47793 14.0117 9.67888C14.4047 9.88044 14.5598 10.3629 14.3584 10.756L13.5439 12.3439C13.3199 12.5157 13.1051 12.7017 12.9033 12.9035C12.1016 13.7052 11.5329 14.6955 11.2363 15.7697C10.976 15.6055 10.6712 15.5158 10.3555 15.5158H3.50195C2.07472 15.5151 1.45475 13.7081 2.58202 12.8312L16.0967 2.31852Z" fill="#121212"/>
<path d="M17.5 12C18.9587 12 20.3576 12.5795 21.3891 13.6109C22.4205 14.6424 23 16.0413 23 17.5C23 18.9587 22.4205 20.3576 21.3891 21.3891C20.3576 22.4205 18.9587 23 17.5 23C16.0413 23 14.6424 22.4205 13.6109 21.3891C12.5795 20.3576 12 18.9587 12 17.5C12 16.0413 12.5795 14.6424 13.6109 13.6109C14.6424 12.5795 16.0413 12 17.5 12ZM17.5 19.751C17.4159 19.7476 17.332 19.7613 17.2533 19.7912C17.1746 19.821 17.1027 19.8665 17.042 19.9248C16.9813 19.9831 16.933 20.0531 16.9 20.1306C16.867 20.208 16.85 20.2913 16.85 20.3755C16.85 20.4597 16.867 20.543 16.9 20.6204C16.933 20.6979 16.9813 20.7679 17.042 20.8262C17.1027 20.8845 17.1746 20.93 17.2533 20.9598C17.332 20.9897 17.4159 21.0034 17.5 21C17.6613 20.9935 17.8139 20.9249 17.9257 20.8085C18.0375 20.6921 18.1 20.5369 18.1 20.3755C18.1 20.2141 18.0375 20.0589 17.9257 19.9425C17.8139 19.8261 17.6613 19.7575 17.5 19.751ZM17.5 13.874C16.452 13.874 15.636 14.691 15.646 15.828C15.6473 15.9606 15.7013 16.0873 15.796 16.1801C15.8907 16.2729 16.0184 16.3243 16.151 16.323C16.2836 16.3217 16.4103 16.2677 16.5031 16.173C16.5959 16.0783 16.6473 15.9506 16.646 15.818C16.641 15.24 17.006 14.874 17.5 14.874C17.972 14.874 18.353 15.266 18.353 15.824C18.353 16.016 18.298 16.166 18.129 16.385L18.035 16.501L17.936 16.614L17.671 16.904L17.535 17.061C17.151 17.518 17 17.854 17 18.371C17 18.5036 17.0527 18.6308 17.1464 18.7246C17.2402 18.8183 17.3674 18.871 17.5 18.871C17.6326 18.871 17.7598 18.8183 17.8536 18.7246C17.9473 18.6308 18 18.5036 18 18.371C18 18.168 18.058 18.013 18.239 17.781L18.324 17.677L18.424 17.562L18.69 17.272L18.825 17.116C19.203 16.666 19.353 16.333 19.353 15.824C19.353 14.72 18.531 13.874 17.5 13.874Z" fill="#121212"/>
</svg>
