<svg width="16" height="16" viewBox="0 0 16 16" fill="none" xmlns="http://www.w3.org/2000/svg">
<path d="M7.99998 1.33325C11.682 1.33325 14.6666 4.31792 14.6666 7.99992C14.6666 11.6819 11.682 14.6666 7.99998 14.6666C4.31798 14.6666 1.33331 11.6819 1.33331 7.99992C1.33331 4.31792 4.31798 1.33325 7.99998 1.33325ZM10.1466 5.97992L7.16665 8.95992L5.85331 7.64659C5.75853 7.55827 5.63317 7.51018 5.50363 7.51247C5.3741 7.51475 5.25051 7.56723 5.1589 7.65884C5.06729 7.75045 5.01482 7.87404 5.01253 8.00357C5.01024 8.1331 5.05833 8.25847 5.14665 8.35325L6.81331 10.0199C6.90706 10.1136 7.03415 10.1661 7.16665 10.1661C7.29915 10.1661 7.42623 10.1136 7.51998 10.0199L10.8533 6.68659C10.9024 6.64081 10.9418 6.58561 10.9692 6.52428C10.9965 6.46294 11.0112 6.39674 11.0124 6.3296C11.0136 6.26247 11.0012 6.19578 10.9761 6.13352C10.9509 6.07126 10.9135 6.01471 10.866 5.96723C10.8185 5.91975 10.762 5.88232 10.6997 5.85717C10.6375 5.83202 10.5708 5.81967 10.5036 5.82086C10.4365 5.82204 10.3703 5.83674 10.309 5.86406C10.2476 5.89139 10.1924 5.93079 10.1466 5.97992Z" fill="#1ABB65"/>
</svg>
