<svg width="16" height="16" viewBox="0 0 16 16" fill="none" xmlns="http://www.w3.org/2000/svg">
<path d="M7.99998 1.33325C11.682 1.33325 14.6666 4.31792 14.6666 7.99992C14.6666 11.6819 11.682 14.6666 7.99998 14.6666C4.31798 14.6666 1.33331 11.6819 1.33331 7.99992C1.33331 4.31792 4.31798 1.33325 7.99998 1.33325ZM7.99998 2.33325C6.49709 2.33325 5.05575 2.93027 3.99304 3.99298C2.93034 5.05569 2.33331 6.49703 2.33331 7.99992C2.33331 9.50281 2.93034 10.9442 3.99304 12.0069C5.05575 13.0696 6.49709 13.6666 7.99998 13.6666C9.50287 13.6666 10.9442 13.0696 12.0069 12.0069C13.0696 10.9442 13.6666 9.50281 13.6666 7.99992C13.6666 6.49703 13.0696 5.05569 12.0069 3.99298C10.9442 2.93027 9.50287 2.33325 7.99998 2.33325ZM7.16665 8.95992L10.1466 5.97992C10.236 5.89128 10.3555 5.83959 10.4812 5.83516C10.607 5.83073 10.7298 5.87389 10.8251 5.95603C10.9205 6.03816 10.9814 6.15323 10.9956 6.27827C11.0098 6.4033 10.9764 6.52911 10.902 6.63059L10.8533 6.68659L7.51998 10.0199C7.43532 10.1046 7.32308 10.1561 7.20368 10.165C7.08427 10.1739 6.96563 10.1397 6.86931 10.0686L6.81331 10.0199L5.14665 8.35325C5.05801 8.26392 5.00632 8.14445 5.00189 8.01868C4.99746 7.89291 5.04062 7.7701 5.12275 7.67475C5.20489 7.5794 5.31996 7.51854 5.44499 7.50429C5.57003 7.49005 5.69584 7.52348 5.79731 7.59792L5.85331 7.64659L7.16665 8.95992Z" fill="#A8AEBD"/>
</svg>
