<svg width="16" height="16" viewBox="0 0 16 16" fill="none" xmlns="http://www.w3.org/2000/svg">
<path d="M8 1.33325C11.682 1.33325 14.6667 4.31792 14.6667 7.99992C14.6667 11.6819 11.682 14.6666 8 14.6666C4.318 14.6666 1.33334 11.6819 1.33334 7.99992C1.33334 4.31792 4.318 1.33325 8 1.33325ZM8 2.33325C6.49711 2.33325 5.05577 2.93027 3.99306 3.99298C2.93036 5.05569 2.33334 6.49703 2.33334 7.99992C2.33334 9.50281 2.93036 10.9442 3.99306 12.0069C5.05577 13.0696 6.49711 13.6666 8 13.6666C9.5029 13.6666 10.9442 13.0696 12.0069 12.0069C13.0696 10.9442 13.6667 9.50281 13.6667 7.99992C13.6667 6.49703 13.0696 5.05569 12.0069 3.99298C10.9442 2.93027 9.5029 2.33325 8 2.33325ZM7.16667 8.95992L10.1467 5.97992C10.236 5.89128 10.3555 5.83959 10.4812 5.83516C10.607 5.83073 10.7298 5.87389 10.8252 5.95603C10.9205 6.03816 10.9814 6.15323 10.9956 6.27827C11.0099 6.4033 10.9764 6.52911 10.902 6.63059L10.8533 6.68659L7.52 10.0199C7.43534 10.1046 7.32311 10.1561 7.2037 10.165C7.0843 10.1739 6.96565 10.1397 6.86934 10.0686L6.81334 10.0199L5.14667 8.35325C5.05803 8.26392 5.00634 8.14445 5.00191 8.01868C4.99748 7.89291 5.04064 7.7701 5.12278 7.67475C5.20491 7.5794 5.31998 7.51854 5.44502 7.50429C5.57005 7.49005 5.69586 7.52348 5.79734 7.59792L5.85334 7.64659L7.16667 8.95992Z" fill="#C0C4CD"/>
</svg>
