<svg width="14" height="14" viewBox="0 0 14 14" fill="none" xmlns="http://www.w3.org/2000/svg">
<path d="M2.04175 7.00008C2.04175 5.68505 2.56414 4.42388 3.49401 3.49401C4.42388 2.56414 5.68505 2.04175 7.00008 2.04175C8.31511 2.04175 9.57628 2.56414 10.5062 3.49401C11.436 4.42388 11.9584 5.68505 11.9584 7.00008C11.9584 8.31511 11.436 9.57628 10.5062 10.5062C9.57628 11.436 8.31511 11.9584 7.00008 11.9584C5.68505 11.9584 4.42388 11.436 3.49401 10.5062C2.56414 9.57628 2.04175 8.31511 2.04175 7.00008ZM7.00008 1.16675C3.77833 1.16675 1.16675 3.77833 1.16675 7.00008C1.16675 10.2218 3.77833 12.8334 7.00008 12.8334C10.2218 12.8334 12.8334 10.2218 12.8334 7.00008C12.8334 3.77833 10.2218 1.16675 7.00008 1.16675ZM6.996 3.87808C6.98089 3.76827 6.92466 3.66829 6.83867 3.59833C6.75269 3.52838 6.64335 3.49368 6.53276 3.50123C6.42217 3.50879 6.31857 3.55804 6.2429 3.63904C6.16722 3.72003 6.12512 3.82673 6.12508 3.93758V7.43758L6.12916 7.49708C6.14354 7.60182 6.19536 7.69781 6.27504 7.7673C6.35472 7.83679 6.45686 7.87508 6.56258 7.87508H8.89591L8.95541 7.871C9.06523 7.85589 9.16521 7.79966 9.23516 7.71367C9.30511 7.62769 9.33982 7.51835 9.33226 7.40776C9.32471 7.29717 9.27546 7.19357 9.19446 7.1179C9.11346 7.04222 9.00676 7.00012 8.89591 7.00008H7.00008V3.93758L6.996 3.87808Z" fill="#121212"/>
</svg>
