<svg width="24" height="24" viewBox="0 0 24 24" fill="none" xmlns="http://www.w3.org/2000/svg">
<path d="M3.5 12C3.5 9.74566 4.39553 7.58365 5.98959 5.98959C7.58365 4.39553 9.74566 3.5 12 3.5C14.2543 3.5 16.4163 4.39553 18.0104 5.98959C19.6045 7.58365 20.5 9.74566 20.5 12C20.5 14.2543 19.6045 16.4163 18.0104 18.0104C16.4163 19.6045 14.2543 20.5 12 20.5C9.74566 20.5 7.58365 19.6045 5.98959 18.0104C4.39553 16.4163 3.5 14.2543 3.5 12ZM12 2C6.477 2 2 6.477 2 12C2 17.523 6.477 22 12 22C17.523 22 22 17.523 22 12C22 6.477 17.523 2 12 2ZM11.993 6.648C11.9671 6.45975 11.8707 6.28835 11.7233 6.16843C11.5759 6.04852 11.3885 5.98902 11.1989 6.00197C11.0093 6.01493 10.8317 6.09936 10.702 6.23821C10.5722 6.37706 10.5001 6.55998 10.5 6.75V12.75L10.507 12.852C10.5316 13.0316 10.6205 13.1961 10.7571 13.3152C10.8937 13.4344 11.0688 13.5 11.25 13.5H15.25L15.352 13.493C15.5402 13.4671 15.7117 13.3707 15.8316 13.2233C15.9515 13.0759 16.011 12.8885 15.998 12.6989C15.9851 12.5093 15.9006 12.3317 15.7618 12.202C15.6229 12.0722 15.44 12.0001 15.25 12H12V6.75L11.993 6.648Z" fill="#121212"/>
</svg>
