<svg width="25" height="24" viewBox="0 0 25 24" fill="none" xmlns="http://www.w3.org/2000/svg">
<path d="M9.86298 8.7999C10.203 8.5029 10.607 8.2739 11.053 8.1389L11.3 8.0739L11.46 8.0439L11.636 8.0189L11.816 8.0039L12 7.9989H19.5C20.33 7.99883 21.1285 8.3163 21.7319 8.88621C22.3353 9.45611 22.6977 10.2353 22.745 11.0639L22.75 11.2489V18.7489C22.75 19.579 22.4324 20.3777 21.8623 20.9811C21.2922 21.5845 20.5128 21.9469 19.684 21.9939L19.5 21.9989H12C11.1698 21.999 10.3712 21.6813 9.76775 21.1112C9.16435 20.5411 8.80198 19.7617 8.75498 18.9329L8.74998 18.7499V11.2499L8.76698 10.9109L8.82898 10.5339L8.88798 10.3109L8.96798 10.0749L9.05498 9.8729L9.13698 9.7109L9.23098 9.5479L9.37698 9.3309L9.47098 9.2079L9.60598 9.0519L9.71398 8.9399L9.86298 8.7999ZM16.332 4.2329L16.384 4.4099L17.078 6.9979H12C11.4418 6.9979 10.889 7.10786 10.3733 7.32151C9.85765 7.53515 9.38909 7.84829 8.99443 8.24305C8.59976 8.6378 8.28673 9.10644 8.07321 9.62219C7.85968 10.1379 7.74985 10.6907 7.74998 11.2489V17.6829C7.09973 17.6444 6.47604 17.4114 5.95982 17.0141C5.44361 16.6169 5.05868 16.0736 4.85498 15.4549L4.80298 15.2789L2.86198 8.0339C2.64699 7.23227 2.74682 6.37877 3.14101 5.6484C3.5352 4.91803 4.19388 4.36614 4.98198 4.1059L5.15998 4.0539L12.404 2.1129C13.2056 1.8979 14.0591 1.99773 14.7895 2.39193C15.5199 2.78612 16.0717 3.4448 16.332 4.2329Z" fill="#0B9A4E"/>
</svg>
