<svg width="24" height="24" viewBox="0 0 24 24" fill="none" xmlns="http://www.w3.org/2000/svg">
<path d="M11.0659 8.00392L11.2499 7.99892H18.7499C19.5799 7.99885 20.3784 8.31632 20.9818 8.88623C21.5852 9.45614 21.9477 10.2353 21.9949 11.0639L21.9999 11.2489V18.7489C22 19.5791 21.6824 20.3778 21.1122 20.9812C20.5421 21.5846 19.7627 21.9469 18.9339 21.9939L18.7499 21.9989H11.2499C10.4198 21.999 9.62109 21.6814 9.01769 21.1112C8.41429 20.5411 8.05192 19.7617 8.00492 18.9329L7.99992 18.7499V11.2499C7.99987 10.4198 8.31748 9.62109 8.88759 9.01769C9.45771 8.41429 10.2371 8.05192 11.0659 8.00492M18.7499 9.49992H11.2499C10.8107 9.49994 10.3876 9.66509 10.0645 9.9626C9.74146 10.2601 9.54206 10.6682 9.50592 11.1059L9.49992 11.2499V18.7499C9.49996 19.1893 9.66525 19.6125 9.96297 19.9356C10.2607 20.2587 10.669 20.458 11.1069 20.4939L11.2499 20.4999H18.7499C19.1893 20.4999 19.6125 20.3346 19.9356 20.0369C20.2587 19.7392 20.458 19.3308 20.4939 18.8929L20.4999 18.7499V11.2499C20.4999 10.7858 20.3155 10.3407 19.9874 10.0125C19.6592 9.68429 19.2141 9.49992 18.7499 9.49992ZM15.5819 4.23392L15.6339 4.41092L16.3269 6.99892H14.7739L14.1859 4.79892C14.1265 4.57681 14.0239 4.36859 13.884 4.18615C13.7441 4.00371 13.5696 3.85063 13.3704 3.73566C13.1713 3.62069 12.9515 3.54608 12.7236 3.5161C12.4956 3.48612 12.264 3.50135 12.0419 3.56092L4.79792 5.50192C4.37505 5.61532 4.01004 5.8831 3.77493 6.25243C3.53982 6.62176 3.45169 7.0658 3.52792 7.49692L3.55992 7.64492L5.50192 14.8889C5.59301 15.2293 5.78474 15.5343 6.05202 15.7639C6.3193 15.9936 6.64968 16.1372 6.99992 16.1759V17.6819C6.34967 17.6434 5.72598 17.4104 5.20976 17.0132C4.69355 16.6159 4.30862 16.0726 4.10492 15.4539L4.05292 15.2779L2.11192 8.03292C1.89692 7.2313 1.99676 6.37779 2.39095 5.64742C2.78514 4.91705 3.44382 4.36516 4.23192 4.10492L4.40992 4.05292L11.6539 2.11192C12.4555 1.89692 13.3091 1.99676 14.0394 2.39095C14.7698 2.78514 15.3217 3.44382 15.5819 4.23192" fill="#121212"/>
</svg>
