<svg width="24" height="24" viewBox="0 0 24 24" fill="none" xmlns="http://www.w3.org/2000/svg">
<path d="M9.11292 8.7999C9.45292 8.5029 9.85692 8.2739 10.3029 8.1389L10.5499 8.0739L10.7099 8.0439L10.8859 8.0189L11.0659 8.0039L11.2499 7.9989H18.7499C19.5799 7.99883 20.3784 8.3163 20.9818 8.88621C21.5852 9.45611 21.9477 10.2353 21.9949 11.0639L21.9999 11.2489V18.7489C22 19.579 21.6824 20.3777 21.1122 20.9811C20.5421 21.5845 19.7627 21.9469 18.9339 21.9939L18.7499 21.9989H11.2499C10.4198 21.999 9.62109 21.6813 9.01769 21.1112C8.41429 20.5411 8.05192 19.7617 8.00492 18.9329L7.99992 18.7499V11.2499L8.01692 10.9109L8.07892 10.5339L8.13792 10.3109L8.21792 10.0749L8.30492 9.8729L8.38692 9.7109L8.48092 9.5479L8.62692 9.3309L8.72092 9.2079L8.85592 9.0519L8.96392 8.9399L9.11292 8.7999ZM15.5819 4.2329L15.6339 4.4099L16.3279 6.9979H11.2499C10.6917 6.9979 10.139 7.10786 9.62329 7.32151C9.10759 7.53515 8.63903 7.84829 8.24436 8.24305C7.8497 8.6378 7.53667 9.10644 7.32315 9.62219C7.10962 10.1379 6.99979 10.6907 6.99992 11.2489V17.6829C6.34967 17.6444 5.72598 17.4114 5.20976 17.0141C4.69355 16.6169 4.30862 16.0736 4.10492 15.4549L4.05292 15.2789L2.11192 8.0339C1.89692 7.23227 1.99676 6.37877 2.39095 5.6484C2.78514 4.91803 3.44382 4.36614 4.23192 4.1059L4.40992 4.0539L11.6539 2.1129C12.4555 1.8979 13.3091 1.99773 14.0394 2.39193C14.7698 2.78612 15.3217 3.4448 15.5819 4.2329Z" fill="#121212"/>
</svg>
