<svg width="200" height="200" viewBox="0 0 200 200" fill="none" xmlns="http://www.w3.org/2000/svg">
<rect width="200" height="200" fill="url(#paint0_linear_5757_89062)"/>
<path d="M64.2901 91.1372C66.989 91.1372 69.0036 91.8628 70.2201 92.6264C72.0067 93.7336 72.9571 95.7188 71.9689 97.4368C71.2467 98.6968 70.1063 98.9647 68.8899 98.812C68.2056 98.7356 67.6352 98.4294 67.065 98.1621C66.305 97.8186 65.7347 97.6666 64.5566 97.6666C62.884 97.6666 60.8309 98.4301 60.8309 101.675V104.463C60.831 107.708 62.8081 108.471 64.5566 108.471C65.8109 108.471 66.609 108.318 67.5973 107.86C68.1294 107.593 68.7376 107.212 69.4597 107.097C70.5621 106.906 71.7029 107.288 72.3491 108.357C73.4135 110.113 72.4629 112.213 70.6763 113.32C69.2699 114.199 67.1032 115 64.5566 115C59.0447 115 53 112.633 53 104.424V101.713C53.0001 93.6954 59.0443 91.1372 64.2901 91.1372Z" fill="url(#paint1_linear_5757_89062)"/>
<path fill-rule="evenodd" clip-rule="evenodd" d="M86.4836 91.1372C91.5393 91.1373 97.5071 93.5046 97.5072 101.713V104.424C97.5072 112.633 91.5393 115 86.4836 115C81.4278 115 75.4592 112.633 75.4592 104.424V101.713C75.4593 93.5045 81.3138 91.1372 86.4836 91.1372ZM86.4836 97.5894C84.8491 97.5894 83.1005 98.6588 83.1004 101.369V104.768C83.1004 107.479 84.849 108.548 86.4836 108.548C88.1181 108.548 89.8668 107.478 89.8668 104.768V101.369C89.8667 98.659 88.118 97.5896 86.4836 97.5894Z" fill="url(#paint2_linear_5757_89062)"/>
<path d="M111.844 91.1372C114.543 91.1372 116.558 91.8628 117.774 92.6264C119.561 93.7335 120.511 95.7188 119.523 97.4368C118.801 98.6967 117.661 98.9646 116.444 98.812C115.76 98.7356 115.19 98.4294 114.619 98.1621C113.859 97.8186 113.289 97.6666 112.11 97.6666C110.438 97.6667 108.385 98.4303 108.385 101.675V104.463C108.385 107.708 110.362 108.471 112.11 108.471C113.365 108.471 114.163 108.318 115.152 107.86C115.684 107.593 116.292 107.212 117.014 107.097C118.116 106.906 119.257 107.288 119.903 108.357C120.968 110.113 120.017 112.213 118.231 113.32C116.824 114.199 114.657 115 112.11 115C106.598 115 100.554 112.633 100.554 104.424V101.713C100.554 93.6954 106.599 91.1372 111.844 91.1372Z" fill="url(#paint3_linear_5757_89062)"/>
<path d="M127.423 82.738C129.4 82.738 131.186 84.0357 131.186 86.5557V97.8569L137.915 89.9541C139.169 88.465 141.602 88.121 143.199 89.3428C144.795 90.5647 144.947 93.1993 143.617 94.6119L138.409 100.11L147 114.39H138.409L133.315 105.455L131.186 107.67V114.39H123.583V86.5557C123.583 84.0359 125.446 82.7381 127.423 82.738Z" fill="url(#paint4_linear_5757_89062)"/>
<path d="M92.7153 83.9687C92.879 84.4722 93.5208 85.2839 94.4101 86.0609C95.1613 86.7171 95.9127 87.1939 96.441 87.3827C96.5409 87.5485 96.5234 87.7672 96.3846 87.9152L96.0903 88.2294C95.0422 89.3466 93.29 89.3994 92.1765 88.3476C91.0629 87.2957 91.0099 85.5373 92.0579 84.4199L92.3523 84.1057C92.4493 84.0022 92.5844 83.9563 92.7153 83.9687Z" fill="url(#paint5_linear_5757_89062)"/>
<path d="M96.6454 75.0731C96.6535 75.069 97.2145 74.7891 97.7312 75.3528C98.7798 76.4974 98.3959 78.5626 98.3959 78.5626C98.3959 78.5626 99.8058 77.9668 100.923 79.0368C102.04 80.1067 101.705 81.5942 101.705 81.5942C101.705 81.5942 103.549 81.1253 104.618 81.8732C105.264 82.3256 105.234 82.9171 105.233 82.9275L97.6625 86.7887C97.3399 87.0564 96.1655 86.4686 94.9906 85.4423C93.7829 84.3871 93.0327 83.268 93.3146 82.9431L96.6454 75.0731Z" fill="url(#paint6_linear_5757_89062)"/>
<defs>
<linearGradient id="paint0_linear_5757_89062" x1="100" y1="0" x2="100" y2="200" gradientUnits="userSpaceOnUse">
<stop stop-color="#FCFCFF"/>
<stop offset="1" stop-color="#E7F6DE"/>
</linearGradient>
<linearGradient id="paint1_linear_5757_89062" x1="67.5474" y1="75.15" x2="80.2886" y2="130.508" gradientUnits="userSpaceOnUse">
<stop stop-color="#87C95E"/>
<stop offset="1" stop-color="#1ABB65"/>
</linearGradient>
<linearGradient id="paint2_linear_5757_89062" x1="67.5474" y1="75.15" x2="80.2886" y2="130.508" gradientUnits="userSpaceOnUse">
<stop stop-color="#87C95E"/>
<stop offset="1" stop-color="#1ABB65"/>
</linearGradient>
<linearGradient id="paint3_linear_5757_89062" x1="67.5474" y1="75.15" x2="80.2886" y2="130.508" gradientUnits="userSpaceOnUse">
<stop stop-color="#87C95E"/>
<stop offset="1" stop-color="#1ABB65"/>
</linearGradient>
<linearGradient id="paint4_linear_5757_89062" x1="67.5474" y1="75.15" x2="80.2886" y2="130.508" gradientUnits="userSpaceOnUse">
<stop stop-color="#87C95E"/>
<stop offset="1" stop-color="#1ABB65"/>
</linearGradient>
<linearGradient id="paint5_linear_5757_89062" x1="67.5474" y1="75.15" x2="80.2886" y2="130.508" gradientUnits="userSpaceOnUse">
<stop stop-color="#87C95E"/>
<stop offset="1" stop-color="#1ABB65"/>
</linearGradient>
<linearGradient id="paint6_linear_5757_89062" x1="67.5474" y1="75.15" x2="80.2886" y2="130.508" gradientUnits="userSpaceOnUse">
<stop stop-color="#87C95E"/>
<stop offset="1" stop-color="#1ABB65"/>
</linearGradient>
</defs>
</svg>
