<svg width="16" height="16" viewBox="0 0 16 16" fill="none" xmlns="http://www.w3.org/2000/svg">
<path d="M2.93136 3.03604L2.98002 2.98004C3.06468 2.89536 3.17692 2.84388 3.29632 2.83495C3.41573 2.82602 3.53438 2.86023 3.63069 2.93138L3.68669 2.98004L8.00002 7.29271L12.3134 2.97938C12.3595 2.93164 12.4147 2.89358 12.4757 2.8674C12.5367 2.84123 12.6023 2.82747 12.6687 2.82692C12.7351 2.82638 12.801 2.83906 12.8624 2.86423C12.9238 2.8894 12.9796 2.92655 13.0266 2.97352C13.0735 3.02049 13.1106 3.07633 13.1357 3.13779C13.1608 3.19925 13.1734 3.26509 13.1728 3.33148C13.1722 3.39787 13.1584 3.46348 13.1321 3.52446C13.1059 3.58545 13.0678 3.64061 13.02 3.68671L8.70736 8.00004L13.0207 12.3134C13.1053 12.3981 13.1566 12.5104 13.1654 12.6298C13.1742 12.7492 13.1399 12.8678 13.0687 12.964L13.02 13.02C12.9354 13.1047 12.8231 13.1562 12.7037 13.1651C12.5843 13.1741 12.4657 13.1399 12.3694 13.0687L12.3134 13.02L8.00002 8.70738L3.68669 13.0207C3.59235 13.1117 3.46602 13.1621 3.33492 13.1609C3.20382 13.1597 3.07844 13.107 2.98578 13.0143C2.89312 12.9215 2.8406 12.7961 2.83952 12.665C2.83844 12.5339 2.8889 12.4076 2.98002 12.3134L7.29269 8.00004L2.97936 3.68671C2.89478 3.60197 2.84342 3.48969 2.83461 3.37028C2.8258 3.25088 2.86013 3.13228 2.93136 3.03604Z" fill="#1ABB65"/>
</svg>
