<svg width="24" height="24" viewBox="0 0 24 24" fill="none" xmlns="http://www.w3.org/2000/svg">
<path d="M4.39716 4.5559L4.47016 4.4719C4.59715 4.34488 4.7655 4.26765 4.94461 4.25425C5.12372 4.24086 5.30169 4.29218 5.44616 4.3989L5.53016 4.4719L12.0002 10.9409L18.4702 4.4709C18.5394 4.3993 18.6222 4.3422 18.7137 4.30294C18.8052 4.26367 18.9036 4.24303 19.0032 4.24221C19.1028 4.24139 19.2015 4.26042 19.2937 4.29817C19.3859 4.33593 19.4696 4.39166 19.54 4.46211C19.6103 4.53256 19.666 4.61632 19.7037 4.70851C19.7413 4.8007 19.7603 4.89947 19.7593 4.99906C19.7584 5.09864 19.7377 5.19704 19.6983 5.28853C19.659 5.38001 19.6018 5.46274 19.5302 5.5319L13.0612 12.0019L19.5312 18.4719C19.658 18.599 19.7351 18.7674 19.7483 18.9465C19.7615 19.1256 19.71 19.3035 19.6032 19.4479L19.5302 19.5319C19.4032 19.6589 19.2348 19.7361 19.0557 19.7495C18.8766 19.7629 18.6986 19.7116 18.5542 19.6049L18.4702 19.5319L12.0002 13.0629L5.53016 19.5329C5.38864 19.6694 5.19915 19.745 5.00251 19.7432C4.80586 19.7414 4.61779 19.6624 4.47879 19.5233C4.3398 19.3841 4.26102 19.196 4.2594 18.9993C4.25778 18.8027 4.33347 18.6133 4.47016 18.4719L10.9392 12.0019L4.46916 5.5319C4.34229 5.40478 4.26525 5.23636 4.25203 5.05726C4.23882 4.87815 4.29032 4.70025 4.39716 4.5559Z" fill="#FCFCFF"/>
</svg>
