<svg width="24" height="24" viewBox="0 0 24 24" fill="none" xmlns="http://www.w3.org/2000/svg">
<path d="M18.25 20.5018C18.4489 20.5018 18.6397 20.5808 18.7803 20.7215C18.921 20.8621 19 21.0529 19 21.2518C19 21.4507 18.921 21.6415 18.7803 21.7821C18.6397 21.9228 18.4489 22.0018 18.25 22.0018L5.25 22.0068C5.05109 22.0068 4.86032 21.9278 4.71967 21.7871C4.57902 21.6465 4.5 21.4557 4.5 21.2568C4.5 21.0579 4.57902 20.8671 4.71967 20.7265C4.86032 20.5858 5.05109 20.5068 5.25 20.5068L18.25 20.5018ZM11.648 2.01581L11.75 2.00881C11.9312 2.00882 12.1063 2.07446 12.2429 2.19358C12.3795 2.3127 12.4684 2.47726 12.493 2.65681L12.5 2.75881L12.499 16.4438L16.221 12.7238C16.348 12.5968 16.5163 12.5196 16.6955 12.5062C16.8746 12.4928 17.0525 12.5441 17.197 12.6508L17.282 12.7238C17.4089 12.8509 17.4859 13.0193 17.4991 13.1985C17.5123 13.3776 17.4608 13.5555 17.354 13.6998L17.281 13.7838L12.284 18.7808C12.157 18.9078 11.9887 18.9851 11.8095 18.9985C11.6304 19.0119 11.4525 18.9605 11.308 18.8538L11.223 18.7808L6.22 13.7848C6.08546 13.6512 6.00655 13.4715 5.99915 13.282C5.99176 13.0925 6.05642 12.9072 6.18013 12.7635C6.30384 12.6198 6.47741 12.5282 6.6659 12.5073C6.85439 12.4864 7.0438 12.5377 7.196 12.6508L7.28 12.7228L10.999 16.4368L11 2.75781C11 2.57657 11.0656 2.40147 11.1848 2.26488C11.3039 2.12829 11.4684 2.04046 11.648 2.01581Z" fill="#FCFCFF"/>
</svg>
