<svg width="24" height="24" viewBox="0 0 24 24" fill="none" xmlns="http://www.w3.org/2000/svg">
<path d="M12 1.99805C17.524 1.99805 22.002 6.47605 22.002 12C22.002 17.523 17.524 22 12 22C6.47605 22 1.99805 17.523 1.99805 12C1.99805 6.47605 6.47605 1.99805 12 1.99805ZM12 3.49805C10.8759 3.48585 9.76041 3.69675 8.71827 4.11852C7.67612 4.54029 6.72798 5.16457 5.92871 5.95521C5.12944 6.74586 4.49492 7.68718 4.06187 8.72469C3.62882 9.7622 3.40584 10.8753 3.40584 11.9995C3.40584 13.1238 3.62882 14.2369 4.06187 15.2744C4.49492 16.3119 5.12944 17.2532 5.92871 18.0439C6.72798 18.8345 7.67612 19.4588 8.71827 19.8806C9.76041 20.3023 10.8759 20.5132 12 20.501C14.2388 20.4768 16.3776 19.5704 17.9522 17.9787C19.5267 16.387 20.4098 14.2384 20.4098 11.9995C20.4098 9.76065 19.5267 7.61211 17.9522 6.02041C16.3776 4.42871 14.2388 3.52233 12 3.49805ZM8.46205 14.783C8.88335 15.3184 9.42069 15.7511 10.0336 16.0485C10.6464 16.3459 11.3188 16.5003 12 16.5C12.6806 16.501 13.3525 16.3471 13.965 16.0502C14.5774 15.7533 15.1143 15.321 15.535 14.786C15.5961 14.7088 15.6718 14.6443 15.7578 14.5962C15.8438 14.5482 15.9384 14.5176 16.0362 14.5061C16.134 14.4946 16.2332 14.5026 16.3279 14.5294C16.4227 14.5562 16.5113 14.6015 16.5885 14.6625C16.6658 14.7236 16.7303 14.7993 16.7784 14.8853C16.8264 14.9713 16.857 15.0659 16.8685 15.1637C16.88 15.2615 16.872 15.3607 16.8452 15.4554C16.8184 15.5502 16.7731 15.6388 16.712 15.716C16.1508 16.4287 15.4351 17.0046 14.6188 17.4002C13.8026 17.7959 12.9071 18.001 12 18C11.0916 18.001 10.1949 17.7953 9.37766 17.3986C8.56045 17.0019 7.84418 16.4244 7.28305 15.71C7.22211 15.6326 7.17702 15.544 7.15035 15.4491C7.12368 15.3543 7.11596 15.2551 7.12761 15.1573C7.13926 15.0595 7.17007 14.9649 7.21827 14.879C7.26648 14.7931 7.33113 14.7175 7.40855 14.6565C7.48596 14.5956 7.57462 14.5505 7.66946 14.5239C7.7643 14.4972 7.86346 14.4895 7.96129 14.5011C8.05911 14.5128 8.15369 14.5436 8.23961 14.5918C8.32553 14.64 8.40111 14.7046 8.46205 14.782M9.00005 8.75005C9.16711 8.74532 9.33342 8.77414 9.48915 8.83481C9.64488 8.89548 9.78686 8.98676 9.90669 9.10325C10.0265 9.21975 10.1218 9.35909 10.1868 9.51304C10.2519 9.66699 10.2854 9.83242 10.2854 9.99955C10.2854 10.1667 10.2519 10.3321 10.1868 10.4861C10.1218 10.64 10.0265 10.7793 9.90669 10.8958C9.78686 11.0123 9.64488 11.1036 9.48915 11.1643C9.33342 11.225 9.16711 11.2538 9.00005 11.249C8.67478 11.2398 8.36592 11.1042 8.1391 10.8708C7.91229 10.6375 7.7854 10.3249 7.7854 9.99955C7.7854 9.67415 7.91229 9.36157 8.1391 9.12825C8.36592 8.89493 8.67478 8.75925 9.00005 8.75005ZM15 8.75005C15.1671 8.74532 15.3334 8.77414 15.4891 8.83481C15.6449 8.89548 15.7869 8.98676 15.9067 9.10325C16.0265 9.21975 16.1218 9.35909 16.1868 9.51304C16.2519 9.66699 16.2854 9.83242 16.2854 9.99955C16.2854 10.1667 16.2519 10.3321 16.1868 10.4861C16.1218 10.64 16.0265 10.7793 15.9067 10.8958C15.7869 11.0123 15.6449 11.1036 15.4891 11.1643C15.3334 11.225 15.1671 11.2538 15 11.249C14.6748 11.2398 14.3659 11.1042 14.1391 10.8708C13.9123 10.6375 13.7854 10.3249 13.7854 9.99955C13.7854 9.67415 13.9123 9.36157 14.1391 9.12825C14.3659 8.89493 14.6748 8.75925 15 8.75005Z" fill="#121212"/>
</svg>
