<svg width="24" height="24" viewBox="0 0 24 24" fill="none" xmlns="http://www.w3.org/2000/svg">
<path d="M12 2.00391C17.523 2.00391 22 6.48091 22 12.0039C22 17.5269 17.523 22.0039 12 22.0039C6.477 22.0039 2 17.5269 2 12.0039C2 6.48091 6.477 2.00391 12 2.00391ZM12 3.50391C10.8838 3.50391 9.77846 3.72377 8.74719 4.15093C7.71592 4.5781 6.77889 5.2042 5.98959 5.9935C5.20029 6.7828 4.57419 7.71983 4.14702 8.7511C3.71986 9.78237 3.5 10.8877 3.5 12.0039C3.5 13.1201 3.71986 14.2254 4.14702 15.2567C4.57419 16.288 5.20029 17.225 5.98959 18.0143C6.77889 18.8036 7.71592 19.4297 8.74719 19.8569C9.77846 20.284 10.8838 20.5039 12 20.5039C14.2543 20.5039 16.4163 19.6084 18.0104 18.0143C19.6045 16.4203 20.5 14.2582 20.5 12.0039C20.5 9.74957 19.6045 7.58756 18.0104 5.9935C16.4163 4.39944 14.2543 3.50391 12 3.50391ZM12 12.9989C12.2955 12.9989 12.5881 13.0571 12.861 13.1702C13.134 13.2833 13.3821 13.449 13.591 13.6579C13.7999 13.8668 13.9657 14.1149 14.0787 14.3879C14.1918 14.6609 14.25 14.9534 14.25 15.2489C14.25 15.5444 14.1918 15.837 14.0787 16.1099C13.9657 16.3829 13.7999 16.631 13.591 16.8399C13.3821 17.0488 13.134 17.2146 12.861 17.3276C12.5881 17.4407 12.2955 17.4989 12 17.4989C11.4033 17.4989 10.831 17.2619 10.409 16.8399C9.98705 16.4179 9.75 15.8456 9.75 15.2489C9.75 14.6522 9.98705 14.0799 10.409 13.6579C10.831 13.236 11.4033 12.9989 12 12.9989ZM9 8.74991C9.16706 8.74518 9.33337 8.774 9.4891 8.83467C9.64483 8.89534 9.78681 8.98662 9.90665 9.10311C10.0265 9.21961 10.1217 9.35895 10.1868 9.5129C10.2518 9.66685 10.2854 9.83228 10.2854 9.99941C10.2854 10.1665 10.2518 10.332 10.1868 10.4859C10.1217 10.6399 10.0265 10.7792 9.90665 10.8957C9.78681 11.0122 9.64483 11.1035 9.4891 11.1641C9.33337 11.2248 9.16706 11.2536 9 11.2489C8.67473 11.2397 8.36587 11.104 8.13906 10.8707C7.91224 10.6374 7.78535 10.3248 7.78535 9.99941C7.78535 9.67401 7.91224 9.36143 8.13906 9.12811C8.36587 8.89479 8.67473 8.75911 9 8.74991ZM15 8.74991C15.1671 8.74518 15.3334 8.774 15.4891 8.83467C15.6448 8.89534 15.7868 8.98662 15.9066 9.10311C16.0265 9.21961 16.1217 9.35895 16.1868 9.5129C16.2518 9.66685 16.2854 9.83228 16.2854 9.99941C16.2854 10.1665 16.2518 10.332 16.1868 10.4859C16.1217 10.6399 16.0265 10.7792 15.9066 10.8957C15.7868 11.0122 15.6448 11.1035 15.4891 11.1641C15.3334 11.2248 15.1671 11.2536 15 11.2489C14.6747 11.2397 14.3659 11.104 14.1391 10.8707C13.9122 10.6374 13.7854 10.3248 13.7854 9.99941C13.7854 9.67401 13.9122 9.36143 14.1391 9.12811C14.3659 8.89479 14.6747 8.75911 15 8.74991Z" fill="#F62D2D"/>
</svg>
