<svg width="24" height="24" viewBox="0 0 24 24" fill="none" xmlns="http://www.w3.org/2000/svg">
<path d="M12 1.99805C17.524 1.99805 22.002 6.47605 22.002 12C22.002 17.523 17.524 22 12 22C6.476 22 2 17.523 2 12C1.999 6.47605 6.476 1.99805 12 1.99805ZM12 3.49805C10.8758 3.48585 9.76036 3.69675 8.71822 4.11852C7.67607 4.54029 6.72793 5.16457 5.92866 5.95521C5.12939 6.74586 4.49487 7.68718 4.06182 8.72469C3.62877 9.7622 3.4058 10.8753 3.4058 11.9995C3.4058 13.1238 3.62877 14.2369 4.06182 15.2744C4.49487 16.3119 5.12939 17.2532 5.92866 18.0439C6.72793 18.8345 7.67607 19.4588 8.71822 19.8806C9.76036 20.3023 10.8758 20.5132 12 20.501C14.2388 20.4768 16.3776 19.5704 17.9521 17.9787C19.5267 16.387 20.4098 14.2384 20.4098 11.9995C20.4098 9.76065 19.5267 7.61211 17.9521 6.02041C16.3776 4.42871 14.2388 3.52233 12 3.49805ZM12 13.498C13.631 13.498 15.16 14.152 16.281 15.293C16.3539 15.3624 16.4121 15.4458 16.4521 15.5381C16.4921 15.6305 16.5131 15.7299 16.5138 15.8306C16.5146 15.9312 16.4951 16.031 16.4565 16.1239C16.4179 16.2168 16.361 16.3011 16.2892 16.3716C16.2173 16.442 16.132 16.4973 16.0384 16.5342C15.9447 16.571 15.8446 16.5886 15.744 16.586C15.6434 16.5833 15.5444 16.5604 15.4528 16.5187C15.3612 16.477 15.279 16.4172 15.211 16.343C14.7921 15.9168 14.2925 15.5782 13.7414 15.3471C13.1903 15.116 12.5986 14.997 12.001 14.997C11.4018 14.9969 10.8085 15.1164 10.2561 15.3485C9.70369 15.5807 9.20319 15.9209 8.784 16.349C8.71506 16.4194 8.63292 16.4756 8.54229 16.5142C8.45166 16.5528 8.3543 16.5733 8.25578 16.5743C8.15726 16.5753 8.0595 16.5569 7.96808 16.5202C7.87667 16.4834 7.79339 16.429 7.723 16.36C7.65261 16.2911 7.59649 16.209 7.55785 16.1183C7.5192 16.0277 7.49878 15.9303 7.49776 15.8318C7.49674 15.7333 7.51513 15.6355 7.55189 15.5441C7.58865 15.4527 7.64306 15.3694 7.712 15.299C8.27022 14.7277 8.93726 14.2739 9.67374 13.9646C10.4102 13.6553 11.2012 13.4966 12 13.498ZM9 8.75005C9.16706 8.74532 9.33337 8.77414 9.4891 8.83481C9.64483 8.89548 9.78681 8.98676 9.90665 9.10325C10.0265 9.21975 10.1217 9.35909 10.1868 9.51304C10.2518 9.66699 10.2854 9.83242 10.2854 9.99955C10.2854 10.1667 10.2518 10.3321 10.1868 10.4861C10.1217 10.64 10.0265 10.7793 9.90665 10.8958C9.78681 11.0123 9.64483 11.1036 9.4891 11.1643C9.33337 11.225 9.16706 11.2538 9 11.249C8.67473 11.2398 8.36587 11.1042 8.13906 10.8708C7.91224 10.6375 7.78535 10.3249 7.78535 9.99955C7.78535 9.67415 7.91224 9.36157 8.13906 9.12825C8.36587 8.89493 8.67473 8.75925 9 8.75005ZM15 8.75005C15.1671 8.74532 15.3334 8.77414 15.4891 8.83481C15.6448 8.89548 15.7868 8.98676 15.9066 9.10325C16.0265 9.21975 16.1217 9.35909 16.1868 9.51304C16.2518 9.66699 16.2854 9.83242 16.2854 9.99955C16.2854 10.1667 16.2518 10.3321 16.1868 10.4861C16.1217 10.64 16.0265 10.7793 15.9066 10.8958C15.7868 11.0123 15.6448 11.1036 15.4891 11.1643C15.3334 11.225 15.1671 11.2538 15 11.249C14.6747 11.2398 14.3659 11.1042 14.1391 10.8708C13.9122 10.6375 13.7854 10.3249 13.7854 9.99955C13.7854 9.67415 13.9122 9.36157 14.1391 9.12825C14.3659 8.89493 14.6747 8.75925 15 8.75005Z" fill="#121212"/>
</svg>
