<svg width="24" height="24" viewBox="0 0 24 24" fill="none" xmlns="http://www.w3.org/2000/svg">
<path d="M4.09668 15.5713C4.24558 15.8094 4.42265 16.053 4.61719 16.2939C5.04112 16.819 5.58811 17.3832 6.21582 17.9297C7.05136 18.6571 7.91701 19.25 8.6543 19.6113L8.4375 19.8428C7.28565 21.0665 5.35883 21.1249 4.13477 19.9727C2.91089 18.8205 2.85316 16.8946 4.00488 15.6709L4.09668 15.5713ZM10.2012 3.20215C10.3027 3.20754 10.4619 3.24546 10.6494 3.44922C11.194 4.04157 11.4029 4.92372 11.4473 5.75293C11.4688 6.1547 11.4499 6.51545 11.4258 6.77539C11.4138 6.90477 11.4005 7.00846 11.3906 7.07715C11.3857 7.11098 11.3816 7.13635 11.3789 7.15234C11.3776 7.16001 11.3765 7.16579 11.376 7.16895V7.1709C11.3288 7.42405 11.4245 7.68314 11.625 7.84473C11.8245 8.00531 12.0956 8.04337 12.332 7.94531V7.94629C12.3324 7.94614 12.333 7.94569 12.334 7.94531H12.335V7.94434C12.3357 7.94404 12.3369 7.94374 12.3379 7.94336C12.3453 7.9405 12.3595 7.93547 12.3789 7.92871C12.4184 7.91501 12.4807 7.8951 12.5615 7.87402C12.7253 7.83137 12.9579 7.7866 13.2266 7.77832C13.7586 7.76202 14.4121 7.88711 14.9971 8.44531C15.6 9.02088 15.8167 9.71002 15.8799 10.2793C15.9114 10.5639 15.9033 10.8113 15.8877 10.9854C15.8799 11.0719 15.8702 11.1391 15.8633 11.1816C15.8598 11.2029 15.8571 11.2184 15.8555 11.2266L15.8545 11.2295C15.8009 11.4668 15.8747 11.7149 16.0488 11.8848C16.2231 12.0546 16.4731 12.1211 16.709 12.0615H16.7109C16.7138 12.0608 16.7193 12.0603 16.7266 12.0586C16.7411 12.0552 16.7641 12.0496 16.7949 12.043C16.857 12.0296 16.9505 12.011 17.0674 11.9912C17.3022 11.9514 17.6285 11.908 17.9932 11.8936C18.7547 11.8633 19.5457 11.9646 20.0752 12.334C20.305 12.4944 20.4325 12.6628 20.5049 12.8018L10.7559 17.7578C10.751 17.7603 10.746 17.7631 10.7412 17.7656C10.7256 17.7639 10.7052 17.7627 10.6797 17.7578C10.5326 17.7296 10.3075 17.6511 10.0117 17.5029C9.42714 17.2099 8.68184 16.7033 7.91992 16.04C7.13608 15.3577 6.51953 14.6703 6.15234 14.125C5.96582 13.848 5.86647 13.6404 5.82812 13.5117C5.82679 13.5072 5.82535 13.5031 5.82422 13.499C5.82814 13.4907 5.83429 13.4831 5.83789 13.4746L10.2012 3.20215Z" stroke="#121212" stroke-width="1.4" stroke-linejoin="round"/>
</svg>
