<svg width="24" height="24" viewBox="0 0 24 24" fill="none" xmlns="http://www.w3.org/2000/svg">
<path d="M11.0726 18.3819C10.6365 18.7426 9.04852 17.9504 7.46017 16.5677C5.82729 15.1462 4.81246 13.639 5.19353 13.2013L9.69703 2.59826C9.69703 2.59826 10.4614 2.21041 11.1651 2.97582C12.5828 4.51781 12.0641 7.29924 12.0641 7.29924C12.0641 7.29924 13.9695 6.49699 15.48 7.93845C16.9906 9.37992 16.5377 11.3838 16.5377 11.3838C16.5377 11.3838 19.0311 10.7519 20.476 11.7601C21.3572 12.375 21.3076 13.1801 21.3076 13.1801L11.0726 18.3819Z" fill="#1ABB65"/>
<path d="M3.65532 20.4822C2.14984 19.0651 2.0781 16.696 3.49499 15.1907L3.89326 14.7676C4.02463 14.6281 4.20729 14.566 4.38438 14.5829C4.60577 15.2613 5.47315 16.3547 6.67572 17.4016C7.69143 18.2858 8.70713 18.9282 9.42142 19.1823C9.55642 19.4057 9.53273 19.7 9.34514 19.8994L8.94686 20.3225C7.52996 21.8278 5.16082 21.8993 3.65532 20.4822Z" fill="#1ABB65"/>
</svg>
