<svg width="24" height="24" viewBox="0 0 24 24" fill="none" xmlns="http://www.w3.org/2000/svg">
<path fill-rule="evenodd" clip-rule="evenodd" d="M6.9998 9.50004C7.00001 7.80744 7.57275 6.16468 8.62491 4.83884C9.67706 3.51299 11.1468 2.58203 12.7951 2.1973C14.4433 1.81257 16.1733 1.9967 17.7037 2.71976C19.2341 3.44281 20.4749 4.66228 21.2244 6.17988C21.9739 7.69749 22.188 9.42401 21.832 11.0787C21.4759 12.7335 20.5706 14.2191 19.2632 15.2941C17.9558 16.3691 16.3232 16.9703 14.6309 16.9998C12.9386 17.0294 11.286 16.4857 9.9418 15.457L8.1538 17.244L9.5798 18.67C9.67531 18.7623 9.75149 18.8726 9.8039 18.9946C9.85631 19.1166 9.8839 19.2479 9.88505 19.3806C9.8862 19.5134 9.8609 19.6451 9.81062 19.768C9.76034 19.8909 9.68609 20.0025 9.5922 20.0964C9.4983 20.1903 9.38665 20.2646 9.26375 20.3149C9.14086 20.3651 9.00918 20.3904 8.8764 20.3893C8.74362 20.3881 8.6124 20.3606 8.4904 20.3081C8.36839 20.2557 8.25805 20.1796 8.1658 20.084L6.7398 18.659L4.6198 20.779C4.43216 20.9665 4.17772 21.0718 3.91245 21.0717C3.64718 21.0717 3.39281 20.9662 3.2053 20.7785C3.01779 20.5909 2.9125 20.3365 2.9126 20.0712C2.91269 19.8059 3.01816 19.5515 3.2058 19.364L5.3258 17.244L3.9228 15.841C3.82729 15.7488 3.75111 15.6384 3.6987 15.5164C3.64629 15.3944 3.6187 15.2632 3.61755 15.1304C3.6164 14.9977 3.6417 14.866 3.69198 14.7431C3.74226 14.6202 3.81651 14.5085 3.91041 14.4146C4.0043 14.3208 4.11595 14.2465 4.23885 14.1962C4.36174 14.1459 4.49342 14.1206 4.6262 14.1218C4.75898 14.1229 4.8902 14.1505 5.0122 14.2029C5.13421 14.2554 5.24455 14.3315 5.3368 14.427L6.7398 15.83L8.5298 14.04C7.53518 12.7357 6.99752 11.1403 6.9998 9.50004ZM14.4998 4.00004C13.0411 4.00004 11.6422 4.5795 10.6107 5.61095C9.57926 6.64241 8.9998 8.04135 8.9998 9.50004C8.9998 10.9587 9.57926 12.3577 10.6107 13.3891C11.6422 14.4206 13.0411 15 14.4998 15C15.9585 15 17.3574 14.4206 18.3889 13.3891C19.4203 12.3577 19.9998 10.9587 19.9998 9.50004C19.9998 8.04135 19.4203 6.64241 18.3889 5.61095C17.3574 4.5795 15.9585 4.00004 14.4998 4.00004Z" fill="#FF64AA"/>
</svg>
