<svg width="14" height="14" viewBox="0 0 14 14" fill="none" xmlns="http://www.w3.org/2000/svg">
<path fill-rule="evenodd" clip-rule="evenodd" d="M4.08342 5.54169C4.08354 4.55434 4.41764 3.59606 5.0314 2.82265C5.64516 2.04924 6.50248 1.50618 7.46398 1.28176C8.42549 1.05733 9.43464 1.16474 10.3274 1.58653C11.2201 2.00831 11.9439 2.71966 12.3811 3.60493C12.8183 4.4902 12.9432 5.49734 12.7355 6.46259C12.5278 7.42785 11.9997 8.29446 11.2371 8.92155C10.4744 9.54864 9.52209 9.89931 8.53489 9.91657C7.54769 9.93383 6.58368 9.61665 5.79959 9.01661L4.75659 10.059L5.58842 10.8909C5.64413 10.9447 5.68857 11.009 5.71915 11.0802C5.74972 11.1514 5.76581 11.2279 5.76648 11.3054C5.76716 11.3828 5.7524 11.4596 5.72307 11.5313C5.69374 11.603 5.65042 11.6682 5.59565 11.7229C5.54088 11.7777 5.47575 11.821 5.40406 11.8503C5.33237 11.8797 5.25556 11.8944 5.1781 11.8938C5.10065 11.8931 5.0241 11.877 4.95293 11.8464C4.88177 11.8158 4.8174 11.7714 4.76359 11.7157L3.93175 10.8844L2.69509 12.1211C2.58563 12.2305 2.43721 12.2919 2.28246 12.2919C2.12772 12.2918 1.97934 12.2303 1.86996 12.1208C1.76058 12.0114 1.69916 11.8629 1.69922 11.7082C1.69927 11.5535 1.7608 11.4051 1.87025 11.2957L3.10692 10.059L2.2885 9.24061C2.23279 9.1868 2.18835 9.12243 2.15778 9.05126C2.12721 8.98009 2.11111 8.90355 2.11044 8.82609C2.10977 8.74864 2.12453 8.67182 2.15386 8.60013C2.18319 8.52844 2.2265 8.46331 2.28127 8.40854C2.33604 8.35377 2.40117 8.31046 2.47286 8.28113C2.54455 8.2518 2.62137 8.23704 2.69882 8.23771C2.77628 8.23838 2.85282 8.25448 2.92399 8.28505C2.99516 8.31562 3.05953 8.36006 3.11334 8.41577L3.93175 9.23419L4.97592 8.19002C4.39573 7.42918 4.08209 6.49852 4.08342 5.54169ZM8.45842 2.33336C7.60752 2.33336 6.79146 2.67138 6.18979 3.27306C5.58811 3.87474 5.25009 4.69079 5.25009 5.54169C5.25009 6.39259 5.58811 7.20865 6.18979 7.81033C6.79146 8.412 7.60752 8.75002 8.45842 8.75002C9.30932 8.75002 10.1254 8.412 10.7271 7.81033C11.3287 7.20865 11.6668 6.39259 11.6668 5.54169C11.6668 4.69079 11.3287 3.87474 10.7271 3.27306C10.1254 2.67138 9.30932 2.33336 8.45842 2.33336Z" fill="#FF64AA"/>
</svg>
