<svg width="24" height="24" viewBox="0 0 24 24" fill="none" xmlns="http://www.w3.org/2000/svg">
<path d="M13.5 16C13.6989 16 13.8897 16.079 14.0303 16.2197C14.171 16.3603 14.25 16.5511 14.25 16.75C14.25 16.9489 14.171 17.1397 14.0303 17.2803C13.8897 17.421 13.6989 17.5 13.5 17.5H10.5C10.3011 17.5 10.1103 17.421 9.96967 17.2803C9.82902 17.1397 9.75 16.9489 9.75 16.75C9.75 16.5511 9.82902 16.3603 9.96967 16.2197C10.1103 16.079 10.3011 16 10.5 16H13.5ZM16.5 11C16.6989 11 16.8897 11.079 17.0303 11.2197C17.171 11.3603 17.25 11.5511 17.25 11.75C17.25 11.9489 17.171 12.1397 17.0303 12.2803C16.8897 12.421 16.6989 12.5 16.5 12.5H7.5C7.30109 12.5 7.11032 12.421 6.96967 12.2803C6.82902 12.1397 6.75 11.9489 6.75 11.75C6.75 11.5511 6.82902 11.3603 6.96967 11.2197C7.11032 11.079 7.30109 11 7.5 11H16.5ZM19.5 6C19.6989 6 19.8897 6.07902 20.0303 6.21967C20.171 6.36032 20.25 6.55109 20.25 6.75C20.25 6.94891 20.171 7.13968 20.0303 7.28033C19.8897 7.42098 19.6989 7.5 19.5 7.5H4.5C4.30109 7.5 4.11032 7.42098 3.96967 7.28033C3.82902 7.13968 3.75 6.94891 3.75 6.75C3.75 6.55109 3.82902 6.36032 3.96967 6.21967C4.11032 6.07902 4.30109 6 4.5 6H19.5Z" fill="#121212"/>
</svg>
