<svg width="24" height="24" viewBox="0 0 24 24" fill="none" xmlns="http://www.w3.org/2000/svg">
<path d="M2.75323 17.9999H21.2532C21.4432 18.0002 21.6259 18.0726 21.7646 18.2024C21.9032 18.3322 21.9875 18.5098 22.0003 18.6993C22.0131 18.8888 21.9536 19.0761 21.8336 19.2234C21.7137 19.3707 21.5424 19.467 21.3542 19.4929L21.2532 19.4999H2.75323C2.56186 19.5019 2.37698 19.4306 2.23645 19.3007C2.09592 19.1707 2.01038 18.992 1.99735 18.8011C1.98431 18.6101 2.04477 18.4214 2.16633 18.2736C2.28789 18.1258 2.46137 18.03 2.65123 18.0059L2.75323 17.9999ZM2.75323 11.5029H21.2532C21.4432 11.5032 21.6259 11.5756 21.7646 11.7054C21.9032 11.8352 21.9875 12.0128 22.0003 12.2023C22.0131 12.3918 21.9536 12.5791 21.8336 12.7264C21.7137 12.8737 21.5424 12.97 21.3542 12.9959L21.2532 13.0029H2.75323C2.56186 13.0049 2.37698 12.9336 2.23645 12.8037C2.09592 12.6737 2.01038 12.495 1.99735 12.3041C1.98431 12.1131 2.04477 11.9244 2.16633 11.7766C2.28789 11.6288 2.46137 11.533 2.65123 11.5089L2.75323 11.5029ZM2.75223 5.00293H21.2522C21.4423 5.00299 21.6252 5.07517 21.764 5.2049C21.9029 5.33463 21.9873 5.51223 22.0003 5.70181C22.0132 5.89139 21.9537 6.07882 21.8338 6.22623C21.7139 6.37364 21.5425 6.47003 21.3542 6.49593L21.2522 6.50293H2.75223C2.56221 6.50287 2.37929 6.43069 2.24044 6.30096C2.10159 6.17123 2.01716 5.99363 2.00421 5.80405C1.99126 5.61447 2.05075 5.42704 2.17067 5.27963C2.29058 5.13222 2.46198 5.03583 2.65023 5.00993L2.75223 5.00293Z" fill="#121212"/>
</svg>
