<svg width="24" height="24" viewBox="0 0 24 24" fill="none" xmlns="http://www.w3.org/2000/svg">
<path fill-rule="evenodd" clip-rule="evenodd" d="M17.2183 2.56022C17.5993 2.62554 17.8549 2.9868 17.7896 3.36783L17.0728 7.5485H20.4009L20.5415 7.56315C20.8604 7.62838 21.1009 7.91054 21.1011 8.24869C21.1011 8.58694 20.8604 8.86894 20.5415 8.93424L20.4009 8.94889H16.8325L15.7866 15.0485H19.1001L19.2407 15.0631C19.5598 15.1283 19.8002 15.4104 19.8003 15.7487C19.8003 16.0871 19.5599 16.3691 19.2407 16.4342L19.1001 16.4489H15.5474L14.7896 20.8678C14.724 21.2486 14.3628 21.5044 13.9819 21.4391C13.6012 21.3737 13.3457 21.0123 13.4106 20.6315L14.1274 16.4489H8.24756L7.48975 20.8678C7.42419 21.2486 7.06299 21.5044 6.68213 21.4391C6.30132 21.3738 6.04585 21.0123 6.11084 20.6315L6.82764 16.4489H3.6001C3.21367 16.4487 2.8999 16.1352 2.8999 15.7487C2.90005 15.3623 3.21376 15.0487 3.6001 15.0485H7.06787L8.11377 8.94889H4.90088C4.51428 8.94889 4.20068 8.63529 4.20068 8.24869C4.20085 7.86224 4.51438 7.5485 4.90088 7.5485H8.354L9.11084 3.13151C9.17615 2.75051 9.53746 2.49497 9.91846 2.56022C10.2995 2.62554 10.5551 2.9868 10.4897 3.36783L9.77295 7.5485H15.6538L16.4106 3.13151C16.4759 2.75057 16.8373 2.49509 17.2183 2.56022ZM8.48682 15.0485H14.3677L15.4136 8.94889H9.53271L8.48682 15.0485Z" fill="#121212"/>
</svg>
