<svg width="26" height="26" viewBox="0 0 26 26" fill="none" xmlns="http://www.w3.org/2000/svg">
<path d="M13.6149 8.18499L12.9999 8.80149L12.3819 8.18349C11.6259 7.42752 10.6005 7.00286 9.53128 7.00293C8.46211 7.003 7.43676 7.4278 6.6808 8.18386C5.92483 8.93993 5.50017 9.96534 5.50024 11.0345C5.50031 12.1037 5.92511 13.129 6.68117 13.885L12.6024 19.8062C12.7079 19.9116 12.8509 19.9707 12.9999 19.9707C13.149 19.9707 13.292 19.9116 13.3974 19.8062L19.3239 13.8835C20.0791 13.1274 20.5032 12.1024 20.5031 11.0337C20.5029 9.96506 20.0785 8.94017 19.3232 8.18424C18.9485 7.80927 18.5035 7.51181 18.0138 7.30887C17.5241 7.10592 16.9992 7.00146 16.469 7.00146C15.9389 7.00146 15.414 7.10592 14.9243 7.30887C14.4346 7.51181 13.9896 7.81002 13.6149 8.18499ZM18.5259 13.0892L12.9999 18.6137L7.47617 13.09C7.20395 12.8206 6.98764 12.5002 6.83967 12.1469C6.69171 11.7937 6.61502 11.4147 6.614 11.0318C6.61298 10.6488 6.68766 10.2695 6.83374 9.91545C6.97982 9.56145 7.19442 9.23982 7.46521 8.96903C7.736 8.69824 8.05764 8.48363 8.41164 8.33755C8.76564 8.19147 9.14502 8.1168 9.52797 8.11782C9.91092 8.11883 10.2899 8.19553 10.6431 8.34349C10.9963 8.49145 11.3168 8.70776 11.5862 8.97999L12.6047 9.99774C12.6577 10.0508 12.7207 10.0927 12.7902 10.121C12.8596 10.1494 12.934 10.1635 13.0089 10.1627C13.0839 10.1618 13.158 10.146 13.2267 10.1162C13.2955 10.0863 13.3576 10.043 13.4094 9.98874L14.4099 8.97999C14.9614 8.46667 15.6905 8.18725 16.4438 8.2005C17.1971 8.21376 17.9159 8.51865 18.4489 9.05106C18.982 9.58346 19.2878 10.3019 19.3021 11.0551C19.3163 11.8084 19.0378 12.5379 18.5252 13.09" fill="#D6DAE0"/>
</svg>
