<svg width="26" height="26" viewBox="0 0 26 26" fill="none" xmlns="http://www.w3.org/2000/svg">
<path d="M13.615 8.18499L13 8.80149L12.382 8.18349C11.626 7.42752 10.6006 7.00286 9.53141 7.00293C8.46224 7.003 7.43689 7.4278 6.68092 8.18386C5.92495 8.93993 5.5003 9.96534 5.50037 11.0345C5.50044 12.1037 5.92523 13.129 6.6813 13.885L12.6025 19.8062C12.708 19.9116 12.851 19.9707 13 19.9707C13.1491 19.9707 13.2921 19.9116 13.3975 19.8062L19.324 13.8835C20.0792 13.1274 20.5033 12.1024 20.5032 11.0337C20.503 9.96506 20.0787 8.94017 19.3233 8.18424C18.9486 7.80927 18.5036 7.51181 18.0139 7.30887C17.5242 7.10592 16.9993 7.00146 16.4692 7.00146C15.9391 7.00146 15.4141 7.10592 14.9244 7.30887C14.4347 7.51181 13.9898 7.81002 13.615 8.18499ZM18.526 13.0892L13 18.6137L7.4763 13.09C7.20407 12.8206 6.98776 12.5002 6.8398 12.1469C6.69184 11.7937 6.61514 11.4147 6.61412 11.0318C6.6131 10.6488 6.68778 10.2695 6.83386 9.91545C6.97994 9.56145 7.19454 9.23982 7.46533 8.96903C7.73612 8.69824 8.05776 8.48363 8.41176 8.33755C8.76576 8.19147 9.14514 8.1168 9.52809 8.11782C9.91105 8.11883 10.29 8.19553 10.6432 8.34349C10.9965 8.49145 11.3169 8.70776 11.5863 8.97999L12.6048 9.99774C12.6578 10.0508 12.7208 10.0927 12.7903 10.121C12.8597 10.1494 12.9341 10.1635 13.0091 10.1627C13.084 10.1618 13.1581 10.146 13.2269 10.1162C13.2956 10.0863 13.3578 10.043 13.4095 9.98874L14.41 8.97999C14.9615 8.46667 15.6906 8.18725 16.4439 8.2005C17.1972 8.21376 17.916 8.51865 18.4491 9.05106C18.9822 9.58346 19.288 10.3019 19.3022 11.0551C19.3164 11.8084 19.0379 12.5379 18.5253 13.09" fill="#D6DAE0"/>
</svg>
