<svg width="25" height="24" viewBox="0 0 25 24" fill="none" xmlns="http://www.w3.org/2000/svg">
<path d="M13.07 5.57998L12.25 6.40198L11.426 5.57798C10.4179 4.57003 9.0507 4.00382 7.62515 4.00391C6.19959 4.00401 4.83245 4.5704 3.8245 5.57848C2.81654 6.58657 2.25033 7.95378 2.25043 9.37934C2.25052 10.8049 2.81691 12.172 3.825 13.18L11.72 21.075C11.8606 21.2154 12.0512 21.2943 12.25 21.2943C12.4488 21.2943 12.6394 21.2154 12.78 21.075L20.682 13.178C21.6889 12.1698 22.2544 10.8031 22.2542 9.37828C22.254 7.95341 21.6882 6.58689 20.681 5.57898C20.1814 5.07903 19.5881 4.68242 18.9352 4.41182C18.2822 4.14123 17.5823 4.00195 16.8755 4.00195C16.1687 4.00195 15.4688 4.14123 14.8158 4.41182C14.1629 4.68242 13.5696 5.08003 13.07 5.57998Z" fill="#0B9A4E"/>
</svg>
