<svg width="18" height="18" viewBox="0 0 18 18" fill="none" xmlns="http://www.w3.org/2000/svg">
<path d="M9.61498 4.18499L8.99998 4.80149L8.38198 4.18349C7.62592 3.42752 6.60051 3.00286 5.53134 3.00293C4.46218 3.003 3.43683 3.4278 2.68086 4.18386C1.92489 4.93993 1.50023 5.96534 1.50031 7.0345C1.50038 8.10367 1.92517 9.12902 2.68123 9.88499L8.60248 15.8062C8.70795 15.9116 8.85092 15.9707 8.99998 15.9707C9.14905 15.9707 9.29202 15.9116 9.39748 15.8062L15.324 9.88349C16.0792 9.12736 16.5033 8.10236 16.5031 7.03371C16.503 5.96506 16.0786 4.94017 15.3232 4.18424C14.9485 3.80927 14.5036 3.51181 14.0139 3.30887C13.5241 3.10592 12.9992 3.00146 12.4691 3.00146C11.939 3.00146 11.4141 3.10592 10.9244 3.30887C10.4346 3.51181 9.9897 3.81002 9.61498 4.18499ZM14.526 9.08924L8.99998 14.6137L3.47623 9.08999C3.20401 8.82064 2.9877 8.50015 2.83974 8.14693C2.69177 7.79372 2.61508 7.41474 2.61406 7.03179C2.61304 6.64883 2.68772 6.26945 2.8338 5.91545C2.97988 5.56145 3.19448 5.23982 3.46527 4.96903C3.73606 4.69824 4.0577 4.48363 4.4117 4.33755C4.7657 4.19147 5.14508 4.1168 5.52803 4.11782C5.91099 4.11883 6.28996 4.19553 6.64318 4.34349C6.9964 4.49145 7.31689 4.70776 7.58623 4.97999L8.60473 5.99774C8.65772 6.05079 8.72079 6.09271 8.79021 6.12104C8.85964 6.14937 8.93403 6.16353 9.009 6.16269C9.08398 6.16185 9.15804 6.14603 9.22681 6.11616C9.29559 6.08628 9.35769 6.04296 9.40948 5.98874L10.41 4.97999C10.9615 4.46667 11.6905 4.18725 12.4438 4.2005C13.1971 4.21376 13.9159 4.51865 14.449 5.05106C14.9821 5.58346 15.2879 6.30186 15.3021 7.05514C15.3163 7.80842 15.0378 8.53785 14.5252 9.08999" fill="#C0C4CD"/>
</svg>
