<svg width="24" height="24" viewBox="0 0 24 24" fill="none" xmlns="http://www.w3.org/2000/svg">
<path d="M12.8201 5.57998L12.0001 6.40198L11.1761 5.57798C10.168 4.57003 8.80076 4.00382 7.37521 4.00391C5.94965 4.00401 4.58252 4.5704 3.57456 5.57848C2.56661 6.58657 2.00039 7.95378 2.00049 9.37934C2.00058 10.8049 2.56697 12.172 3.57506 13.18L11.4701 21.075C11.6107 21.2154 11.8013 21.2943 12.0001 21.2943C12.1988 21.2943 12.3894 21.2154 12.5301 21.075L20.4321 13.178C21.439 12.1698 22.0044 10.8031 22.0042 9.37828C22.0041 7.95341 21.4382 6.58689 20.4311 5.57898C19.9314 5.07903 19.3382 4.68242 18.6852 4.41182C18.0323 4.14123 17.3324 4.00195 16.6256 4.00195C15.9187 4.00195 15.2189 4.14123 14.5659 4.41182C13.9129 4.68242 13.3197 5.08003 12.8201 5.57998Z" fill="#121212"/>
</svg>
