<svg width="18" height="18" viewBox="0 0 18 18" fill="none" xmlns="http://www.w3.org/2000/svg">
<path d="M9.61498 4.18499L8.99998 4.80149L8.38198 4.18349C7.62592 3.42752 6.60051 3.00286 5.53134 3.00293C4.46218 3.003 3.43683 3.4278 2.68086 4.18386C1.92489 4.93993 1.50023 5.96534 1.50031 7.0345C1.50038 8.10367 1.92517 9.12902 2.68123 9.88499L8.60248 15.8062C8.70795 15.9116 8.85092 15.9707 8.99998 15.9707C9.14905 15.9707 9.29202 15.9116 9.39748 15.8062L15.324 9.88349C16.0792 9.12736 16.5033 8.10236 16.5031 7.03371C16.503 5.96506 16.0786 4.94017 15.3232 4.18424C14.9485 3.80927 14.5036 3.51181 14.0139 3.30887C13.5241 3.10592 12.9992 3.00146 12.4691 3.00146C11.939 3.00146 11.4141 3.10592 10.9244 3.30887C10.4346 3.51181 9.9897 3.81002 9.61498 4.18499Z" fill="#F62D2D"/>
</svg>
