<svg width="41" height="40" viewBox="0 0 41 40" fill="none" xmlns="http://www.w3.org/2000/svg">
<g filter="url(#filter0_d_917_40940)">
<path d="M4.5 20C4.5 11.1634 11.6634 4 20.5 4C29.3366 4 36.5 11.1634 36.5 20C36.5 28.8366 29.3366 36 20.5 36C11.6634 36 4.5 28.8366 4.5 20Z" fill="#FCFCFF" shape-rendering="crispEdges"/>
<path d="M22.104 12.0868C22.4307 12.0867 22.7517 12.1721 23.0353 12.3343C23.3189 12.4966 23.5551 12.7301 23.7207 13.0118L24.399 14.1676H26.1248C26.843 14.1676 27.5317 14.4528 28.0396 14.9606C28.5475 15.4683 28.833 16.157 28.8332 16.8751V24.7918C28.8332 25.1474 28.7631 25.4996 28.627 25.8282C28.4909 26.1568 28.2914 26.4554 28.0399 26.7069C27.7884 26.9583 27.4899 27.1578 27.1613 27.2939C26.8327 27.4301 26.4805 27.5001 26.1248 27.5001H14.8748C14.1565 27.5001 13.4677 27.2148 12.9598 26.7069C12.4518 26.1989 12.1665 25.5101 12.1665 24.7918V16.8751C12.1665 16.1568 12.4518 15.4679 12.9598 14.96C13.4677 14.4521 14.1565 14.1668 14.8748 14.1668H16.6082L17.3373 12.9801C17.505 12.707 17.7399 12.4813 18.0195 12.3248C18.2992 12.1683 18.6143 12.086 18.9348 12.0859L22.104 12.0868ZM22.104 13.3368H18.9348C18.8436 13.3368 18.7536 13.3569 18.6709 13.3955C18.5883 13.434 18.5151 13.4902 18.4565 13.5601L18.4023 13.6351L17.4915 15.1184C17.4357 15.2095 17.3574 15.2848 17.2641 15.337C17.1709 15.3893 17.0659 15.4167 16.959 15.4168H14.8757C14.6841 15.4167 14.4944 15.4543 14.3173 15.5275C14.1403 15.6008 13.9794 15.7082 13.8439 15.8436C13.7084 15.979 13.6009 16.1398 13.5276 16.3168C13.4543 16.4938 13.4165 16.6835 13.4165 16.8751V24.7918C13.4165 25.5968 14.0698 26.2501 14.8748 26.2501H26.1248C26.5116 26.2501 26.8825 26.0965 27.156 25.823C27.4295 25.5495 27.5832 25.1785 27.5832 24.7918V16.8751C27.5832 16.4883 27.4295 16.1174 27.156 15.8439C26.8825 15.5704 26.5116 15.4168 26.1248 15.4168H24.0415C23.9326 15.4168 23.8255 15.3884 23.7309 15.3343C23.6363 15.2802 23.5575 15.2024 23.5023 15.1084L22.6423 13.6443C22.5872 13.5505 22.5085 13.4727 22.4141 13.4186C22.3197 13.3645 22.2128 13.336 22.104 13.3359M20.4998 16.6668C21.4944 16.6668 22.4482 17.0619 23.1515 17.7651C23.8547 18.4684 24.2498 19.4222 24.2498 20.4168C24.2498 21.4113 23.8547 22.3652 23.1515 23.0684C22.4482 23.7717 21.4944 24.1668 20.4998 24.1668C19.5053 24.1668 18.5514 23.7717 17.8482 23.0684C17.1449 22.3652 16.7498 21.4113 16.7498 20.4168C16.7498 19.4222 17.1449 18.4684 17.8482 17.7651C18.5514 17.0619 19.5053 16.6668 20.4998 16.6668ZM20.4998 17.9168C20.1715 17.9168 19.8464 17.9814 19.5431 18.1071C19.2398 18.2327 18.9642 18.4169 18.7321 18.649C18.4999 18.8811 18.3158 19.1567 18.1901 19.4601C18.0645 19.7634 17.9998 20.0885 17.9998 20.4168C17.9998 20.7451 18.0645 21.0702 18.1901 21.3735C18.3158 21.6768 18.4999 21.9524 18.7321 22.1845C18.9642 22.4167 19.2398 22.6008 19.5431 22.7265C19.8464 22.8521 20.1715 22.9168 20.4998 22.9168C21.1629 22.9168 21.7988 22.6534 22.2676 22.1845C22.7364 21.7157 22.9998 21.0798 22.9998 20.4168C22.9998 19.7537 22.7364 19.1178 22.2676 18.649C21.7988 18.1802 21.1629 17.9168 20.4998 17.9168Z" fill="#121212"/>
</g>
<defs>
<filter id="filter0_d_917_40940" x="0.5" y="0" width="40" height="40" filterUnits="userSpaceOnUse" color-interpolation-filters="sRGB">
<feFlood flood-opacity="0" result="BackgroundImageFix"/>
<feColorMatrix in="SourceAlpha" type="matrix" values="0 0 0 0 0 0 0 0 0 0 0 0 0 0 0 0 0 0 127 0" result="hardAlpha"/>
<feOffset/>
<feGaussianBlur stdDeviation="2"/>
<feComposite in2="hardAlpha" operator="out"/>
<feColorMatrix type="matrix" values="0 0 0 0 0.0705882 0 0 0 0 0.0705882 0 0 0 0 0.0705882 0 0 0 0.12 0"/>
<feBlend mode="normal" in2="BackgroundImageFix" result="effect1_dropShadow_917_40940"/>
<feBlend mode="normal" in="SourceGraphic" in2="effect1_dropShadow_917_40940" result="shape"/>
</filter>
</defs>
</svg>
