<svg width="24" height="24" viewBox="0 0 24 24" fill="none" xmlns="http://www.w3.org/2000/svg">
<path d="M12 1C14.3869 1 16.6761 1.95393 18.364 3.65193C20.0518 5.34993 21 7.65291 21 10.0542C21 13.8802 18.3277 18.0498 13.0523 22.6076C12.759 22.8611 12.385 23.0003 11.9983 23C11.6116 22.9997 11.2378 22.8598 10.9449 22.6057L10.596 22.3012C5.55415 17.8623 3 13.7948 3 10.0542C3 7.65291 3.94821 5.34993 5.63604 3.65193C7.32387 1.95393 9.61305 1 12 1ZM12 2.39296C9.98027 2.39296 8.04327 3.20013 6.61511 4.6369C5.18695 6.07367 4.38462 8.02235 4.38462 10.0542C4.38462 13.3063 6.73662 17.0534 11.5052 21.2509L11.8495 21.5508C11.8914 21.587 11.9448 21.6069 12 21.6069C12.0552 21.6069 12.1086 21.587 12.1505 21.5508C17.1498 17.2308 19.6154 13.3834 19.6154 10.0542C19.6154 9.04815 19.4184 8.05191 19.0357 7.1224C18.653 6.19289 18.092 5.34831 17.3849 4.6369C16.6777 3.92548 15.8382 3.36116 14.9143 2.97614C13.9903 2.59113 13.0001 2.39296 12 2.39296ZM12 6.57184C12.9181 6.57184 13.7985 6.93874 14.4477 7.59181C15.0968 8.24489 15.4615 9.13065 15.4615 10.0542C15.4615 10.9778 15.0968 11.8636 14.4477 12.5167C13.7985 13.1698 12.9181 13.5366 12 13.5366C11.0819 13.5366 10.2015 13.1698 9.55232 12.5167C8.90316 11.8636 8.53846 10.9778 8.53846 10.0542C8.53846 9.13065 8.90316 8.24489 9.55232 7.59181C10.2015 6.93874 11.0819 6.57184 12 6.57184ZM12 7.9648C11.4492 7.9648 10.9209 8.18494 10.5314 8.57679C10.1419 8.96863 9.92308 9.50009 9.92308 10.0542C9.92308 10.6084 10.1419 11.1399 10.5314 11.5317C10.9209 11.9235 11.4492 12.1437 12 12.1437C12.5508 12.1437 13.0791 11.9235 13.4686 11.5317C13.8581 11.1399 14.0769 10.6084 14.0769 10.0542C14.0769 9.50009 13.8581 8.96863 13.4686 8.57679C13.0791 8.18494 12.5508 7.9648 12 7.9648Z" fill="#121212"/>
</svg>
