<svg width="24" height="24" viewBox="0 0 24 24" fill="none" xmlns="http://www.w3.org/2000/svg">
<path d="M16 6V7H16.75C17.612 7 18.4386 7.34241 19.0481 7.9519C19.6576 8.5614 20 9.38805 20 10.25V17.75C20 18.612 19.6576 19.4386 19.0481 20.0481C18.4386 20.6576 17.612 21 16.75 21H7.25C6.38805 21 5.5614 20.6576 4.9519 20.0481C4.34241 19.4386 4 18.612 4 17.75V10.25C4 9.38805 4.34241 8.5614 4.9519 7.9519C5.5614 7.34241 6.38805 7 7.25 7H8V6C8 4.93913 8.42143 3.92172 9.17157 3.17157C9.92172 2.42143 10.9391 2 12 2C13.0609 2 14.0783 2.42143 14.8284 3.17157C15.5786 3.92172 16 4.93913 16 6ZM9.5 6V7H14.5V6C14.5 5.33696 14.2366 4.70107 13.7678 4.23223C13.2989 3.76339 12.663 3.5 12 3.5C11.337 3.5 10.7011 3.76339 10.2322 4.23223C9.76339 4.70107 9.5 5.33696 9.5 6ZM12 15.5C12.3978 15.5 12.7794 15.342 13.0607 15.0607C13.342 14.7794 13.5 14.3978 13.5 14C13.5 13.6022 13.342 13.2206 13.0607 12.9393C12.7794 12.658 12.3978 12.5 12 12.5C11.6022 12.5 11.2206 12.658 10.9393 12.9393C10.658 13.2206 10.5 13.6022 10.5 14C10.5 14.3978 10.658 14.7794 10.9393 15.0607C11.2206 15.342 11.6022 15.5 12 15.5Z" fill="#A8AEBD"/>
</svg>
