<svg width="400" height="100" viewBox="0 0 400 100" fill="none" xmlns="http://www.w3.org/2000/svg">
<path d="M102.311 27.0365C101.669 27.5677 99.3306 26.4012 96.9918 24.3652C94.5874 22.2721 93.0931 20.0528 93.6542 19.4082L93.6543 19.4081L100.286 3.7954C100.286 3.7954 101.411 3.22428 102.447 4.35134C104.535 6.62188 103.771 10.7175 103.771 10.7175C103.771 10.7175 106.577 9.53617 108.801 11.6587C111.025 13.7812 110.358 16.7318 110.358 16.7318C110.358 16.7318 114.03 15.8015 116.157 17.2859C117.455 18.1913 117.382 19.3769 117.382 19.3769L102.311 27.0365Z" fill="#1ABB65"/>
<path d="M91.3893 30.1288C89.1726 28.0422 89.0669 24.5537 91.1533 22.3372L91.7397 21.7141C91.9332 21.5087 92.2021 21.4173 92.4629 21.4421C92.7889 22.4411 94.0661 24.0512 95.8368 25.5927C97.3324 26.8947 98.828 27.8405 99.8798 28.2147C100.079 28.5436 100.044 28.9771 99.7675 29.2706L99.181 29.8936C97.0947 32.1102 93.6061 32.2155 91.3893 30.1288Z" fill="#1ABB65"/>
<path d="M28.9889 56.5666V62.0956C28.9889 68.5335 32.924 70.0483 36.4051 70.0483C38.9024 70.0483 40.4915 69.7453 42.4591 68.8365C43.5185 68.3063 44.7293 67.5489 46.1672 67.3217C48.3617 66.943 50.632 67.7004 51.9185 69.8211C54.0374 73.3051 52.1455 77.4708 48.5888 79.6672C45.7888 81.4092 41.4753 82.9998 36.4051 82.9998C25.4322 82.9998 13.3999 78.3039 13.3999 62.0199V56.6424C13.3999 40.737 25.4322 35.6625 35.8754 35.6625C41.2483 35.6625 45.2591 37.1015 47.6807 38.6163C51.2374 40.8128 53.1293 44.7512 51.1617 48.1595C49.7239 50.6589 47.4536 51.1891 45.032 50.8862C43.6699 50.7347 42.5348 50.1288 41.3996 49.5986C39.8861 48.9169 38.751 48.614 36.4051 48.614C33.0754 48.614 28.9889 50.1288 28.9889 56.5666Z" fill="#121212"/>
<path d="M58.1102 62.0199V56.6424C58.1102 40.3583 69.7641 35.6625 80.0559 35.6625C90.1207 35.6625 102.002 40.3583 102.002 56.6424V62.0199C102.002 78.3039 90.1207 82.9998 80.0559 82.9998C69.9912 82.9998 58.1102 78.3039 58.1102 62.0199ZM86.791 62.7015V55.9607C86.791 50.5832 83.31 48.4625 80.0559 48.4625C76.8019 48.4625 73.3209 50.5832 73.3209 55.9607V62.7015C73.3209 68.0791 76.8019 70.1998 80.0559 70.1998C83.31 70.1998 86.791 68.0791 86.791 62.7015Z" fill="#121212"/>
<path d="M123.657 56.5666V62.0956C123.657 68.5335 127.592 70.0483 131.073 70.0483C133.57 70.0483 135.159 69.7453 137.127 68.8365C138.186 68.3063 139.397 67.5489 140.835 67.3217C143.029 66.943 145.3 67.7004 146.586 69.8211C148.705 73.3051 146.813 77.4708 143.256 79.6672C140.456 81.4092 136.143 82.9998 131.073 82.9998C120.1 82.9998 108.068 78.3039 108.068 62.0199V56.6424C108.068 40.737 120.1 35.6625 130.543 35.6625C135.916 35.6625 139.927 37.1015 142.348 38.6163C145.905 40.8128 147.797 44.7512 145.829 48.1595C144.391 50.6589 142.121 51.1891 139.7 50.8862C138.337 50.7347 137.202 50.1288 136.067 49.5986C134.554 48.9169 133.419 48.614 131.073 48.614C127.743 48.614 123.657 50.1288 123.657 56.5666Z" fill="#121212"/>
<path d="M200.529 81.7879H183.426L173.286 64.0649L169.048 68.4578V81.7879H153.913V26.5737C153.913 21.5749 157.621 18.9998 161.556 18.9998C165.491 18.9998 169.048 21.5749 169.048 26.5737V48.9927L182.442 33.3146C184.94 30.3607 189.783 29.6791 192.961 32.1027C196.14 34.5264 196.442 39.7524 193.794 42.5548L183.426 53.4613L200.529 81.7879Z" fill="#121212"/>
<path d="M296.55 60.9778C298.154 60.9778 299.312 61.363 300.024 62.1333C300.737 62.9037 301.093 63.9704 301.093 65.3333V88.1778C301.093 88.9481 300.499 89.7481 299.312 90.5778C298.183 91.4074 296.58 91.8222 294.502 91.8222C292.126 91.8222 290.434 91.3778 289.424 90.4889C288.415 89.6 287.91 88.8296 287.91 88.1778V72.9778C287.91 72.3259 287.821 71.9111 287.643 71.7333C287.465 71.5556 287.049 71.4667 286.396 71.4667H251.033C248.421 71.4667 246.728 71.2 245.956 70.6667C245.244 70.0741 244.887 69.2741 244.887 68.2667C244.887 66.2519 245.63 64.5333 247.114 63.1111C248.599 61.6889 250.35 60.9778 252.369 60.9778H296.55ZM253.706 18.4C251.687 18.4 249.935 17.7481 248.45 16.4444C246.966 15.0815 246.223 13.3926 246.223 11.3778C246.223 10.0148 246.728 9.12593 247.738 8.71111C248.747 8.2963 250.321 8.08889 252.459 8.08889H295.214C296.818 8.08889 297.975 8.5037 298.688 9.33333C299.401 10.1037 299.757 11.2 299.757 12.6222V37.8667C299.757 38.7556 299.193 39.6444 298.065 40.5333C296.936 41.363 295.333 41.7778 293.255 41.7778C291.117 41.7778 289.484 41.363 288.355 40.5333C287.287 39.6444 286.752 38.7556 286.752 37.8667V19.5556C286.752 19.0815 286.633 18.7852 286.396 18.6667C286.158 18.4889 285.772 18.4 285.238 18.4H253.706ZM306.348 45.5111C308.783 45.5111 310.357 45.7778 311.069 46.3111C311.841 46.8444 312.227 47.5852 312.227 48.5333C312.227 50.2519 311.544 51.8519 310.179 53.3333C308.872 54.7556 307.21 55.4667 305.19 55.4667H240.879C239.276 55.4667 237.88 55.3185 236.692 55.0222C235.564 54.7259 235 53.8963 235 52.5333C235 50.8148 235.624 49.2148 236.871 47.7333C238.177 46.2519 239.899 45.5111 242.037 45.5111H260.297V38.0444C260.297 37.2148 260.861 36.3556 261.989 35.4667C263.118 34.5778 264.751 34.1333 266.889 34.1333C269.026 34.1333 270.63 34.5778 271.699 35.4667C272.827 36.3556 273.391 37.2148 273.391 38.0444V45.5111H306.348ZM288.534 33.3333H254.151C252.013 33.3333 250.232 32.7407 248.807 31.5556C247.441 30.3704 246.758 28.7111 246.758 26.5778C246.758 25.5704 247.114 24.8 247.827 24.2667C248.599 23.6741 250.291 23.3778 252.904 23.3778H288.534V33.3333Z" fill="#121212"/>
<path d="M376.343 37.5111H331.093C328.481 37.5111 326.788 37.2444 326.016 36.7111C325.304 36.1185 324.947 35.3185 324.947 34.3111C324.947 32.3556 325.63 30.6963 326.996 29.3333C328.421 27.9704 330.203 27.2889 332.34 27.2889H335.369V18.3111H331.093C328.481 18.3111 326.788 18.0444 326.016 17.5111C325.304 16.9778 324.947 16.2074 324.947 15.2C324.947 13.1259 325.69 11.4074 327.174 10.0444C328.718 8.68148 330.47 8 332.43 8H377.59C380.203 8 381.895 8.2963 382.667 8.88889C383.499 9.48148 383.914 10.2815 383.914 11.2889C383.914 13.1259 383.202 14.7556 381.777 16.1778C380.351 17.6 378.54 18.3111 376.343 18.3111H373.404V27.2889H377.59C380.203 27.2889 381.895 27.5259 382.667 28C383.499 28.4148 383.914 29.1556 383.914 30.2222C383.914 31.8815 383.202 33.5111 381.777 35.1111C380.411 36.7111 378.6 37.5111 376.343 37.5111ZM348.107 18.3111V27.2889H360.755V18.3111H348.107ZM387.121 42.2222C389.556 42.2222 391.129 42.4889 391.842 43.0222C392.614 43.5556 393 44.3259 393 45.3333C393 47.0518 392.347 48.6519 391.04 50.1333C389.793 51.6148 388.101 52.3556 385.963 52.3556H321.652C319.692 52.3556 318.237 52.1481 317.287 51.7333C316.337 51.3185 315.862 50.5185 315.862 49.3333C315.862 47.5556 316.485 45.9259 317.732 44.4444C319.039 42.963 320.731 42.2222 322.81 42.2222H387.121ZM337.329 92C333.944 92 331.361 91.1111 329.579 89.3333C327.798 87.6148 326.907 85.1259 326.907 81.8667V74.6667C326.907 73.3037 327.234 72.2667 327.887 71.5556C328.599 70.7852 329.757 70.4 331.361 70.4H367.258C367.97 70.4 368.386 70.3111 368.505 70.1333C368.683 69.9556 368.772 69.5407 368.772 68.8889V67.7333C368.772 67.1407 368.683 66.7556 368.505 66.5778C368.386 66.3407 367.97 66.2222 367.258 66.2222H331.628C329.253 66.2222 327.709 65.9852 326.996 65.5111C326.283 65.037 325.927 64.3556 325.927 63.4667C325.927 61.8667 326.551 60.3852 327.798 59.0222C329.045 57.6 330.707 56.8889 332.786 56.8889H377.323C378.926 56.8889 380.055 57.2741 380.708 58.0444C381.42 58.7556 381.777 59.7926 381.777 61.1556V74.4C381.777 75.763 381.42 76.8 380.708 77.5111C380.055 78.2222 378.926 78.5778 377.323 78.5778H341.871C341.218 78.5778 340.832 78.6963 340.713 78.9333C340.595 79.1111 340.535 79.5259 340.535 80.1778V81.3333C340.535 81.9259 340.595 82.3111 340.713 82.4889C340.832 82.6667 341.218 82.7556 341.871 82.7556H377.412C379.847 82.7556 381.42 83.0222 382.133 83.5556C382.846 84.0296 383.202 84.6815 383.202 85.5111C383.202 87.1111 382.578 88.5926 381.331 89.9556C380.084 91.3185 378.422 92 376.343 92H337.329Z" fill="#121212"/>
</svg>
