<svg width="201" height="100" viewBox="0 0 201 100" fill="none" xmlns="http://www.w3.org/2000/svg">
<path d="M96.1978 27.0365C95.5555 27.5677 93.2173 26.4012 90.8785 24.3652C88.4741 22.2721 86.9798 20.0528 87.5409 19.4082L87.5411 19.4081L94.1723 3.7954C94.1723 3.7954 95.2979 3.22428 96.3341 4.35134C98.4216 6.62188 97.6577 10.7175 97.6577 10.7175C97.6577 10.7175 100.463 9.53617 102.688 11.6587C104.912 13.7812 104.245 16.7318 104.245 16.7318C104.245 16.7318 107.917 15.8015 110.044 17.2859C111.342 18.1913 111.269 19.3769 111.269 19.3769L96.1978 27.0365Z" fill="#1ABB65"/>
<path d="M85.276 30.1288C83.0593 28.0422 82.9537 24.5537 85.04 22.3372L85.6265 21.7141C85.8199 21.5087 86.0889 21.4173 86.3496 21.4421C86.6756 22.4411 87.9528 24.0512 89.7236 25.5927C91.2192 26.8947 92.7148 27.8405 93.7665 28.2147C93.9653 28.5436 93.9304 28.9771 93.6542 29.2706L93.0677 29.8936C90.9814 32.1102 87.4929 32.2155 85.276 30.1288Z" fill="#1ABB65"/>
<path d="M22.8757 56.5666V62.0956C22.8757 68.5335 26.8108 70.0483 30.2918 70.0483C32.7891 70.0483 34.3783 69.7453 36.3458 68.8365C37.4053 68.3063 38.6161 67.5489 40.0539 67.3217C42.2485 66.943 44.5187 67.7004 45.8052 69.8211C47.9241 73.3051 46.0322 77.4708 42.4755 79.6672C39.6755 81.4092 35.362 82.9998 30.2918 82.9998C19.3189 82.9998 7.28662 78.3039 7.28662 62.0199V56.6424C7.28662 40.737 19.3189 35.6625 29.7621 35.6625C35.135 35.6625 39.1458 37.1015 41.5674 38.6163C45.1241 40.8128 47.016 44.7512 45.0484 48.1595C43.6106 50.6589 41.3404 51.1891 38.9188 50.8862C37.5566 50.7347 36.4215 50.1288 35.2864 49.5986C33.7729 48.9169 32.6377 48.614 30.2918 48.614C26.9621 48.614 22.8757 50.1288 22.8757 56.5666Z" fill="#121212"/>
<path d="M51.9969 62.0199V56.6424C51.9969 40.3583 63.6509 35.6625 73.9427 35.6625C84.0074 35.6625 95.8884 40.3583 95.8884 56.6424V62.0199C95.8884 78.3039 84.0074 82.9998 73.9427 82.9998C63.8779 82.9998 51.9969 78.3039 51.9969 62.0199ZM80.6777 62.7015V55.9607C80.6777 50.5832 77.1967 48.4625 73.9427 48.4625C70.6886 48.4625 67.2076 50.5832 67.2076 55.9607V62.7015C67.2076 68.0791 70.6886 70.1998 73.9427 70.1998C77.1967 70.1998 80.6777 68.0791 80.6777 62.7015Z" fill="#121212"/>
<path d="M117.543 56.5666V62.0956C117.543 68.5335 121.478 70.0483 124.959 70.0483C127.457 70.0483 129.046 69.7453 131.013 68.8365C132.073 68.3063 133.284 67.5489 134.721 67.3217C136.916 66.943 139.186 67.7004 140.473 69.8211C142.592 73.3051 140.7 77.4708 137.143 79.6672C134.343 81.4092 130.03 82.9998 124.959 82.9998C113.987 82.9998 101.954 78.3039 101.954 62.0199V56.6424C101.954 40.737 113.987 35.6625 124.43 35.6625C129.803 35.6625 133.813 37.1015 136.235 38.6163C139.792 40.8128 141.684 44.7512 139.716 48.1595C138.278 50.6589 136.008 51.1891 133.586 50.8862C132.224 50.7347 131.089 50.1288 129.954 49.5986C128.44 48.9169 127.305 48.614 124.959 48.614C121.63 48.614 117.543 50.1288 117.543 56.5666Z" fill="#121212"/>
<path d="M194.415 81.7879H177.313L167.172 64.0649L162.935 68.4578V81.7879H147.8V26.5737C147.8 21.5749 151.508 18.9998 155.443 18.9998C159.378 18.9998 162.935 21.5749 162.935 26.5737V48.9927L176.329 33.3146C178.826 30.3607 183.67 29.6791 186.848 32.1027C190.026 34.5264 190.329 39.7524 187.68 42.5548L177.313 53.4613L194.415 81.7879Z" fill="#121212"/>
</svg>
