<svg width="14" height="14" viewBox="0 0 14 14" fill="none" xmlns="http://www.w3.org/2000/svg">
<path fill-rule="evenodd" clip-rule="evenodd" d="M12.2501 5.25C12.2501 5.40471 12.1886 5.55308 12.0792 5.66248C11.9698 5.77188 11.8214 5.83333 11.6667 5.83333C11.512 5.83333 11.3636 5.77188 11.2542 5.66248C11.1449 5.55308 11.0834 5.40471 11.0834 5.25V3.7415L9.02015 5.80475C9.69323 6.68705 10.0059 7.79217 9.89477 8.89632C9.78367 10.0005 9.25713 11.0211 8.42176 11.7517C7.5864 12.4822 6.50464 12.868 5.39553 12.8309C4.28642 12.7938 3.23285 12.3366 2.44816 11.5519C1.66346 10.7672 1.20628 9.71364 1.16919 8.60453C1.13211 7.49542 1.51788 6.41367 2.2484 5.5783C2.97892 4.74294 3.99959 4.21639 5.10374 4.10529C6.2079 3.99419 7.31301 4.30684 8.19531 4.97992L10.2586 2.91667H8.75006C8.59535 2.91667 8.44698 2.85521 8.33758 2.74581C8.22819 2.63642 8.16673 2.48804 8.16673 2.33333C8.16673 2.17862 8.22819 2.03025 8.33758 1.92085C8.44698 1.81146 8.59535 1.75 8.75006 1.75H11.5209C11.9234 1.75 12.2501 2.07667 12.2501 2.47917V5.25ZM5.54173 5.25C4.69083 5.25 3.87477 5.58802 3.27309 6.1897C2.67142 6.79138 2.3334 7.60743 2.3334 8.45833C2.3334 9.30924 2.67142 10.1253 3.27309 10.727C3.87477 11.3286 4.69083 11.6667 5.54173 11.6667C6.39263 11.6667 7.20868 11.3286 7.81036 10.727C8.41204 10.1253 8.75006 9.30924 8.75006 8.45833C8.75006 7.60743 8.41204 6.79138 7.81036 6.1897C7.20868 5.58802 6.39263 5.25 5.54173 5.25Z" fill="#398DF4"/>
</svg>
