<svg width="24" height="24" viewBox="0 0 24 24" fill="none" xmlns="http://www.w3.org/2000/svg">
<path d="M9.20302 4.00005L9.25002 3.99805L9.29602 3.99905L9.36402 4.00605L9.38002 4.01005C9.46602 4.02338 9.54936 4.05405 9.63002 4.10205L9.68302 4.13605L14.753 7.70105L19.82 4.14005C19.9252 4.06617 20.0475 4.02055 20.1753 4.00755C20.3032 3.99455 20.4322 4.01461 20.5501 4.0658C20.6679 4.117 20.7706 4.19762 20.8484 4.29992C20.9261 4.40223 20.9763 4.52279 20.994 4.65005L21.001 4.75405V15.386C21.001 15.4888 20.9799 15.5905 20.9389 15.6848C20.898 15.779 20.8381 15.8639 20.763 15.934L20.683 16L15.183 19.866C15.063 19.952 14.9201 20.0002 14.7725 20.0043C14.625 20.0084 14.4796 19.9682 14.355 19.889L9.25002 16.297L4.18002 19.862C4.07489 19.9359 3.95254 19.9815 3.82471 19.9945C3.69688 20.0075 3.56785 19.9875 3.45 19.9363C3.33214 19.8851 3.22942 19.8045 3.15168 19.7022C3.07394 19.5999 3.02378 19.4793 3.00602 19.352L2.99902 19.248V8.61605C2.99903 8.51327 3.02016 8.41159 3.0611 8.31732C3.10204 8.22306 3.16192 8.13821 3.23702 8.06805L3.31702 8.00205L8.81702 4.13605C8.87862 4.09317 8.94595 4.05916 9.01702 4.03505L9.14002 4.00705L9.20302 4.00005ZM19.501 6.19705L15.501 9.00905V17.808L19.501 14.996V6.19705ZM8.50002 6.19305L4.50002 9.00505V17.805L8.50002 14.992V6.19305ZM10.002 6.19305V14.993L14.002 17.804V9.00505L10.002 6.19305Z" fill="#121212"/>
</svg>
