<svg width="42" height="48" viewBox="0 0 42 48" fill="none" xmlns="http://www.w3.org/2000/svg">
<g filter="url(#filter0_d_1822_172183)">
<path d="M20.9996 6.40039C24.8187 6.40039 28.4819 7.92734 31.1824 10.6441C33.8826 13.3609 35.3996 17.046 35.3996 20.8879C35.3993 27.0092 31.1239 33.6803 22.684 40.9723C22.2147 41.3779 21.6152 41.6009 20.9965 41.6004C20.3779 41.5998 19.7806 41.3754 19.3121 40.9691L18.7527 40.4816C10.6865 33.3799 6.59993 26.8725 6.59961 20.8879C6.59961 17.046 8.11663 13.3609 10.8168 10.6441C13.5173 7.92734 17.1805 6.40039 20.9996 6.40039Z" fill="#1ABB65"/>
<path d="M21 15.3145C22.4688 15.3145 23.877 15.9025 24.9156 16.9473C25.9541 17.992 26.5389 19.4089 26.5391 20.8863C26.5391 22.3641 25.9543 23.782 24.9156 24.827C23.877 25.8717 22.4687 26.4582 21 26.4582C19.5313 26.4582 18.123 25.8717 17.0844 24.827C16.0457 23.782 15.4609 22.3641 15.4609 20.8863C15.4611 19.4089 16.0459 17.992 17.0844 16.9473C18.123 15.9025 19.5312 15.3145 21 15.3145Z" fill="#FCFCFF"/>
</g>
<defs>
<filter id="filter0_d_1822_172183" x="0.599609" y="0.400391" width="40.8008" height="47.2002" filterUnits="userSpaceOnUse" color-interpolation-filters="sRGB">
<feFlood flood-opacity="0" result="BackgroundImageFix"/>
<feColorMatrix in="SourceAlpha" type="matrix" values="0 0 0 0 0 0 0 0 0 0 0 0 0 0 0 0 0 0 127 0" result="hardAlpha"/>
<feOffset/>
<feGaussianBlur stdDeviation="3"/>
<feComposite in2="hardAlpha" operator="out"/>
<feColorMatrix type="matrix" values="0 0 0 0 0.988235 0 0 0 0 0.988235 0 0 0 0 1 0 0 0 1 0"/>
<feBlend mode="normal" in2="BackgroundImageFix" result="effect1_dropShadow_1822_172183"/>
<feBlend mode="normal" in="SourceGraphic" in2="effect1_dropShadow_1822_172183" result="shape"/>
</filter>
</defs>
</svg>
