<svg width="42" height="48" viewBox="0 0 42 48" fill="none" xmlns="http://www.w3.org/2000/svg">
<g filter="url(#filter0_d_4263_54150)">
<path d="M20.9996 6.39844C24.8187 6.39844 28.4819 7.92539 31.1824 10.6422C33.8826 13.3589 35.3996 17.0441 35.3996 20.8859C35.3993 27.0072 31.1239 33.6783 22.684 40.9703C22.2147 41.3759 21.6152 41.599 20.9965 41.5984C20.3779 41.5978 19.7806 41.3735 19.3121 40.9672L18.7527 40.4797C10.6865 33.3779 6.59993 26.8705 6.59961 20.8859C6.59961 17.0441 8.11663 13.3589 10.8168 10.6422C13.5173 7.92539 17.1805 6.39844 20.9996 6.39844Z" fill="#1ABB65"/>
<path d="M21 15.3125C22.4688 15.3125 23.877 15.9006 24.9156 16.9453C25.9541 17.9901 26.5389 19.4069 26.5391 20.8844C26.5391 22.3621 25.9543 23.7801 24.9156 24.825C23.877 25.8697 22.4687 26.4562 21 26.4563C19.5313 26.4563 18.123 25.8697 17.0844 24.825C16.0457 23.7801 15.4609 22.3621 15.4609 20.8844C15.4611 19.4069 16.0459 17.9901 17.0844 16.9453C18.123 15.9006 19.5312 15.3125 21 15.3125Z" fill="#FCFCFF"/>
</g>
<defs>
<filter id="filter0_d_4263_54150" x="0.599609" y="0.398438" width="40.8008" height="47.1992" filterUnits="userSpaceOnUse" color-interpolation-filters="sRGB">
<feFlood flood-opacity="0" result="BackgroundImageFix"/>
<feColorMatrix in="SourceAlpha" type="matrix" values="0 0 0 0 0 0 0 0 0 0 0 0 0 0 0 0 0 0 127 0" result="hardAlpha"/>
<feOffset/>
<feGaussianBlur stdDeviation="3"/>
<feComposite in2="hardAlpha" operator="out"/>
<feColorMatrix type="matrix" values="0 0 0 0 0.988235 0 0 0 0 0.988235 0 0 0 0 1 0 0 0 1 0"/>
<feBlend mode="normal" in2="BackgroundImageFix" result="effect1_dropShadow_4263_54150"/>
<feBlend mode="normal" in="SourceGraphic" in2="effect1_dropShadow_4263_54150" result="shape"/>
</filter>
</defs>
</svg>
