<svg width="28" height="28" viewBox="0 0 28 28" fill="none" xmlns="http://www.w3.org/2000/svg">
<path d="M10.8389 5.16699L10.8447 5.16895L10.8672 5.17188C10.8984 5.17674 10.9339 5.18866 10.9756 5.21289L11.0107 5.23535L16.9248 9.39355L17.2119 9.5957L17.5 9.39355L23.4111 5.23926C23.4637 5.20232 23.5249 5.17935 23.5889 5.17285C23.6527 5.16639 23.7175 5.17658 23.7764 5.20215C23.8349 5.22769 23.8861 5.26755 23.9248 5.31836C23.9623 5.36772 23.9864 5.42613 23.9961 5.4873L24.001 5.55273V17.9502C24.001 18.0015 23.9911 18.0525 23.9707 18.0996C23.951 18.1451 23.9214 18.1854 23.8857 18.2197L23.8223 18.2715L17.4258 22.7676L17.4229 22.7705C17.3639 22.8127 17.2931 22.8359 17.2207 22.8379C17.1483 22.8399 17.0767 22.8201 17.0156 22.7812L11.0791 18.6035L10.792 18.4014L10.5039 18.6035L4.58887 22.7627C4.53645 22.7995 4.47579 22.8226 4.41211 22.8291C4.34823 22.8356 4.28351 22.8254 4.22461 22.7998C4.16569 22.7742 4.11407 22.7338 4.0752 22.6826C4.03782 22.6333 4.01356 22.5757 4.00391 22.5146L3.99902 22.4365V10.0518L4.00684 9.97559C4.01204 9.95052 4.02002 9.92594 4.03027 9.90234C4.05006 9.85683 4.07848 9.8156 4.11426 9.78125L4.17578 9.73047L10.5742 5.23438L10.5732 5.2334C10.6025 5.21325 10.6348 5.19799 10.668 5.18555L10.7441 5.16797L10.7715 5.16504L10.8057 5.16406L10.8389 5.16699ZM22.4639 6.82031L17.7969 10.1016L17.585 10.251V21.7383L18.3721 21.1846L23.0391 17.9043L23.251 17.7549V6.2666L22.4639 6.82031ZM9.62891 6.81543L4.96289 10.0967L4.75 10.2461V21.7354L5.53809 21.1816L10.2041 17.8994L10.417 17.75V6.26172L9.62891 6.81543ZM16.8359 10.2461L16.623 10.0967L11.957 6.81543L11.1689 6.26172V17.751L11.3818 17.9004L16.0488 21.1797L16.8359 21.7334V10.2461Z" fill="#121212" stroke="#FCFCFF"/>
</svg>
