<svg width="32" height="32" viewBox="0 0 32 32" fill="none" xmlns="http://www.w3.org/2000/svg">
<path d="M9.25 8H22.75C23.5801 7.99995 24.3788 8.31755 24.9822 8.88767C25.5856 9.45779 25.948 10.2372 25.995 11.066L26 11.25V20.75C26.0001 21.5801 25.6824 22.3788 25.1123 22.9822C24.5422 23.5856 23.7628 23.948 22.934 23.995L22.75 24H9.25C8.41986 24.0001 7.62117 23.6824 7.01777 23.1123C6.41437 22.5422 6.052 21.7628 6.005 20.934L6 20.75V11.25C5.99995 10.4199 6.31755 9.62117 6.88767 9.01777C7.45779 8.41437 8.23719 8.052 9.066 8.005L9.25 8ZM24.5 13.373L16.35 17.663C16.258 17.7116 16.1568 17.7405 16.053 17.7479C15.9492 17.7553 15.845 17.7411 15.747 17.706L15.651 17.664L7.5 13.374V20.75C7.50002 21.1892 7.66517 21.6123 7.96268 21.9354C8.26019 22.2585 8.6683 22.4579 9.106 22.494L9.25 22.5H22.75C23.1893 22.5 23.6126 22.3347 23.9357 22.037C24.2588 21.7392 24.4581 21.3309 24.494 20.893L24.5 20.75V13.373ZM22.75 9.5H9.25C8.81081 9.50002 8.38768 9.66517 8.06461 9.96268C7.74154 10.2602 7.54214 10.6683 7.506 11.106L7.5 11.25V11.679L16 16.153L24.5 11.678V11.25C24.5 10.8107 24.3347 10.3874 24.037 10.0643C23.7392 9.74119 23.3309 9.5419 22.893 9.506L22.75 9.5Z" fill="#1ABB65"/>
</svg>
