<svg width="24" height="24" viewBox="0 0 24 24" fill="none" xmlns="http://www.w3.org/2000/svg">
<path d="M12.0003 9C12.7958 9.00012 13.5589 9.31641 14.1214 9.87891C14.6838 10.4415 15.0003 11.2045 15.0003 12C15.0003 12.7955 14.6838 13.5585 14.1214 14.1211C13.5589 14.6836 12.7958 14.9999 12.0003 15C11.2046 15 10.4408 14.6837 9.8782 14.1211C9.31575 13.5585 9.00027 12.7955 9.00027 12C9.00027 11.2045 9.24434 10.5129 9.8782 9.87891C10.5122 9.24486 11.2046 9 12.0003 9Z" fill="#121212"/>
<path fill-rule="evenodd" clip-rule="evenodd" d="M12.0003 2C12.1812 2.00012 12.356 2.06569 12.4925 2.18457C12.629 2.30369 12.7178 2.46888 12.7425 2.64844L12.7503 2.75V4.53809C14.4718 4.7111 16.0806 5.47379 17.304 6.69727C18.5274 7.92091 19.2905 9.53022 19.4632 11.252L19.5003 11.25H21.2503C21.4401 11.2502 21.6232 11.3225 21.762 11.4521C21.9007 11.5819 21.9854 11.7598 21.9983 11.9492C22.0112 12.1387 21.9512 12.3263 21.8313 12.4736C21.7114 12.6209 21.54 12.7173 21.3518 12.7432L21.2503 12.75L19.4622 12.749C19.2895 14.4708 18.5265 16.0801 17.303 17.3037C16.0793 18.5274 14.4692 19.2902 12.7473 19.4629L12.7503 19.5V21.25C12.7502 21.4399 12.6777 21.6229 12.5481 21.7617C12.4184 21.9005 12.2406 21.9851 12.0511 21.998C11.8616 22.011 11.674 21.9518 11.5266 21.832C11.3792 21.7121 11.283 21.5398 11.2571 21.3516L11.2503 21.25L11.2512 19.4619C9.52946 19.2892 7.9202 18.5263 6.69656 17.3027C5.47289 16.0791 4.70912 14.4699 4.5364 12.748L4.50027 12.75H2.75027C2.56025 12.7499 2.37643 12.6776 2.23757 12.5479C2.09892 12.4182 2.01516 12.2402 2.00222 12.0508C1.98936 11.8613 2.04839 11.6737 2.16824 11.5264C2.28813 11.3791 2.45959 11.2827 2.64773 11.2568L2.75027 11.25H4.53738C4.71031 9.52835 5.47396 7.91974 6.69754 6.69629C7.92119 5.47282 9.53048 4.70979 11.2522 4.53711L11.2503 4.5V2.75C11.2503 2.55121 11.3285 2.36035 11.469 2.21973C11.6097 2.07907 11.8014 2 12.0003 2ZM12.0003 6C10.409 6 8.88232 6.63259 7.75711 7.75781C6.63205 8.88301 6.00027 10.4088 6.00027 12C6.00027 13.5912 6.63205 15.117 7.75711 16.2422C8.88232 17.3674 10.409 18 12.0003 18C13.5914 17.9999 15.1173 17.3673 16.2425 16.2422C17.3675 15.117 18.0003 13.5912 18.0003 12C18.0003 10.4088 17.3675 8.88301 16.2425 7.75781C15.1173 6.6327 13.5914 6.00012 12.0003 6Z" fill="#121212"/>
</svg>
