<svg width="19" height="18" viewBox="0 0 19 18" fill="none" xmlns="http://www.w3.org/2000/svg">
<path d="M9.50032 6.75C10.0969 6.75009 10.6693 6.9873 11.0911 7.40918C11.513 7.83112 11.7503 8.40334 11.7503 9C11.7503 9.59665 11.513 10.1689 11.0911 10.5908C10.6693 11.0127 10.0969 11.2499 9.50032 11.25C8.90359 11.25 8.33073 11.0128 7.90877 10.5908C7.48693 10.1689 7.25032 9.59665 7.25032 9C7.25032 8.40334 7.43338 7.88466 7.90877 7.40918C8.38431 6.93364 8.90359 6.75 9.50032 6.75Z" fill="#C0C4CD"/>
<path fill-rule="evenodd" clip-rule="evenodd" d="M9.50032 1.5C9.63604 1.50009 9.76714 1.54927 9.86946 1.63843C9.97191 1.72777 10.0385 1.85166 10.057 1.98633L10.0628 2.0625V3.40356C11.3539 3.53333 12.5606 4.10535 13.4781 5.02295C14.3957 5.94069 14.968 7.14766 15.0975 8.43896L15.1253 8.4375H16.4378C16.5802 8.43763 16.7176 8.49189 16.8216 8.58911C16.9256 8.68639 16.9892 8.81983 16.9989 8.96191C17.0085 9.10401 16.9635 9.24474 16.8736 9.35522C16.7837 9.46568 16.6551 9.53796 16.514 9.55737L16.4378 9.5625L15.0968 9.56177C14.9672 10.8531 14.395 12.0601 13.4774 12.9778C12.5596 13.8955 11.352 14.4676 10.0606 14.5972L10.0628 14.625V15.9375C10.0628 16.08 10.0084 16.2172 9.91121 16.3213C9.81393 16.4254 9.68057 16.4888 9.53841 16.4985C9.39632 16.5082 9.25562 16.4638 9.1451 16.374C9.03454 16.2841 8.96238 16.1549 8.94295 16.0137L8.93782 15.9375L8.93856 14.5964C7.64722 14.4669 6.44027 13.8947 5.52254 12.977C4.60479 12.0593 4.03196 10.8525 3.90242 9.56103L3.87532 9.5625H2.56282C2.42031 9.56246 2.28244 9.50818 2.1783 9.41089C2.07431 9.31361 2.0115 9.18016 2.00179 9.03809C1.99214 8.89598 2.03641 8.75527 2.1263 8.64477C2.21622 8.53431 2.34481 8.46205 2.48592 8.44263L2.56282 8.4375H3.90316C4.03285 7.14626 4.60559 5.93981 5.52327 5.02222C6.44101 4.10461 7.64798 3.53234 8.93929 3.40283L8.93782 3.375V2.0625C8.93782 1.91341 8.99652 1.77027 9.10189 1.66479C9.20738 1.55931 9.35114 1.5 9.50032 1.5ZM9.50032 4.5C8.30685 4.5 7.16186 4.97445 6.31795 5.81836C5.47416 6.66225 5.00032 7.80662 5.00032 9C5.00032 10.1934 5.47416 11.3377 6.31795 12.1816C7.16186 13.0256 8.30685 13.5 9.50032 13.5C10.6937 13.4999 11.8381 13.0255 12.682 12.1816C13.5258 11.3377 14.0003 10.1934 14.0003 9C14.0003 7.8066 13.5258 6.66226 12.682 5.81836C11.8381 4.97452 10.6937 4.50009 9.50032 4.5Z" fill="#C0C4CD"/>
</svg>
