<svg width="24" height="24" viewBox="0 0 24 24" fill="none" xmlns="http://www.w3.org/2000/svg">
<path d="M17.7549 13.9999C18.3513 14.0004 18.9231 14.2377 19.3446 14.6596C19.7661 15.0815 20.0029 15.6535 20.0029 16.2499V16.8249C20.0029 17.7189 19.6829 18.5839 19.1029 19.2629C17.5329 21.0959 15.1459 22.0009 11.9999 22.0009C8.85391 22.0009 6.46791 21.0959 4.90191 19.2609C4.32251 18.5822 4.00411 17.7192 4.00391 16.8269V16.2489C4.00417 15.6525 4.2412 15.0806 4.66292 14.6589C5.08463 14.2372 5.65652 14.0001 6.25291 13.9999H17.7549ZM17.7549 15.4999H6.25191C6.05299 15.4999 5.86223 15.5789 5.72158 15.7196C5.58092 15.8602 5.50191 16.051 5.50191 16.2499V16.8269C5.50191 17.3619 5.69391 17.8799 6.04191 18.2869C7.29491 19.7559 9.26191 20.5009 11.9989 20.5009C14.7379 20.5009 16.7049 19.7559 17.9619 18.2879C18.3106 17.8802 18.5021 17.3613 18.5019 16.8249V16.2489C18.5016 16.0505 18.4228 15.8603 18.2826 15.7199C18.1424 15.5795 17.9533 15.5004 17.7549 15.4999ZM11.9999 2.00488C12.6565 2.00488 13.3067 2.13421 13.9133 2.38548C14.52 2.63676 15.0711 3.00506 15.5354 3.46935C15.9997 3.93364 16.368 4.48484 16.6193 5.09147C16.8706 5.69809 16.9999 6.34827 16.9999 7.00488C16.9999 7.66149 16.8706 8.31167 16.6193 8.9183C16.368 9.52493 15.9997 10.0761 15.5354 10.5404C15.0711 11.0047 14.52 11.373 13.9133 11.6243C13.3067 11.8756 12.6565 12.0049 11.9999 12.0049C10.6738 12.0049 9.40205 11.4781 8.46437 10.5404C7.52669 9.60273 6.99991 8.33097 6.99991 7.00488C6.99991 5.6788 7.52669 4.40703 8.46437 3.46935C9.40205 2.53167 10.6738 2.00488 11.9999 2.00488ZM11.9999 3.50488C11.5403 3.50488 11.0852 3.59541 10.6605 3.7713C10.2359 3.9472 9.85004 4.205 9.52503 4.53001C9.20003 4.85501 8.94222 5.24085 8.76633 5.66549C8.59044 6.09013 8.49991 6.54526 8.49991 7.00488C8.49991 7.46451 8.59044 7.91963 8.76633 8.34427C8.94222 8.76891 9.20003 9.15475 9.52503 9.47976C9.85004 9.80476 10.2359 10.0626 10.6605 10.2385C11.0852 10.4144 11.5403 10.5049 11.9999 10.5049C12.9282 10.5049 13.8184 10.1361 14.4748 9.47976C15.1312 8.82338 15.4999 7.93314 15.4999 7.00488C15.4999 6.07662 15.1312 5.18639 14.4748 4.53001C13.8184 3.87363 12.9282 3.50488 11.9999 3.50488Z" fill="#121212"/>
</svg>
