<svg width="32" height="20" viewBox="0 0 32 20" fill="none" xmlns="http://www.w3.org/2000/svg">
<path d="M0.5 10C0.5 4.47715 4.97715 0 10.5 0H21.5C27.0228 0 31.5 4.47715 31.5 10C31.5 15.5228 27.0228 20 21.5 20H10.5C4.97715 20 0.5 15.5228 0.5 10Z" fill="#F62D2D"/>
<path d="M8.35478 6.116C7.98678 6.116 7.65478 6.2 7.35878 6.368C7.07078 6.536 6.84278 6.772 6.67478 7.076C6.50678 7.372 6.42278 7.712 6.42278 8.096C6.42278 8.48 6.50678 8.824 6.67478 9.128C6.84278 9.432 7.07078 9.668 7.35878 9.836C7.65478 10.004 7.98678 10.088 8.35478 10.088C8.72278 10.088 9.05078 10.004 9.33878 9.836C9.62678 9.668 9.85078 9.432 10.0108 9.128C10.1708 8.824 10.2508 8.48 10.2508 8.096C10.2508 7.712 10.1708 7.372 10.0108 7.076C9.85078 6.772 9.62678 6.536 9.33878 6.368C9.05078 6.2 8.72278 6.116 8.35478 6.116ZM11.2468 8.096C11.2468 8.64 11.0948 9.18 10.7908 9.716L8.35478 14.012H7.20278L8.99078 10.904C8.74278 10.952 8.52278 10.976 8.33078 10.976C7.77078 10.976 7.27078 10.852 6.83078 10.604C6.39078 10.356 6.04678 10.016 5.79878 9.584C5.55078 9.152 5.42678 8.656 5.42678 8.096C5.42678 7.536 5.55078 7.04 5.79878 6.608C6.04678 6.176 6.39078 5.84 6.83078 5.6C7.27078 5.352 7.77478 5.228 8.34278 5.228C8.90278 5.228 9.40278 5.352 9.84278 5.6C10.2828 5.84 10.6268 6.176 10.8748 6.608C11.1228 7.04 11.2468 7.536 11.2468 8.096ZM15.2163 6.116C14.8483 6.116 14.5163 6.2 14.2203 6.368C13.9323 6.536 13.7043 6.772 13.5363 7.076C13.3683 7.372 13.2843 7.712 13.2843 8.096C13.2843 8.48 13.3683 8.824 13.5363 9.128C13.7043 9.432 13.9323 9.668 14.2203 9.836C14.5163 10.004 14.8483 10.088 15.2163 10.088C15.5843 10.088 15.9123 10.004 16.2003 9.836C16.4883 9.668 16.7123 9.432 16.8723 9.128C17.0323 8.824 17.1123 8.48 17.1123 8.096C17.1123 7.712 17.0323 7.372 16.8723 7.076C16.7123 6.772 16.4883 6.536 16.2003 6.368C15.9123 6.2 15.5843 6.116 15.2163 6.116ZM18.1083 8.096C18.1083 8.64 17.9563 9.18 17.6523 9.716L15.2163 14.012H14.0643L15.8523 10.904C15.6043 10.952 15.3843 10.976 15.1923 10.976C14.6323 10.976 14.1323 10.852 13.6923 10.604C13.2523 10.356 12.9083 10.016 12.6603 9.584C12.4123 9.152 12.2883 8.656 12.2883 8.096C12.2883 7.536 12.4123 7.04 12.6603 6.608C12.9083 6.176 13.2523 5.84 13.6923 5.6C14.1323 5.352 14.6363 5.228 15.2043 5.228C15.7643 5.228 16.2643 5.352 16.7043 5.6C17.1443 5.84 17.4883 6.176 17.7363 6.608C17.9843 7.04 18.1083 7.536 18.1083 8.096ZM23.3499 9.08H26.3739V10.064H23.3499V13.076H22.3779V10.064H19.3539V9.08H22.3779V6.056H23.3499V9.08Z" fill="#FCFCFF"/>
</svg>
