<svg width="20" height="20" viewBox="0 0 20 20" fill="none" xmlns="http://www.w3.org/2000/svg">
<path d="M0 10C0 4.47715 4.47715 0 10 0C15.5228 0 20 4.47715 20 10C20 15.5228 15.5228 20 10 20C4.47715 20 0 15.5228 0 10Z" fill="#F62D2D"/>
<path d="M6.34113 13.208C6.76513 13.208 7.13713 13.06 7.45712 12.764C7.78513 12.46 8.03713 12.04 8.21313 11.504C8.39713 10.968 8.48913 10.356 8.48913 9.668C8.48913 8.98 8.39713 8.368 8.21313 7.832C8.03713 7.296 7.78513 6.88 7.45712 6.584C7.12913 6.28 6.75713 6.128 6.34113 6.128C5.92513 6.128 5.55313 6.28 5.22513 6.584C4.90513 6.88 4.65312 7.296 4.46912 7.832C4.28512 8.368 4.19312 8.98 4.19312 9.668C4.19312 10.356 4.28512 10.968 4.46912 11.504C4.65312 12.04 4.90513 12.46 5.22513 12.764C5.55313 13.06 5.92513 13.208 6.34113 13.208ZM6.34113 14.096C5.73312 14.096 5.18912 13.908 4.70912 13.532C4.23712 13.156 3.86512 12.632 3.59312 11.96C3.32912 11.288 3.19712 10.524 3.19712 9.668C3.19712 8.812 3.32912 8.052 3.59312 7.388C3.86512 6.716 4.23712 6.192 4.70912 5.816C5.18912 5.44 5.73312 5.252 6.34113 5.252C6.94913 5.252 7.49313 5.44 7.97313 5.816C8.45313 6.192 8.82513 6.716 9.08913 7.388C9.35313 8.052 9.48513 8.812 9.48513 9.668C9.48513 10.524 9.35313 11.288 9.08913 11.96C8.82513 12.632 8.45313 13.156 7.97313 13.532C7.50113 13.908 6.95713 14.096 6.34113 14.096ZM13.648 13.208C14.072 13.208 14.444 13.06 14.764 12.764C15.092 12.46 15.344 12.04 15.52 11.504C15.704 10.968 15.796 10.356 15.796 9.668C15.796 8.98 15.704 8.368 15.52 7.832C15.344 7.296 15.092 6.88 14.764 6.584C14.436 6.28 14.064 6.128 13.648 6.128C13.232 6.128 12.86 6.28 12.532 6.584C12.212 6.88 11.96 7.296 11.776 7.832C11.592 8.368 11.5 8.98 11.5 9.668C11.5 10.356 11.592 10.968 11.776 11.504C11.96 12.04 12.212 12.46 12.532 12.764C12.86 13.06 13.232 13.208 13.648 13.208ZM13.648 14.096C13.04 14.096 12.496 13.908 12.016 13.532C11.544 13.156 11.172 12.632 10.9 11.96C10.636 11.288 10.504 10.524 10.504 9.668C10.504 8.812 10.636 8.052 10.9 7.388C11.172 6.716 11.544 6.192 12.016 5.816C12.496 5.44 13.04 5.252 13.648 5.252C14.256 5.252 14.8 5.44 15.28 5.816C15.76 6.192 16.132 6.716 16.396 7.388C16.66 8.052 16.792 8.812 16.792 9.668C16.792 10.524 16.66 11.288 16.396 11.96C16.132 12.632 15.76 13.156 15.28 13.532C14.808 13.908 14.264 14.096 13.648 14.096Z" fill="#FCFCFF"/>
</svg>
