<svg width="18" height="18" viewBox="0 0 18 18" fill="none" xmlns="http://www.w3.org/2000/svg">
<path d="M15.714 2.28534C15.2106 1.78246 14.5281 1.5 13.8165 1.5C13.1049 1.5 12.4225 1.78246 11.919 2.28534L2.95502 11.2501C2.65018 11.5546 2.43596 11.9379 2.33627 12.3571L1.51502 15.8078C1.49279 15.9013 1.49487 15.9989 1.52108 16.0914C1.54729 16.1839 1.59674 16.2681 1.66473 16.336C1.73272 16.4039 1.81697 16.4532 1.90945 16.4793C2.00193 16.5054 2.09956 16.5074 2.19302 16.4851L5.64377 15.6631C6.06325 15.5635 6.44678 15.3493 6.75152 15.0443L14.25 7.54509C14.4945 7.79167 14.6312 8.12506 14.6304 8.47227C14.6295 8.81947 14.4911 9.15219 14.2455 9.39759L12.9083 10.7356C12.853 10.7871 12.8087 10.8492 12.7779 10.9182C12.7472 10.9872 12.7307 11.0617 12.7293 11.1372C12.728 11.2127 12.7419 11.2877 12.7702 11.3578C12.7985 11.4278 12.8406 11.4915 12.894 11.5449C12.9474 11.5983 13.011 11.6404 13.0811 11.6687C13.1511 11.697 13.2261 11.7109 13.3017 11.7095C13.3772 11.7082 13.4517 11.6917 13.5207 11.6609C13.5897 11.6302 13.6518 11.5859 13.7033 11.5306L15.0413 10.1933C15.4977 9.73687 15.7544 9.118 15.7551 8.47249C15.7558 7.82698 15.5005 7.20754 15.045 6.75009L15.714 6.08109C16.2169 5.57764 16.4994 4.89516 16.4994 4.18359C16.4994 3.47201 16.2169 2.78953 15.714 2.28609M12.714 3.08109C12.8588 2.9363 13.0307 2.82146 13.2199 2.7431C13.409 2.66475 13.6118 2.62442 13.8165 2.62442C14.0213 2.62442 14.224 2.66475 14.4132 2.7431C14.6024 2.82146 14.7742 2.9363 14.919 3.08109C15.0638 3.22587 15.1787 3.39775 15.257 3.58692C15.3354 3.77609 15.3757 3.97883 15.3757 4.18359C15.3757 4.38834 15.3354 4.59109 15.257 4.78026C15.1787 4.96942 15.0638 5.1413 14.919 5.28609L5.95577 14.2493C5.79752 14.4068 5.59952 14.5171 5.38277 14.5688L2.82077 15.1786L3.43052 12.6173C3.48227 12.3998 3.59327 12.2018 3.75077 12.0443L12.714 3.08109Z" fill="#F62D2D"/>
</svg>
