<svg width="24" height="24" viewBox="0 0 24 24" fill="none" xmlns="http://www.w3.org/2000/svg">
<path d="M20.9519 3.04712C20.2806 2.37662 19.3706 2 18.4219 2C17.4731 2 16.5631 2.37662 15.8919 3.04712L3.93987 15.0001C3.53341 15.4062 3.24778 15.9172 3.11487 16.4761L2.01987 21.0771C1.99022 21.2018 1.993 21.3319 2.02794 21.4552C2.06288 21.5785 2.12883 21.6907 2.21948 21.7813C2.31013 21.8718 2.42246 21.9377 2.54577 21.9725C2.66908 22.0073 2.79925 22.0099 2.92387 21.9801L7.52487 20.8841C8.08417 20.7514 8.59555 20.4657 9.00187 20.0591L18.9999 10.0601C19.3258 10.3889 19.5081 10.8334 19.507 11.2964C19.5059 11.7593 19.3214 12.2029 18.9939 12.5301L17.2109 14.3141C17.1372 14.3828 17.0781 14.4656 17.0371 14.5576C16.9961 14.6496 16.9741 14.7489 16.9723 14.8496C16.9705 14.9503 16.989 15.0503 17.0267 15.1437C17.0645 15.2371 17.1206 15.3219 17.1918 15.3932C17.263 15.4644 17.3479 15.5205 17.4413 15.5582C17.5347 15.596 17.6347 15.6145 17.7354 15.6127C17.8361 15.6109 17.9354 15.5889 18.0274 15.5479C18.1194 15.5069 18.2022 15.4478 18.2709 15.3741L20.0549 13.5911C20.6634 12.9825 21.0057 12.1573 21.0067 11.2966C21.0076 10.436 20.6671 9.61006 20.0599 9.00012L20.9519 8.10812C21.6224 7.43685 21.999 6.52689 21.999 5.57812C21.999 4.62935 21.6224 3.71938 20.9519 3.04812M16.9519 4.10812C17.1449 3.91507 17.3741 3.76194 17.6263 3.65747C17.8785 3.55299 18.1489 3.49922 18.4219 3.49922C18.6949 3.49922 18.9652 3.55299 19.2174 3.65747C19.4696 3.76194 19.6988 3.91507 19.8919 4.10812C20.0849 4.30116 20.238 4.53033 20.3425 4.78256C20.447 5.03478 20.5008 5.30511 20.5008 5.57812C20.5008 5.85112 20.447 6.12145 20.3425 6.37367C20.238 6.6259 20.0849 6.85507 19.8919 7.04812L7.94087 18.9991C7.72987 19.2091 7.46587 19.3561 7.17687 19.4251L3.76087 20.2381L4.57387 16.8231C4.64287 16.5331 4.79087 16.2691 5.00087 16.0591L16.9519 4.10812Z" fill="#121212"/>
</svg>
