<svg width="14" height="14" viewBox="0 0 14 14" fill="none" xmlns="http://www.w3.org/2000/svg">
<path d="M3.20841 4.66659C3.20841 4.27981 3.36206 3.90888 3.63555 3.63539C3.90904 3.3619 4.27997 3.20825 4.66675 3.20825C5.05352 3.20825 5.42445 3.3619 5.69795 3.63539C5.97144 3.90888 6.12508 4.27981 6.12508 4.66659C6.12508 5.05336 5.97144 5.42429 5.69795 5.69778C5.42445 5.97127 5.05352 6.12492 4.66675 6.12492C4.27997 6.12492 3.90904 5.97127 3.63555 5.69778C3.36206 5.42429 3.20841 5.05336 3.20841 4.66659ZM4.66675 2.33325C4.04791 2.33325 3.45442 2.57908 3.01683 3.01667C2.57925 3.45425 2.33341 4.04775 2.33341 4.66659C2.33341 5.28542 2.57925 5.87892 3.01683 6.3165C3.45442 6.75409 4.04791 6.99992 4.66675 6.99992C5.28559 6.99992 5.87908 6.75409 6.31666 6.3165C6.75425 5.87892 7.00008 5.28542 7.00008 4.66659C7.00008 4.04775 6.75425 3.45425 6.31666 3.01667C5.87908 2.57908 5.28559 2.33325 4.66675 2.33325ZM9.04175 5.24992C9.04175 5.01785 9.13393 4.79529 9.29803 4.6312C9.46212 4.46711 9.68468 4.37492 9.91675 4.37492C10.1488 4.37492 10.3714 4.46711 10.5355 4.6312C10.6996 4.79529 10.7917 5.01785 10.7917 5.24992C10.7917 5.48198 10.6996 5.70454 10.5355 5.86864C10.3714 6.03273 10.1488 6.12492 9.91675 6.12492C9.68468 6.12492 9.46212 6.03273 9.29803 5.86864C9.13393 5.70454 9.04175 5.48198 9.04175 5.24992ZM9.91675 3.49992C9.45262 3.49992 9.0075 3.68429 8.67931 4.01248C8.35112 4.34067 8.16675 4.78579 8.16675 5.24992C8.16675 5.71405 8.35112 6.15917 8.67931 6.48736C9.0075 6.81554 9.45262 6.99992 9.91675 6.99992C10.3809 6.99992 10.826 6.81554 11.1542 6.48736C11.4824 6.15917 11.6667 5.71405 11.6667 5.24992C11.6667 4.78579 11.4824 4.34067 11.1542 4.01248C10.826 3.68429 10.3809 3.49992 9.91675 3.49992ZM8.31141 11.1054C8.7215 11.2717 9.24708 11.3749 9.91733 11.3749C11.2485 11.3749 12.0092 10.9683 12.4239 10.4661C12.6252 10.2223 12.7272 9.97609 12.7797 9.78767C12.8098 9.67853 12.828 9.56646 12.834 9.45342V9.43767C12.8338 9.1006 12.6999 8.77739 12.4615 8.53905C12.2232 8.30071 11.9 8.16674 11.5629 8.16659H8.27175C8.25541 8.16659 8.23947 8.16697 8.22391 8.16775C8.45375 8.40692 8.62058 8.70734 8.69991 9.04159H11.5629C11.7799 9.04159 11.9561 9.216 11.959 9.43184L11.9572 9.4505C11.9549 9.47306 11.9477 9.50806 11.9357 9.5555C11.8996 9.68523 11.8359 9.80562 11.749 9.90842C11.5448 10.1569 11.0653 10.4999 9.91733 10.4999C9.34566 10.4999 8.93966 10.4148 8.6515 10.2987C8.5885 10.532 8.48466 10.8138 8.31141 11.1054ZM2.47925 8.16659C2.13115 8.16659 1.79731 8.30487 1.55117 8.55101C1.30503 8.79715 1.16675 9.13099 1.16675 9.47909V9.64125C1.16736 9.68181 1.17009 9.72231 1.17491 9.76259C1.2234 10.1966 1.37939 10.6116 1.62875 10.9701C2.10591 11.6514 3.01708 12.2499 4.66675 12.2499C6.31641 12.2499 7.22758 11.652 7.70475 10.9695C7.95411 10.611 8.1101 10.196 8.15858 9.762C8.16269 9.72186 8.16542 9.68158 8.16675 9.64125V9.47909C8.16675 9.13099 8.02847 8.79715 7.78233 8.55101C7.53618 8.30487 7.20234 8.16659 6.85425 8.16659H2.47925ZM2.04175 9.629V9.47909C2.04175 9.36305 2.08784 9.25177 2.16989 9.16973C2.25194 9.08768 2.36322 9.04159 2.47925 9.04159H6.85425C6.97028 9.04159 7.08156 9.08768 7.16361 9.16973C7.24565 9.25177 7.29175 9.36305 7.29175 9.47909V9.629L7.28766 9.67567C7.25409 9.96029 7.15113 10.2323 6.98783 10.4678C6.70025 10.8791 6.07958 11.3749 4.66675 11.3749C3.25391 11.3749 2.63325 10.8791 2.34508 10.4678C2.18199 10.2323 2.07923 9.96024 2.04583 9.67567L2.04175 9.629Z" fill="#121212"/>
</svg>
