<svg width="24" height="24" viewBox="0 0 24 24" fill="none" xmlns="http://www.w3.org/2000/svg">
<path d="M12 4.50005C10.4693 4.50031 8.97535 4.96893 7.71873 5.84297C6.46212 6.71701 5.50303 7.95462 4.97026 9.3896C4.43749 10.8246 4.35654 12.3882 4.7383 13.8705C5.12005 15.3529 5.94623 16.6829 7.10588 17.682C8.26552 18.6811 9.70311 19.3015 11.2256 19.4598C12.7481 19.6181 14.2826 19.3068 15.623 18.5677C16.9634 17.8285 18.0455 16.6969 18.7241 15.3249C19.4026 13.9528 19.6451 12.4059 19.419 10.892C19.352 10.438 19.684 10 20.143 10C20.513 10 20.839 10.256 20.895 10.623C20.965 11.0724 21 11.5314 21 12C21.0001 14.0608 20.2929 16.0591 18.9968 17.6611C17.7006 19.2631 15.894 20.3718 13.8786 20.802C11.8633 21.2321 9.76144 20.9577 7.92416 20.0244C6.08689 19.0912 4.62551 17.5557 3.78421 15.6746C2.94291 13.7934 2.77264 11.6805 3.30185 9.68894C3.83107 7.69735 5.02771 5.94768 6.69183 4.73228C8.35596 3.51689 10.3868 2.90937 12.445 3.01126C14.5032 3.11314 16.464 3.91824 18 5.29205V4.25005C18 4.05113 18.079 3.86037 18.2197 3.71972C18.3603 3.57906 18.5511 3.50005 18.75 3.50005C18.9489 3.50005 19.1397 3.57906 19.2803 3.71972C19.421 3.86037 19.5 4.05113 19.5 4.25005V7.25005C19.5 7.44896 19.421 7.63972 19.2803 7.78038C19.1397 7.92103 18.9489 8.00005 18.75 8.00005H15.75C15.5511 8.00005 15.3603 7.92103 15.2197 7.78038C15.079 7.63972 15 7.44896 15 7.25005C15 7.05113 15.079 6.86037 15.2197 6.71972C15.3603 6.57906 15.5511 6.50005 15.75 6.50005H17.1C15.7146 5.21159 13.8919 4.49682 12 4.50005Z" fill="#121212"/>
</svg>
