<svg width="24" height="24" viewBox="0 0 24 24" fill="none" xmlns="http://www.w3.org/2000/svg">
<path d="M12 4.4998C10.4693 4.50007 8.97535 4.96868 7.71873 5.84272C6.46212 6.71676 5.50303 7.95437 4.97026 9.38935C4.43749 10.8243 4.35654 12.388 4.7383 13.8703C5.12005 15.3526 5.94623 16.6827 7.10588 17.6818C8.26552 18.6809 9.70311 19.3013 11.2256 19.4596C12.7481 19.6179 14.2826 19.3066 15.623 18.5674C16.9634 17.8283 18.0455 16.6967 18.7241 15.3246C19.4026 13.9525 19.6451 12.4057 19.419 10.8918C19.352 10.4378 19.684 9.9998 20.143 9.9998C20.513 9.9998 20.839 10.2558 20.895 10.6228C20.965 11.0721 21 11.5311 21 11.9998C21.0001 14.0605 20.2929 16.0588 18.9968 17.6609C17.7006 19.2629 15.894 20.3716 13.8786 20.8018C11.8633 21.2319 9.76144 20.9574 7.92416 20.0242C6.08689 19.091 4.62551 17.5555 3.78421 15.6743C2.94291 13.7932 2.77264 11.6803 3.30185 9.6887C3.83107 7.69711 5.02771 5.94744 6.69183 4.73204C8.35596 3.51664 10.3868 2.90913 12.445 3.01101C14.5032 3.11289 16.464 3.918 18 5.2918V4.2498C18 4.05089 18.079 3.86012 18.2197 3.71947C18.3603 3.57882 18.5511 3.4998 18.75 3.4998C18.9489 3.4998 19.1397 3.57882 19.2803 3.71947C19.421 3.86012 19.5 4.05089 19.5 4.2498V7.2498C19.5 7.44871 19.421 7.63948 19.2803 7.78013C19.1397 7.92078 18.9489 7.9998 18.75 7.9998H15.75C15.5511 7.9998 15.3603 7.92078 15.2197 7.78013C15.079 7.63948 15 7.44871 15 7.2498C15 7.05089 15.079 6.86012 15.2197 6.71947C15.3603 6.57882 15.5511 6.4998 15.75 6.4998H17.1C15.7146 5.21135 13.8919 4.49657 12 4.4998Z" fill="#C0C4CD"/>
</svg>
