<svg width="33" height="32" viewBox="0 0 33 32" fill="none" xmlns="http://www.w3.org/2000/svg">
<path d="M6.36223 6.07453L6.45956 5.96253C6.62888 5.79317 6.85335 5.6902 7.09216 5.67234C7.33097 5.65448 7.56827 5.72291 7.76089 5.86519L7.87289 5.96253L16.4996 14.5879L25.1262 5.96119C25.2185 5.86573 25.3289 5.7896 25.4509 5.73725C25.573 5.6849 25.7042 5.65737 25.837 5.65628C25.9697 5.65519 26.1014 5.68056 26.2243 5.7309C26.3472 5.78123 26.4588 5.85554 26.5526 5.94948C26.6465 6.04341 26.7207 6.1551 26.7709 6.27802C26.8211 6.40094 26.8464 6.53263 26.8451 6.66541C26.8439 6.79819 26.8163 6.92939 26.7638 7.05137C26.7113 7.17335 26.6351 7.28366 26.5396 7.37586L17.9142 16.0025L26.5409 24.6292C26.7101 24.7987 26.8128 25.0232 26.8304 25.262C26.848 25.5009 26.7793 25.7381 26.6369 25.9305L26.5396 26.0425C26.3702 26.2119 26.1458 26.3149 25.907 26.3327C25.6681 26.3506 25.4309 26.2821 25.2382 26.1399L25.1262 26.0425L16.4996 17.4172L7.87289 26.0439C7.68421 26.2259 7.43155 26.3266 7.16936 26.3242C6.90716 26.3218 6.6564 26.2165 6.47108 26.031C6.28575 25.8455 6.1807 25.5947 6.17855 25.3325C6.1764 25.0703 6.27731 24.8177 6.45956 24.6292L15.0849 16.0025L6.45823 7.37586C6.28907 7.20638 6.18634 6.98182 6.16873 6.74301C6.15111 6.5042 6.21977 6.267 6.36223 6.07453Z" fill="#F62D2D"/>
</svg>
