<svg width="24" height="24" viewBox="0 0 24 24" fill="none" xmlns="http://www.w3.org/2000/svg">
<path d="M14.1941 12.0001L8.80516 6.47617C8.76079 6.43165 8.72571 6.3788 8.70196 6.32067C8.6782 6.26255 8.66624 6.2003 8.66676 6.13753C8.66729 6.07476 8.68028 6.01272 8.70501 5.955C8.72973 5.89727 8.76568 5.84501 8.81078 5.80123C8.85588 5.75746 8.90924 5.72304 8.96777 5.69997C9.02629 5.6769 9.08883 5.66564 9.15175 5.66683C9.21467 5.66803 9.27672 5.68166 9.33433 5.70693C9.39193 5.73221 9.44394 5.76863 9.48734 5.81408L15.1986 11.669C15.285 11.7577 15.3334 11.8764 15.3334 12.0001C15.3334 12.1237 15.285 12.2425 15.1986 12.3311L9.48734 18.1861C9.44394 18.2315 9.39193 18.268 9.33433 18.2932C9.27672 18.3185 9.21467 18.3321 9.15175 18.3333C9.08883 18.3345 9.02629 18.3233 8.96777 18.3002C8.90924 18.2771 8.85588 18.2427 8.81078 18.1989C8.76568 18.1552 8.72973 18.1029 8.70501 18.0452C8.68028 17.9874 8.66729 17.9254 8.66676 17.8626C8.66624 17.7999 8.6782 17.7376 8.70196 17.6795C8.72571 17.6214 8.76079 17.5685 8.80516 17.524L14.1941 12.0001Z" fill="#121212"/>
</svg>
