<svg width="24" height="24" viewBox="0 0 24 24" fill="none" xmlns="http://www.w3.org/2000/svg">
<path d="M15.102 16.162C13.5177 17.4737 11.4892 18.1248 9.43749 17.9802C7.3858 17.8356 5.46864 16.9063 4.08408 15.3853C2.69952 13.8644 1.95396 11.8686 2.0022 9.81236C2.05045 7.75615 2.88879 5.79751 4.34315 4.34315C5.79751 2.88879 7.75615 2.05045 9.81236 2.0022C11.8686 1.95396 13.8644 2.69952 15.3853 4.08408C16.9063 5.46864 17.8356 7.3858 17.9802 9.43749C18.1248 11.4892 17.4737 13.5177 16.162 15.102L20.78 19.72C20.8537 19.7886 20.9128 19.8714 20.9538 19.9634C20.9947 20.0554 21.0168 20.1547 21.0186 20.2555C21.0203 20.3562 21.0018 20.4562 20.9641 20.5496C20.9264 20.643 20.8702 20.7278 20.799 20.799C20.7278 20.8702 20.643 20.9264 20.5496 20.9641C20.4562 21.0018 20.3562 21.0203 20.2555 21.0186C20.1547 21.0168 20.0554 20.9947 19.9634 20.9538C19.8714 20.9128 19.7886 20.8537 19.72 20.78L15.102 16.162ZM16.5 9.99997C16.5 8.27607 15.8152 6.62277 14.5962 5.40378C13.3772 4.18479 11.7239 3.49997 9.99997 3.49997C8.27607 3.49997 6.62277 4.18479 5.40378 5.40378C4.18479 6.62277 3.49997 8.27607 3.49997 9.99997C3.49997 11.7239 4.18479 13.3772 5.40378 14.5962C6.62277 15.8152 8.27607 16.5 9.99997 16.5C11.7239 16.5 13.3772 15.8152 14.5962 14.5962C15.8152 13.3772 16.5 11.7239 16.5 9.99997Z" fill="#121212"/>
</svg>
