<svg width="24" height="24" viewBox="0 0 24 24" fill="none" xmlns="http://www.w3.org/2000/svg">
<path d="M12.0134 1.75C12.785 1.75841 13.5535 1.84777 14.3073 2.01597C14.4677 2.05177 14.6128 2.13677 14.7225 2.2591C14.8322 2.38142 14.901 2.53496 14.9191 2.69826L15.0979 4.30357C15.1231 4.52989 15.2011 4.74714 15.3256 4.93782C15.4501 5.12849 15.6176 5.28729 15.8147 5.40141C16.0118 5.51554 16.2329 5.58182 16.4602 5.59491C16.6876 5.60801 16.9148 5.56755 17.1237 5.4768L18.5955 4.83026C18.745 4.7644 18.9113 4.74662 19.0714 4.77939C19.2315 4.81216 19.3774 4.89386 19.4891 5.01319C20.553 6.14979 21.3456 7.51275 21.8071 8.99966C21.8554 9.15602 21.8538 9.32352 21.8025 9.47892C21.7513 9.63433 21.653 9.76994 21.5212 9.86697L20.2166 10.8299C20.0327 10.9647 19.8833 11.1408 19.7802 11.3441C19.6772 11.5474 19.6235 11.7721 19.6235 12C19.6235 12.2279 19.6772 12.4526 19.7802 12.6559C19.8833 12.8592 20.0327 13.0354 20.2166 13.1701L21.5233 14.132C21.6553 14.2291 21.7537 14.3649 21.805 14.5205C21.8562 14.6762 21.8577 14.8439 21.8093 15.0004C21.348 16.4872 20.5558 17.8501 19.4922 18.9869C19.3808 19.1061 19.2351 19.1879 19.0752 19.2208C18.9154 19.2538 18.7492 19.2363 18.5997 19.1708L17.1216 18.5222C16.913 18.4307 16.6858 18.3897 16.4584 18.4023C16.231 18.415 16.0098 18.481 15.8126 18.595C15.6155 18.709 15.4479 18.8679 15.3236 19.0587C15.1992 19.2495 15.1215 19.4669 15.0968 19.6933L14.9181 21.2976C14.9002 21.459 14.833 21.6109 14.7256 21.7326C14.6181 21.8544 14.4757 21.94 14.3178 21.9778C12.7952 22.3407 11.2085 22.3407 9.68584 21.9778C9.52773 21.9402 9.3851 21.8547 9.27745 21.7329C9.16981 21.6111 9.10242 21.4591 9.08451 21.2976L8.90684 19.6954C8.88104 19.4697 8.80266 19.2532 8.67802 19.0633C8.55337 18.8734 8.38592 18.7153 8.18912 18.6018C7.99233 18.4884 7.77166 18.4226 7.54484 18.4099C7.31803 18.3971 7.09139 18.4378 6.88312 18.5285L5.40502 19.1761C5.25537 19.2418 5.089 19.2594 4.92891 19.2265C4.76882 19.1935 4.62293 19.1116 4.51142 18.9921C3.44766 17.8541 2.65581 16.4896 2.19544 15.0014C2.14698 14.8449 2.14847 14.6772 2.19972 14.5216C2.25096 14.366 2.34942 14.2302 2.48139 14.1331L3.78814 13.1701C3.97195 13.0354 4.12144 12.8592 4.22448 12.6559C4.32751 12.4526 4.38121 12.2279 4.38121 12C4.38121 11.7721 4.32751 11.5474 4.22448 11.3441C4.12144 11.1408 3.97195 10.9647 3.78814 10.8299L2.48139 9.86907C2.34942 9.77198 2.25096 9.63619 2.19972 9.48056C2.14847 9.32494 2.14698 9.15722 2.19544 9.00071C2.657 7.5138 3.44955 6.15084 4.51353 5.01424C4.62516 4.89491 4.7711 4.81322 4.93119 4.78045C5.09127 4.74768 5.25758 4.76545 5.40712 4.83131L6.87892 5.47785C7.08814 5.56855 7.31572 5.60891 7.54338 5.59569C7.77103 5.58247 7.99241 5.51604 8.18973 5.40174C8.38705 5.28743 8.55482 5.12844 8.67954 4.93754C8.80427 4.74663 8.88248 4.52913 8.90789 4.30252L9.08661 2.69826C9.10465 2.53463 9.17345 2.38075 9.28337 2.25821C9.39329 2.13566 9.5388 2.05059 9.69951 2.01492C10.4522 1.84812 11.2235 1.75981 12.0134 1.75ZM12.0134 3.32693C11.5365 3.33199 11.0607 3.37311 10.5899 3.44993L10.4743 4.47703C10.4217 4.94938 10.2589 5.40276 9.99896 5.80065C9.73903 6.19853 9.38926 6.52979 8.97785 6.76772C8.56643 7.00565 8.10487 7.1436 7.63036 7.17045C7.15586 7.19731 6.68168 7.11231 6.24604 6.92232L5.30094 6.50811C4.70017 7.23766 4.22192 8.05996 3.88486 8.94289L4.72273 9.55999C5.10588 9.84117 5.41746 10.2086 5.63225 10.6325C5.84705 11.0565 5.95903 11.525 5.95913 12.0003C5.95923 12.4755 5.84745 12.9441 5.63284 13.3682C5.41823 13.7922 5.10681 14.1598 4.72378 14.4411L3.88381 15.0593C4.22022 15.9444 4.6996 16.7686 5.30094 17.5003L6.25235 17.083C6.68705 16.8932 7.16023 16.8081 7.63381 16.8346C8.1074 16.8611 8.56815 16.9984 8.97898 17.2354C9.38981 17.4725 9.73924 17.8027 9.99914 18.1995C10.259 18.5963 10.4222 19.0485 10.4754 19.5199L10.5899 20.5543C11.5256 20.712 12.4812 20.712 13.4158 20.5543L13.5314 19.5199C13.5836 19.0478 13.746 18.5947 14.0056 18.197C14.2652 17.7993 14.6147 17.4683 15.0259 17.2307C15.4371 16.9931 15.8984 16.8555 16.3726 16.8291C16.8468 16.8027 17.3205 16.8883 17.7555 17.0788L18.7059 17.4951C19.3072 16.765 19.7858 15.9419 20.123 15.0582L19.2841 14.4401C18.9009 14.1589 18.5893 13.7914 18.3745 13.3675C18.1598 12.9436 18.0478 12.475 18.0477 11.9998C18.0476 11.5245 18.1593 11.0559 18.374 10.6319C18.5886 10.2078 18.9 9.84028 19.283 9.55894L20.1209 8.94183C19.7836 8.05847 19.305 7.2358 18.7038 6.50601L17.7608 6.91916C17.3253 7.10981 16.851 7.19538 16.3764 7.16897C15.9017 7.14255 15.4399 7.00488 15.0283 6.76708C14.6166 6.52928 14.2667 6.19801 14.0066 5.80002C13.7466 5.40203 13.5838 4.94848 13.5314 4.47598L13.4169 3.44993C12.9531 3.37416 12.4833 3.33304 12.0134 3.32693ZM12.0008 8.0577C13.0463 8.0577 14.0491 8.47305 14.7884 9.21238C15.5277 9.95171 15.9431 10.9545 15.9431 12C15.9431 13.0456 15.5277 14.0483 14.7884 14.7877C14.0491 15.527 13.0463 15.9423 12.0008 15.9423C10.9552 15.9423 9.95246 15.527 9.21313 14.7877C8.47381 14.0483 8.05846 13.0456 8.05846 12C8.05846 10.9545 8.47381 9.95171 9.21313 9.21238C9.95246 8.47305 10.9552 8.05771 12.0008 8.0577ZM12.0008 9.63463C11.3734 9.63463 10.7718 9.88384 10.3282 10.3274C9.88459 10.771 9.63538 11.3727 9.63538 12C9.63538 12.6274 9.88459 13.229 10.3282 13.6726C10.7718 14.1162 11.3734 14.3654 12.0008 14.3654C12.6281 14.3654 13.2298 14.1162 13.6734 13.6726C14.117 13.229 14.3662 12.6274 14.3662 12C14.3662 11.3727 14.117 10.771 13.6734 10.3274C13.2298 9.88384 12.6281 9.63463 12.0008 9.63463Z" fill="#121212"/>
</svg>
