<svg width="24" height="24" viewBox="0 0 24 24" fill="none" xmlns="http://www.w3.org/2000/svg">
<path d="M10.788 3.1021C11.283 2.0991 12.714 2.0991 13.209 3.1021L15.567 7.8801L20.84 8.6461C21.947 8.8061 22.389 10.1681 21.588 10.9491L17.772 14.6681L18.673 19.9181C18.863 21.0221 17.705 21.8631 16.714 21.3421L11.998 18.8621L7.28303 21.3421C6.29303 21.8621 5.13503 21.0221 5.32303 19.9191L6.22403 14.6681L2.40903 10.9481C1.60803 10.1681 2.05003 8.8071 3.15703 8.6461L8.43003 7.8801L10.788 3.1021ZM11.998 4.0391L9.74003 8.6141C9.64327 8.81041 9.50023 8.98025 9.32323 9.10899C9.14624 9.23773 8.9406 9.32151 8.72403 9.3531L3.67403 10.0871L7.32803 13.6491C7.64603 13.9591 7.79103 14.4061 7.71603 14.8441L6.85403 19.8731L11.37 17.4981C11.5638 17.3962 11.7795 17.3429 11.9985 17.3429C12.2175 17.3429 12.4332 17.3962 12.627 17.4981L17.143 19.8731L16.281 14.8431C16.2442 14.6275 16.2602 14.4062 16.3278 14.1983C16.3954 13.9903 16.5125 13.8018 16.669 13.6491L20.323 10.0871L15.273 9.3531C15.0565 9.32151 14.8508 9.23773 14.6738 9.10899C14.4968 8.98025 14.3538 8.81041 14.257 8.6141L11.998 4.0391Z" fill="#121212"/>
</svg>
