<svg width="24" height="24" viewBox="0 0 24 24" fill="none" xmlns="http://www.w3.org/2000/svg">
<path d="M10.788 3.10381C11.283 2.10081 12.714 2.10081 13.209 3.10381L15.567 7.88181L20.84 8.64781C21.947 8.80781 22.389 10.1698 21.588 10.9508L17.772 14.6698L18.673 19.9198C18.863 21.0238 17.705 21.8648 16.714 21.3438L11.998 18.8638L7.28303 21.3438C6.29303 21.8638 5.13503 21.0238 5.32303 19.9208L6.22403 14.6698L2.40903 10.9498C1.60803 10.1698 2.05003 8.80881 3.15703 8.64781L8.43003 7.88181L10.788 3.10381ZM11.998 4.04081L9.74003 8.61581C9.64327 8.81212 9.50023 8.98196 9.32323 9.1107C9.14624 9.23944 8.9406 9.32322 8.72403 9.35481L3.67403 10.0888L7.32803 13.6508C7.64603 13.9608 7.79103 14.4078 7.71603 14.8458L6.85403 19.8748L11.37 17.4998C11.5638 17.3979 11.7795 17.3446 11.9985 17.3446C12.2175 17.3446 12.4332 17.3979 12.627 17.4998L17.143 19.8748L16.281 14.8448C16.2442 14.6292 16.2602 14.408 16.3278 14.2C16.3954 13.992 16.5125 13.8035 16.669 13.6508L20.323 10.0888L15.273 9.35481C15.0565 9.32322 14.8508 9.23944 14.6738 9.1107C14.4968 8.98196 14.3538 8.81212 14.257 8.61581L11.998 4.04081Z" fill="#121212"/>
</svg>
