<svg width="24" height="24" viewBox="0 0 24 24" fill="none" xmlns="http://www.w3.org/2000/svg">
<path d="M11.3139 15.4999C11.4849 14.9717 11.7228 14.4676 12.0219 13.9999H5.25191C4.65586 14.0005 4.08438 14.2375 3.66292 14.6589C3.24145 15.0804 3.00444 15.6519 3.00391 16.2479V16.8259C3.00391 17.7179 3.32191 18.5819 3.90191 19.2609C5.46791 21.0949 7.85391 21.9999 10.9999 21.9999C11.5999 21.9999 12.1722 21.9666 12.7169 21.8999C12.3237 21.4734 11.9894 20.9962 11.7229 20.4809C11.4882 20.4929 11.2472 20.4989 10.9999 20.4989C8.26191 20.4989 6.29591 19.7539 5.04291 18.2859C4.6947 17.8788 4.50322 17.3607 4.50291 16.8249V16.2469C4.50317 16.0482 4.58231 15.8577 4.72293 15.7172C4.86355 15.5768 5.05417 15.4979 5.25291 15.4979L11.3139 15.4999ZM10.9999 2.00293C12.326 2.00293 13.5978 2.52971 14.5354 3.4674C15.4731 4.40508 15.9999 5.67685 15.9999 7.00293C15.9999 8.32901 15.4731 9.60078 14.5354 10.5385C13.5978 11.4761 12.326 12.0029 10.9999 12.0029C9.67382 12.0029 8.40205 11.4761 7.46437 10.5385C6.52669 9.60078 5.99991 8.32901 5.99991 7.00293C5.99991 5.67685 6.52669 4.40508 7.46437 3.4674C8.40205 2.52971 9.67382 2.00293 10.9999 2.00293ZM10.9999 3.50293C10.0716 3.50293 9.18141 3.87168 8.52503 4.52806C7.86866 5.18443 7.49991 6.07467 7.49991 7.00293C7.49991 7.93119 7.86866 8.82143 8.52503 9.4778C9.18141 10.1342 10.0716 10.5029 10.9999 10.5029C11.9282 10.5029 12.8184 10.1342 13.4748 9.4778C14.1312 8.82143 14.4999 7.93119 14.4999 7.00293C14.4999 6.07467 14.1312 5.18443 13.4748 4.52806C12.8184 3.87168 11.9282 3.50293 10.9999 3.50293ZM22.9999 17.4999C22.9999 18.9586 22.4204 20.3576 21.389 21.389C20.3575 22.4205 18.9586 22.9999 17.4999 22.9999C16.0412 22.9999 14.6423 22.4205 13.6108 21.389C12.5794 20.3576 11.9999 18.9586 11.9999 17.4999C11.9999 16.0412 12.5794 14.6423 13.6108 13.6108C14.6423 12.5794 16.0412 11.9999 17.4999 11.9999C18.9586 11.9999 20.3575 12.5794 21.389 13.6108C22.4204 14.6423 22.9999 16.0412 22.9999 17.4999ZM13.9999 17.4999C13.9999 17.6325 14.0526 17.7597 14.1464 17.8535C14.2401 17.9473 14.3673 17.9999 14.4999 17.9999H20.4999C20.6325 17.9999 20.7597 17.9473 20.8535 17.8535C20.9472 17.7597 20.9999 17.6325 20.9999 17.4999C20.9999 17.3673 20.9472 17.2401 20.8535 17.1464C20.7597 17.0526 20.6325 16.9999 20.4999 16.9999H14.4999C14.3673 16.9999 14.2401 17.0526 14.1464 17.1464C14.0526 17.2401 13.9999 17.3673 13.9999 17.4999Z" fill="#F62D2D"/>
</svg>
