<svg width="24" height="24" viewBox="0 0 24 24" fill="none" xmlns="http://www.w3.org/2000/svg">
<path d="M4.52985 12.9701C4.38767 12.8376 4.19963 12.7655 4.00532 12.7689C3.81102 12.7723 3.62564 12.8511 3.48822 12.9885C3.35081 13.1259 3.2721 13.3113 3.26867 13.5056C3.26524 13.6999 3.33737 13.8879 3.46985 14.0301L7.96985 18.5301C8.11047 18.6705 8.3011 18.7494 8.49985 18.7494C8.6986 18.7494 8.88922 18.6705 9.02985 18.5301L20.0298 7.53009C20.1623 7.38792 20.2344 7.19987 20.231 7.00557C20.2276 6.81127 20.1489 6.62588 20.0115 6.48847C19.8741 6.35106 19.6887 6.27234 19.4944 6.26892C19.3001 6.26549 19.112 6.33761 18.9698 6.47009L8.49985 16.9401L4.52985 12.9701Z" fill="#1ABB65"/>
</svg>
