<svg width="24" height="24" viewBox="0 0 24 24" fill="none" xmlns="http://www.w3.org/2000/svg">
<path d="M4.20902 10.733C4.07777 10.878 4.00838 11.0686 4.01566 11.2641C4.02293 11.4596 4.1063 11.6445 4.24797 11.7794C4.38964 11.9143 4.57841 11.9885 4.77402 11.9862C4.96962 11.9839 5.15658 11.9052 5.29502 11.767L11.249 5.516V20.25C11.249 20.4489 11.328 20.6397 11.4687 20.7803C11.6093 20.921 11.8001 21 11.999 21C12.1979 21 12.3887 20.921 12.5293 20.7803C12.67 20.6397 12.749 20.4489 12.749 20.25V5.516L18.704 11.767C18.7719 11.8384 18.8532 11.8957 18.9432 11.9356C19.0333 11.9756 19.1303 11.9974 19.2288 11.9999C19.3273 12.0023 19.4253 11.9854 19.5172 11.95C19.6091 11.9146 19.6931 11.8614 19.7645 11.7935C19.8359 11.7256 19.8932 11.6443 19.9332 11.5543C19.9731 11.4642 19.9949 11.3672 19.9974 11.2687C19.9999 11.1703 19.9829 11.0723 19.9475 10.9803C19.9121 10.8884 19.8589 10.8044 19.791 10.733L12.724 3.313C12.5697 3.15092 12.3655 3.04528 12.144 3.013C12.0481 2.99566 11.9498 2.996 11.854 3.014C11.6333 3.04671 11.4298 3.15231 11.276 3.314L4.20902 10.733Z" fill="#121212"/>
</svg>
