<svg width="80" height="80" viewBox="0 0 80 80" fill="none" xmlns="http://www.w3.org/2000/svg">
<path d="M43.6218 27.8348C43.7814 28.2072 43.8613 28.3933 43.8328 28.5433C43.8079 28.6745 43.7316 28.7902 43.6209 28.8647C43.4942 28.95 43.2917 28.95 42.8865 28.95H35.9998C35.8391 28.95 35.7588 28.95 35.6863 28.9275C35.6221 28.9075 35.5625 28.8748 35.5113 28.8312C35.4533 28.7821 35.4103 28.7143 35.3243 28.5787L23.6995 10.2587C23.4454 9.85809 23.3183 9.65781 23.3308 9.49235C23.3417 9.34814 23.4145 9.21571 23.5304 9.12924C23.6634 9.03003 23.9006 9.03003 24.375 9.03003H35.0325C35.2232 9.03003 35.3186 9.03003 35.4016 9.0603C35.4749 9.08705 35.541 9.13061 35.5945 9.18748C35.655 9.25182 35.6926 9.33948 35.7678 9.5148L43.6218 27.8348Z" fill="#FFE081"/>
<path d="M43.4597 28.95H36.1897L24.1797 9.03003H34.6097L43.4597 28.95Z" fill="#0A7456"/>
<g filter="url(#filter0_d_5353_59867)">
<path fill-rule="evenodd" clip-rule="evenodd" d="M47.45 31.37C47.5 31.14 47.52 30.9 47.52 30.65C47.52 28.39 45.68 26.55 43.42 26.55H36.58C34.32 26.55 32.48 28.39 32.48 30.65C32.48 30.9 32.5 31.14 32.55 31.37C24.91 34.35 19.5 41.78 19.5 50.47C19.5 61.79 28.68 70.97 40 70.97C51.32 70.97 60.5 61.79 60.5 50.47C60.5 41.78 55.09 34.35 47.45 31.37ZM45.8 30.81C43.96 30.26 42.01 29.97 40 29.97C37.99 29.97 36.04 30.26 34.2 30.81C34.19 30.76 34.19 30.7 34.19 30.65C34.19 29.33 35.26 28.26 36.58 28.26H43.42C44.74 28.26 45.81 29.33 45.81 30.65C45.81 30.7 45.81 30.76 45.8 30.81Z" fill="#CCEDD5"/>
</g>
<path opacity="0.08" d="M40 70.97C51.3218 70.97 60.5 61.7918 60.5 50.47C60.5 39.1481 51.3218 29.97 40 29.97C28.6782 29.97 19.5 39.1481 19.5 50.47C19.5 61.7918 28.6782 70.97 40 70.97Z" fill="url(#paint0_radial_5353_59867)"/>
<g opacity="0.3">
<path d="M40 31.67C50.37 31.67 58.8 40.1 58.8 50.47C58.8 60.84 50.37 69.27 40 69.27C29.63 69.27 21.2 60.84 21.2 50.47C21.2 40.1 29.63 31.67 40 31.67ZM40 30.47C28.95 30.47 20 39.42 20 50.47C20 61.52 28.95 70.47 40 70.47C51.05 70.47 60 61.52 60 50.47C60 39.42 51.05 30.47 40 30.47Z" fill="white"/>
</g>
<path opacity="0.12" d="M52.1001 55.4C52.5001 55.34 52.6501 55.08 52.8601 54.91C53.8901 54.04 55.0701 53.44 56.3101 52.93C56.4401 52.88 56.6101 52.85 56.6901 53C56.7301 53.07 56.6901 53.21 56.6501 53.3C55.5501 55.45 53.9101 56.99 51.5501 57.63C51.1801 57.73 50.9001 57.87 50.6701 58.17C50.3201 58.62 49.9501 59.05 49.5801 59.5C49.8201 59.66 49.9801 59.56 50.1401 59.5C50.9801 59.17 51.8501 58.95 52.7501 58.84C53.1801 58.79 53.6101 58.78 54.0401 58.77C54.1701 58.77 54.3401 58.74 54.4201 58.9C54.5201 59.11 54.3401 59.22 54.2301 59.35C54.1801 59.41 54.1301 59.45 54.0701 59.5C52.3601 60.97 50.4101 61.75 48.1401 61.62C47.7601 61.6 47.4401 61.62 47.1401 61.86C46.6401 62.25 46.0501 62.5 45.3801 63.02C46.8201 63.11 48.0701 63.2 49.1901 63.79C49.4701 63.94 49.7801 64.04 49.9601 64.27C49.9901 64.53 49.8201 64.54 49.6901 64.58C49.2101 64.72 48.7201 64.86 48.2301 64.97C47.0001 65.22 45.8001 65.13 44.6301 64.66C44.0601 64.43 43.5001 64.13 42.9101 64.06C42.3601 64 41.7801 64.21 41.2101 64.28C40.0201 64.42 38.8401 64.34 37.6701 64.12C37.1901 64.03 36.7501 64.04 36.3301 64.29C36.2101 64.36 36.0601 64.39 35.9301 64.45C34.0601 65.32 32.1701 65.24 30.2601 64.57C30.1701 64.54 30.0601 64.48 30.0301 64.4C29.9801 64.29 30.0801 64.2 30.1701 64.14C30.9201 63.69 31.7101 63.36 32.5701 63.22C33.1701 63.12 33.7801 63.07 34.3601 63.1C34.4701 62.86 34.3301 62.79 34.2201 62.72C33.9101 62.53 33.5801 62.38 33.3001 62.16C32.7401 61.69 32.1301 61.63 31.4101 61.64C29.2301 61.65 27.3501 60.84 25.7501 59.36C25.6701 59.29 25.6101 59.2 25.5401 59.11C25.4601 59 25.5501 58.8 25.6901 58.79C26.6301 58.7 27.5601 58.85 28.4601 59.08C29.0401 59.23 29.6201 59.41 30.1801 59.58C30.3201 59.38 30.2101 59.27 30.1201 59.17C29.8501 58.83 29.5501 58.52 29.3001 58.17C29.0701 57.85 28.7801 57.74 28.4201 57.64C26.0201 56.97 24.3701 55.4 23.2901 53.2C23.2601 53.14 23.2501 53.02 23.2801 53C23.3701 52.95 23.4901 52.89 23.5701 52.92C24.7901 53.37 25.9401 53.96 26.9601 54.78C27.2301 55 27.4401 55.31 27.8901 55.44C27.6701 54.56 27.3301 53.77 27.0801 52.95C27.0101 52.72 26.8201 52.63 26.6301 52.52C24.7801 51.47 23.6701 49.84 23.0801 47.83C23.0301 47.66 22.9801 47.48 22.9601 47.31C22.9401 47.17 22.8701 47 23.0001 46.9C23.1801 46.76 23.3301 46.92 23.4701 47.02C24.6401 47.81 25.7001 48.72 26.3501 50.02C26.3901 50.11 26.4301 50.23 26.6301 50.21C26.6701 49.73 26.7101 49.24 26.7401 48.75C26.7601 48.52 26.6201 48.35 26.4801 48.18C25.0701 46.41 24.9301 44.37 25.2001 42.24C25.2001 42.2 25.2101 42.17 25.2201 42.13C25.2601 42 25.2801 41.83 25.4501 41.83C25.5401 41.83 25.6501 41.92 25.7101 41.99C26.4701 42.94 26.9201 44.02 27.0901 45.22C27.1301 45.45 27.0301 45.71 27.2201 45.91C27.4701 45.89 27.4801 45.68 27.5601 45.53C27.9801 44.7 28.3801 43.85 28.8201 43.02C29.6201 41.49 30.7601 40.26 32.2201 39.34C32.3701 39.25 32.5301 39.17 32.7001 39.11C32.8401 39.06 32.9101 39.18 32.9001 39.28C32.8801 39.45 32.8201 39.63 32.7501 39.79C31.8701 41.85 30.6201 43.62 28.7301 44.88C28.5501 45 28.3601 45.11 28.2601 45.31C27.8101 46.2 27.3601 47.1 27.2901 48.14C27.5701 48.16 27.6001 47.96 27.6801 47.83C28.1801 46.99 28.7501 46.21 29.4801 45.55C29.5601 45.48 29.6401 45.41 29.7601 45.47C29.8801 45.53 29.8701 45.64 29.8701 45.74C29.8501 48.07 29.3401 50.23 27.7601 52.04C27.5801 52.24 27.4501 52.44 27.5301 52.72C27.8401 53.9 28.2501 55.04 28.8501 56.14C29.1201 55.94 28.9601 55.73 28.9501 55.55C28.9301 55.3 28.8601 55.05 28.8301 54.8C28.8101 54.59 28.8001 54.37 28.8001 54.15C28.8001 53.9 28.8001 53.65 28.8101 53.39C28.8201 53.18 28.8601 52.96 28.8901 52.75C28.9201 52.54 28.9601 52.32 29.0101 52.11C29.0701 51.87 29.1301 51.62 29.1901 51.38C29.2401 51.18 29.2501 50.95 29.5101 50.87C29.5401 50.89 29.5801 50.9 29.6001 50.93C30.7301 53.04 31.1301 55.24 30.4601 57.59C30.4101 57.76 30.3401 57.93 30.2901 58.1C30.2301 58.28 30.2701 58.45 30.3801 58.61C30.8001 59.26 32.5301 60.92 33.3301 61.42C33.5401 61.18 33.2901 61.03 33.2001 60.88C32.2001 59.18 31.8901 57.32 32.0001 55.38C32.0001 55.25 31.9901 55.06 32.1801 55.05C32.2701 55.05 32.3901 55.11 32.4501 55.18C33.1101 55.9 33.6801 56.68 34.0301 57.6C34.5001 58.82 34.7501 60.08 34.8401 61.38C34.8601 61.63 34.8601 61.88 34.8601 62.13C34.8601 62.37 34.9601 62.54 35.1701 62.65C36.1601 63.17 37.1901 63.57 38.3301 63.71C38.3401 63.28 38.0301 63.18 37.8301 63.01C36.6201 61.97 35.8101 60.68 35.3801 59.15C35.3301 58.98 35.2801 58.8 35.2401 58.63C35.2101 58.46 35.1301 58.24 35.2801 58.12C35.4901 57.96 35.6801 58.15 35.8501 58.27C37.4101 59.35 38.4801 60.8 39.1301 62.57C39.2201 62.8 39.2701 63.05 39.3501 63.29C39.4801 63.67 39.5901 63.74 39.9701 63.74C40.3401 63.74 40.4601 63.67 40.5701 63.26C40.8601 62.17 41.3501 61.18 42.0201 60.27C42.6401 59.42 43.3801 58.69 44.2801 58.13C44.4001 58.05 44.5501 57.98 44.6701 58.08C44.8001 58.18 44.7501 58.35 44.7201 58.48C44.3401 60.17 43.6001 61.66 42.2901 62.83C42.0301 63.06 41.6801 63.22 41.5701 63.6C41.9701 63.74 42.3001 63.58 42.6401 63.49C43.3101 63.32 43.9301 63.05 44.5501 62.76C44.9101 62.59 45.1001 62.34 45.0901 61.92C45.0901 61.06 45.1901 60.2 45.3701 59.35C45.6901 57.85 46.2601 56.47 47.3201 55.32C47.4201 55.22 47.5201 55.11 47.6401 55.03C47.7401 54.96 47.8601 55 47.9001 55.11C47.9501 55.24 47.9601 55.39 47.9601 55.53C48.0301 57.48 47.6801 59.32 46.6401 61C46.5901 61.09 46.5601 61.19 46.5101 61.29C46.7201 61.47 46.8601 61.28 46.9601 61.19C47.8701 60.47 48.6401 59.62 49.4101 58.76C49.6901 58.45 49.6901 58.16 49.5601 57.78C48.7401 55.38 49.1701 53.11 50.3101 50.91C50.3201 50.88 50.3701 50.87 50.4101 50.84C50.6701 50.88 50.6801 51.12 50.7301 51.3C51.0801 52.59 51.2901 53.9 51.0301 55.24C51.0001 55.42 50.9901 55.6 50.9801 55.78C50.9801 55.81 51.0001 55.85 51.0101 55.88C51.1901 55.95 51.2501 55.8 51.3101 55.68C51.7301 54.76 52.0901 53.83 52.3701 52.86C52.4701 52.51 52.4201 52.26 52.1801 51.98C50.6001 50.18 50.0801 48.02 50.0901 45.68C50.0901 45.58 50.0901 45.47 50.2201 45.42C50.3501 45.37 50.4201 45.46 50.4901 45.53C51.2001 46.16 51.7401 46.92 52.2301 47.72C52.3401 47.9 52.4401 48.09 52.5601 48.28C52.7801 48.06 52.6601 47.85 52.6201 47.67C52.5001 47.11 52.2901 46.57 52.0701 46.04C51.8301 45.46 51.4901 45.02 50.9601 44.65C49.0401 43.31 47.8201 41.42 47.0001 39.26C46.9801 39.21 47.0001 39.11 47.0501 39.08C47.0901 39.04 47.1901 39.03 47.2401 39.05C47.4001 39.12 47.5601 39.21 47.7101 39.3C49.0701 40.17 50.1801 41.28 50.9501 42.7C51.4201 43.55 51.8401 44.43 52.2801 45.29C52.3801 45.48 52.4301 45.7 52.6401 45.81C52.8801 45.55 52.8401 45.21 52.8901 44.9C53.1001 43.78 53.5401 42.77 54.2701 41.89C54.3401 41.81 54.4401 41.71 54.5401 41.78C54.6101 41.82 54.6701 41.94 54.6901 42.03C55.0901 44.24 54.8701 46.33 53.4201 48.16C53.2501 48.37 53.1701 48.58 53.1901 48.85C53.2301 49.28 53.2401 49.7 53.2701 50.13C53.6301 50.22 53.6201 49.9 53.7001 49.76C54.3901 48.48 55.4901 47.62 56.6601 46.83C56.7301 46.78 56.8901 46.76 56.9501 46.81C57.0101 46.86 57.0401 47.01 57.0201 47.1C56.5601 49.31 55.4701 51.12 53.5301 52.32C53.1001 52.58 52.8201 52.86 52.6901 53.36C52.5201 54.01 52.2801 54.64 52.0501 55.33L52.1001 55.4Z" fill="#0A7456"/>
<path d="M36.0382 27.8348C35.8785 28.2072 35.7987 28.3933 35.8272 28.5433C35.8521 28.6745 35.9284 28.7902 36.0391 28.8647C36.1657 28.95 36.3683 28.95 36.7734 28.95H43.6602C43.8208 28.95 43.9011 28.95 43.9737 28.9275C44.0379 28.9075 44.0974 28.8748 44.1487 28.8312C44.2066 28.7821 44.2497 28.7143 44.3357 28.5787L55.9605 10.2587C56.2146 9.85809 56.3417 9.65781 56.3292 9.49235C56.3183 9.34814 56.2455 9.21571 56.1296 9.12924C55.9966 9.03003 55.7594 9.03003 55.285 9.03003H44.6275C44.4368 9.03003 44.3414 9.03003 44.2584 9.0603C44.185 9.08705 44.119 9.13061 44.0655 9.18748C44.005 9.25182 43.9674 9.33948 43.8922 9.5148L36.0382 27.8348Z" fill="#FCD55C"/>
<path d="M36.1899 28.95H43.4599L55.4699 9.03003H45.0399L36.1899 28.95Z" fill="#0B9A4E"/>
<path d="M39.3999 48.38C39.3199 48.45 39.0199 48.3 38.7199 48.04C38.4099 47.77 38.2199 47.49 38.2899 47.4L39.1399 45.4C39.1399 45.4 39.2799 45.33 39.4199 45.47C39.6899 45.76 39.5899 46.29 39.5899 46.29C39.5899 46.29 39.9499 46.14 40.2399 46.41C40.5299 46.68 40.4399 47.06 40.4399 47.06C40.4399 47.06 40.9099 46.94 41.1799 47.13C41.3499 47.25 41.3399 47.4 41.3399 47.4L39.4099 48.38H39.3999Z" fill="#719683"/>
<path d="M38 48.78C37.72 48.51 37.7 48.06 37.97 47.78L38.05 47.7C38.05 47.7 38.11 47.66 38.14 47.67C38.18 47.8 38.35 48 38.57 48.2C38.76 48.37 38.95 48.49 39.09 48.54C39.12 48.58 39.11 48.64 39.08 48.68L39 48.76C38.73 49.04 38.29 49.06 38 48.79V48.78Z" fill="#719683"/>
<path d="M29.9998 52.17V52.88C29.9998 53.71 30.4998 53.9 30.9498 53.9C31.2698 53.9 31.4698 53.86 31.7298 53.74C31.8698 53.67 32.0198 53.57 32.2098 53.55C32.4898 53.5 32.7798 53.6 32.9498 53.87C33.2198 54.32 32.9798 54.85 32.5198 55.13C32.1598 55.35 31.6098 55.56 30.9598 55.56C29.5498 55.56 28.0098 54.96 28.0098 52.87V52.18C28.0098 50.14 29.5498 49.49 30.8898 49.49C31.5798 49.49 32.0898 49.67 32.3998 49.87C32.8598 50.15 33.0998 50.66 32.8498 51.09C32.6698 51.41 32.3698 51.48 32.0598 51.44C31.8898 51.42 31.7398 51.34 31.5898 51.27C31.3998 51.18 31.2498 51.14 30.9498 51.14C30.5198 51.14 29.9998 51.33 29.9998 52.16V52.17Z" fill="#719683"/>
<path d="M33.73 52.87V52.18C33.73 50.09 35.22 49.49 36.54 49.49C37.86 49.49 39.35 50.09 39.35 52.18V52.87C39.35 54.96 37.83 55.56 36.54 55.56C35.25 55.56 33.73 54.96 33.73 52.87ZM37.41 52.96V52.1C37.41 51.41 36.96 51.14 36.55 51.14C36.14 51.14 35.69 51.41 35.69 52.1V52.96C35.69 53.65 36.14 53.92 36.55 53.92C36.96 53.92 37.41 53.65 37.41 52.96Z" fill="#719683"/>
<path d="M42.1399 52.17V52.88C42.1399 53.71 42.6399 53.9 43.0899 53.9C43.4099 53.9 43.6099 53.86 43.8699 53.74C44.0099 53.67 44.1599 53.57 44.3499 53.55C44.6299 53.5 44.9199 53.6 45.0899 53.87C45.3599 54.32 45.1199 54.85 44.6599 55.13C44.2999 55.35 43.7499 55.56 43.0999 55.56C41.6899 55.56 40.1499 54.96 40.1499 52.87V52.18C40.1499 50.14 41.6899 49.49 43.0299 49.49C43.7199 49.49 44.2299 49.67 44.5399 49.87C44.9999 50.15 45.2399 50.66 44.9899 51.09C44.8099 51.41 44.5099 51.48 44.1999 51.44C44.0299 51.42 43.8799 51.34 43.7299 51.27C43.5399 51.18 43.3899 51.14 43.0899 51.14C42.6599 51.14 42.1399 51.33 42.1399 52.16V52.17Z" fill="#719683"/>
<path d="M51.9998 55.4H49.8098L48.5098 53.13L47.9698 53.69V55.4H46.0298V48.32C46.0298 47.68 46.5098 47.35 47.0098 47.35C47.5098 47.35 47.9698 47.68 47.9698 48.32V51.2L49.6898 49.19C50.0098 48.81 50.6298 48.72 51.0398 49.03C51.4498 49.34 51.4898 50.01 51.1498 50.37L49.8198 51.77L52.0098 55.4H51.9998Z" fill="#719683"/>
<path opacity="0.08" d="M40 68.5C49.9411 68.5 58 60.4411 58 50.5C58 40.5589 49.9411 32.5 40 32.5C30.0589 32.5 22 40.5589 22 50.5C22 60.4411 30.0589 68.5 40 68.5Z" fill="url(#paint1_radial_5353_59867)"/>
<path d="M40 31.67C50.37 31.67 58.8 40.1 58.8 50.47C58.8 60.84 50.37 69.27 40 69.27C29.63 69.27 21.2 60.84 21.2 50.47C21.2 40.1 29.63 31.67 40 31.67ZM40 30.47C28.95 30.47 20 39.42 20 50.47C20 61.52 28.95 70.47 40 70.47C51.05 70.47 60 61.52 60 50.47C60 39.42 51.05 30.47 40 30.47Z" fill="url(#paint2_linear_5353_59867)"/>
<defs>
<filter id="filter0_d_5353_59867" x="15.5" y="24.55" width="49" height="52.42" filterUnits="userSpaceOnUse" color-interpolation-filters="sRGB">
<feFlood flood-opacity="0" result="BackgroundImageFix"/>
<feColorMatrix in="SourceAlpha" type="matrix" values="0 0 0 0 0 0 0 0 0 0 0 0 0 0 0 0 0 0 127 0" result="hardAlpha"/>
<feOffset dy="2"/>
<feGaussianBlur stdDeviation="2"/>
<feComposite in2="hardAlpha" operator="out"/>
<feColorMatrix type="matrix" values="0 0 0 0 0.0901961 0 0 0 0 0.0901961 0 0 0 0 0.105882 0 0 0 0.12 0"/>
<feBlend mode="normal" in2="BackgroundImageFix" result="effect1_dropShadow_5353_59867"/>
<feBlend mode="normal" in="SourceGraphic" in2="effect1_dropShadow_5353_59867" result="shape"/>
</filter>
<radialGradient id="paint0_radial_5353_59867" cx="0" cy="0" r="1" gradientUnits="userSpaceOnUse" gradientTransform="translate(40 50.47) scale(20.5)">
<stop stop-color="white"/>
<stop offset="1" stop-color="#17171B" stop-opacity="0.5"/>
</radialGradient>
<radialGradient id="paint1_radial_5353_59867" cx="0" cy="0" r="1" gradientUnits="userSpaceOnUse" gradientTransform="translate(40 50.5) rotate(90) scale(18)">
<stop offset="0.774038" stop-color="#CCEDD5" stop-opacity="0"/>
<stop offset="1" stop-color="#719683"/>
</radialGradient>
<linearGradient id="paint2_linear_5353_59867" x1="27.5" y1="35.5" x2="52" y2="68.5" gradientUnits="userSpaceOnUse">
<stop stop-color="white" stop-opacity="0.5"/>
<stop offset="0.254808" stop-color="#9DB9AB" stop-opacity="0.9"/>
<stop offset="0.505478" stop-color="#719683"/>
<stop offset="1" stop-color="white" stop-opacity="0.5"/>
</linearGradient>
</defs>
</svg>
