<svg width="12" height="14" viewBox="0 0 12 14" fill="none" xmlns="http://www.w3.org/2000/svg">
<path d="M6 0.583252C7.39239 0.583252 8.72774 1.13971 9.71231 2.13021C10.6969 3.12071 11.25 4.46412 11.25 5.86489C11.25 8.09673 9.69115 10.529 6.61385 13.1877C6.44274 13.3356 6.22457 13.4168 5.99899 13.4166C5.77341 13.4164 5.55539 13.3348 5.38454 13.1866L5.181 13.0089C2.23992 10.4196 0.75 8.04689 0.75 5.86489C0.75 4.46412 1.30312 3.12071 2.28769 2.13021C3.27226 1.13971 4.60761 0.583252 6 0.583252ZM6 1.39581C4.82183 1.39581 3.69191 1.86666 2.85881 2.70478C2.02572 3.54289 1.55769 4.67962 1.55769 5.86489C1.55769 7.76195 2.92969 9.94774 5.71138 12.3963L5.91223 12.5712C5.93665 12.5924 5.96779 12.604 6 12.604C6.03221 12.604 6.06335 12.5924 6.08777 12.5712C9.00408 10.0512 10.4423 7.80691 10.4423 5.86489C10.4423 5.27801 10.3274 4.69686 10.1042 4.15465C9.88091 3.61244 9.55369 3.11977 9.14119 2.70478C8.72868 2.28978 8.23896 1.96059 7.7 1.736C7.16103 1.51141 6.58337 1.39581 6 1.39581ZM6 3.83349C6.53553 3.83349 7.04913 4.04752 7.42781 4.42848C7.80649 4.80944 8.01923 5.32613 8.01923 5.86489C8.01923 6.40366 7.80649 6.92035 7.42781 7.30131C7.04913 7.68227 6.53553 7.8963 6 7.8963C5.46447 7.8963 4.95087 7.68227 4.57219 7.30131C4.19351 6.92035 3.98077 6.40366 3.98077 5.86489C3.98077 5.32613 4.19351 4.80944 4.57219 4.42848C4.95087 4.04752 5.46447 3.83349 6 3.83349ZM6 4.64605C5.67868 4.64605 5.37052 4.77447 5.14331 5.00304C4.91611 5.23162 4.78846 5.54164 4.78846 5.86489C4.78846 6.18815 4.91611 6.49817 5.14331 6.72674C5.37052 6.95532 5.67868 7.08373 6 7.08373C6.32132 7.08373 6.62948 6.95532 6.85669 6.72674C7.08389 6.49817 7.21154 6.18815 7.21154 5.86489C7.21154 5.54164 7.08389 5.23162 6.85669 5.00304C6.62948 4.77447 6.32132 4.64605 6 4.64605Z" fill="#121212"/>
</svg>
